<svg xmlns="http://www.w3.org/2000/svg" viewBox="0 0 325.88 46.65"><g id="Layer_2" data-name="Layer 2"><g id="Layer_1-2" data-name="Layer 1"><path d="M8.06,35.9v9.92H0V.77H19.84c9.34,0,16,5.37,16,17.6S29.18,35.9,19.2,35.9Zm10.56-7.55c5.51,0,9-3.07,9-10s-3.52-10-8.77-10H8.06v20Z"/><path d="M38.46,23.29C38.46,9.09,46.4,0,59.33,0S80.12,9.09,80.12,23.29c0,14.6-7.87,23.36-20.79,23.36S38.46,37.89,38.46,23.29Zm33.6,0c0-10-4.67-15.8-12.73-15.8s-12.8,5.76-12.8,15.8c0,10.31,5,15.81,12.8,15.81S72.06,33.6,72.06,23.29Z"/><path d="M114.11,45.82,104.25,31H92.73V45.82H84.67V.77h20.54c9.41,0,15.3,4.16,15.3,15.42,0,7.42-4.23,11.52-8.83,13.06l11.84,16.57Zm-9.86-21.69c5.06,0,8.07-2.24,8.07-8s-3-7.81-8-7.81H92.73V24.13Z"/><path d="M138,45.82V8.32h-14.2V.77h36.86V8.32H146.49v37.5Z"/><path d="M164.93,45.82V.77h26.81V8.32H173V20h18.49v6.72H173V45.82Z"/><path d="M195,23.29C195,9.09,202.94,0,215.87,0s20.8,9.09,20.8,23.29c0,14.6-7.87,23.36-20.8,23.36S195,37.89,195,23.29Zm33.59,0c0-10-4.67-15.8-12.73-15.8s-12.8,5.76-12.8,15.8c0,10.31,5,15.81,12.8,15.81S228.6,33.6,228.6,23.29Z"/><path d="M241.21,45.82V.77h8.07V38.33h17.47v7.49Z"/><path d="M271.42,45.82V.77h8.13V45.82Z"/><path d="M284.22,23.29C284.22,9.09,292.16,0,305.08,0s20.8,9.09,20.8,23.29c0,14.6-7.87,23.36-20.8,23.36S284.22,37.89,284.22,23.29Zm33.6,0c0-10-4.67-15.8-12.74-15.8s-12.8,5.76-12.8,15.8c0,10.31,5,15.81,12.8,15.81S317.82,33.6,317.82,23.29Z"/></g></g></svg>