<svg xmlns="http://www.w3.org/2000/svg" width="686.333" height="252.107" viewBox="0 0 686.333 252.107">
  <g id="figma" transform="translate(-26.612 -10.994)">
    <g id="Layer_2" data-name="Layer 2" transform="translate(26.612 10.994)">
      <path id="Path_268" data-name="Path 268" d="M724.972,384.672c-77.5-5.245-151.963-29.369-229.731-26.765-2.654.1-5.534.277-7.547,1.509a10.388,10.388,0,0,0-3.056,3.534c-5.823,8.653-19.6,14.427-33.306,13.835-1.333,1.949,2.327,3.773,5.421,4.063s6.817.176,8.515,1.975c2.415,2.516-1.773,5.622-5.584,7.132C418.807,406.18,368.7,403.211,321.72,405.048c-41.2,1.585-82.082,7.194-123.361,6.943-24.879-.151-49.631-2.453-74.284-4.767-9.182-.843-20.011-2.516-23.42-8.553a11.685,11.685,0,0,1-.906-7.547c3.534-27.935,31.369-53.719,68.938-63.819,27.168-7.333,57.279-6.754,86.3-5.119,42.839,2.377,85.4,6.792,127.952,10.955,45.9,4.49,91.817,8.729,138.14,10.515,31.117,1.258,62.5,1.258,93.288-2.012,22-2.352,43.644-6.415,65.844-7.446s45.682,1.358,63.517,10.628a5.258,5.258,0,0,1,2.516,2.063c.516,1.258-.453,2.516-1.585,3.459-7.723,6.628-22.64,6.427-33.96,3.182s-21.168-8.8-32.828-11.458c-9.911-2.226-20.514-2.226-30.916-2.176l-61.844.226a28.487,28.487,0,0,0-6.83.566c-3.082.78-5.421,2.516-7.874,4.025-8.9,5.434-20.992,8.3-32.828,7.723-5.345-.252-13.118.226-12.842,3.962" transform="translate(-99.489 -159.892)" fill="#d6917f"/>
      <path id="Path_269" data-name="Path 269" d="M234.2,336.337c4.063-2.516,8-5.27,12.968-6.8,5.32-1.648,11.32-1.8,17.131-1.673,36.94.78,73.252,11.32,109.891,7.924,3.434-.327,7.081-.729,10.263.226,2.516.78,4.465,2.88,3.987,4.666a2.239,2.239,0,0,1-2.138,1.258,567.984,567.984,0,0,0-71.994,6.83c-2.516.4-2.314,2.855.176,3.107a239.362,239.362,0,0,1,24.728,3.773c2.516.5,2,3.056-.579,3.107-27.042.453,10.062,2.163-15.257,8.8,6.528-2.277-50.449,3.861-43.758,5.924,10.288,3.157,22.074,1.132,33.2.075a179.42,179.42,0,0,1,66.209,6.176c1.887.553,1.861,2.415,0,2.943C366.063,386.308,352,387.7,338.2,389.491c-43.72,5.5-86.6,14.125-130.594,18.426-26,2.516-55.04,3.019-75.6-8.364-9.936-5.5-11.32-20.124-6.528-28.1,4.289-7.194,13.622-8.377,23.734-9.672C181.134,357.657,209.195,351.682,234.2,336.337Z" transform="translate(-102.703 -160.811)" fill="#80892f"/>
      <path id="Path_270" data-name="Path 270" d="M600.065,345.587c1.132-1.258-3.484-1.333-3.232.176s2.88,2.1,5.031,2.352c26.338,2.981,53.291,1.534,79.855,3.258a324.993,324.993,0,0,1,87.327,17.885c11.961,4.264,23.42,9.182,35.029,13.923-66.963,12.791-139.612,2.931-206.5,16.074-7.622,1.5-15.194,3.308-23.042,4.037a174.33,174.33,0,0,1-22.929.075q-34.9-1.472-69.844-2.905c-4.037-7.547-8.125-15.609-5.27-23.382,4.641-12.641,24.853-18.678,42.689-22.64q32.136-7.232,64.7-13.42c16.024-3.031,32.4-5.924,48.977-5.32,23.03.83,45.355,8.7,59.945,21.118" transform="translate(-151.298 -161.885)" fill="#c16452"/>
      <path id="Path_271" data-name="Path 271" d="M610.341,177.574c-1.119.252-2.075-1.107-1.9-2.239a5.547,5.547,0,0,1,1.874-2.83c2.742-2.654,5.673-5.421,9.383-6.289s8.352.843,9.207,4.553c.6,2.616-.755,5.245-2.088,7.547a13.257,13.257,0,0,1,9.433-4.339c3.559.075,7.144,2.453,7.924,5.911s-2.126,7.471-5.66,7.22a6.93,6.93,0,0,1,8.8,4.264,8.238,8.238,0,0,1-3.849,9.333,10.238,10.238,0,0,1-10.377-.478,11.018,11.018,0,0,1-21.382,2.365,4.137,4.137,0,0,0-1.057-1.962,3.081,3.081,0,0,0-2.075-.4c-2.981.2-5.874,1.258-8.8,1.66s-6.289.226-8.553-1.711-2.956-5.937-.654-7.848c-2.931-1.258-5.937-2.754-7.949-5.27s-2.7-6.289-.755-8.918c2.516-3.371,7.622-2.817,11.735-1.937a3.774,3.774,0,0,0,2.792-.126c.88-.553,1.132-1.7,1.572-2.629a5.509,5.509,0,0,1,10.414,3.031" transform="translate(-165.788 -138.516)" fill="#dfe8ef"/>
      <path id="Path_272" data-name="Path 272" d="M626.824,216.431c-14.427,1.082-28.664-3.182-42.512-7.4a27.257,27.257,0,0,1-6.716-2.717,24.414,24.414,0,0,1-6.452-6.691c-8.4-11.735-14.464-25.457-25.482-34.8s-29.671-12.225-38.815-1.057c-7.132-6.855-19.194-4.566-27.344,1.057s-14.238,13.835-22.514,19.206c-14.049,9.157-32.438,9.056-47.053,17.257-11.961,6.691-20.363,18.376-31.746,25.973-13.722,9.157-30.7,11.722-47.1,13.5s-33.28,3.056-48.147,10.163-27.545,21.659-26.992,38.148c.176,5.031,1.761,10.351,5.622,13.634,3.081,2.616,7.22,3.61,11.156,4.49q58.109,13.018,117.224,20.338c22.363,2.767,44.789,4.918,67.24,7.056,20.237,1.924,40.5,3.861,60.838,4.377s40.877-.365,61.316-1.258l78.648-3.484c2.78-.126,5.9-.4,7.7-2.516a10.376,10.376,0,0,0,1.887-5.559c4.39-32.7,10.062-65.4,13.244-98.244C684.266,191.829,648.508,216.431,626.824,216.431Z" transform="translate(-121.042 -137.212)" fill="#b59288"/>
      <path id="Path_273" data-name="Path 273" d="M805.182,390.147q-91.5-14.263-184.137-24.564a153.932,153.932,0,0,0-22.137-1.346c-14.087.528-27.231,4.842-40.475,8.2,5.849,11.76,24.149,18.275,41.707,20.539s35.821,1.472,53.141,4.465c24.577,4.239,46.248,15.923,71.5,17.156,32.1,1.547,65.4-14.049,94.8-5.031Q834.3,384.135,849.052,358.7c-41.053,1.057-82.66,2.088-122.682-4.339-23.13-3.773-49.858-9.358-68.624.755A759.991,759.991,0,0,0,776.5,377.066c11.634,1.258,24.853,2.8,31.193,9.7q-14.716,1.7-29.52,2.792" transform="translate(-162.719 -163.782)" fill="#80892f"/>
      <path id="Path_274" data-name="Path 274" d="M712.384,290.744c-10.188-8.8-27.017-8.251-36.664,1.057-2.012,1.937-3.773,4.49-3.509,7.27s2.931,5.169,5.735,5.949a22.15,22.15,0,0,0,8.729.1l12.792-1.56c4.742-.579,10.829-2.6,10.653-7.37-.076-2.277-1.346-5.421.755-6.289" transform="translate(-178.391 -154.838)" fill="#4e874b"/>
      <path id="Path_275" data-name="Path 275" d="M729.189,268.409a29.054,29.054,0,0,0-12.729-2.943c-2.578,0-5.723.755-6.49,3.232-.981,3.157,2.7,5.7,5.811,6.767a61.278,61.278,0,0,0,23.331,3.195,47.933,47.933,0,0,0-13.144-13.345" transform="translate(-183.574 -152.199)" fill="#4e874b"/>
      <path id="Path_276" data-name="Path 276" d="M693.792,232.457c-1.95-2.516-6.163-2.239-8.59-.151s-3.522,5.308-4.364,8.427a118.309,118.309,0,0,0-2.868,13.835,4.528,4.528,0,0,0,.226,2.893c.7,1.258,2.339,1.572,3.773,1.723,4.314.453,8.8.553,12.842-1.107a15.37,15.37,0,0,0-9.634-29.142" transform="translate(-179.168 -147.113)" fill="#242838"/>
      <path id="Path_277" data-name="Path 277" d="M608.795,284.433c-.428-2.088-3.157-2.516-5.283-2.516q-14.339,0-28.664.1c-3.27,0-7.76,1.434-7.132,4.616.428,2.138,3.019,2.956,5.169,3.283a79.629,79.629,0,0,0,37.9-3.509c2.516-1.258,1.622-5.434-.88-6.666s-5.5-.453-8.15.352" transform="translate(-163.99 -154.098)" fill="#242838"/>
      <path id="Path_278" data-name="Path 278" d="M519.461,287.361a28.928,28.928,0,0,0-4.44,12.968A77.981,77.981,0,0,0,545.9,298.19c.931,2.516-1.157,5.245-3.66,6.2s-5.245.641-7.924.667a31.683,31.683,0,0,0-15.885,4.49c-1.258.755-2.516,1.861-2.516,3.32.126,1.9,2.516,2.654,4.415,2.8a35.934,35.934,0,0,0,20.615-4.792l.453-.252a12.5,12.5,0,0,0,5.672-9.861c.415-11.32,21.508-19.206,11.458-28.262C548.1,263.111,525.084,278.632,519.461,287.361Z" transform="translate(-156.738 -152.788)" fill="#242838"/>
      <path id="Path_279" data-name="Path 279" d="M575.185,166.791c-4.918-2.126-11.056-3.685-15.244-.377s-4.138,9.836-5.195,15.257c-2.239,11.458-11.32,20.124-19,28.929s-14.8,20.124-11.9,31.444c8.326-2.755,14.6-10.062,22.929-12.741,5.735-1.874,11.936-1.472,17.961-1.258,14.867.654,29.935.679,44.814,0,12.741-.566,19.558-1.5,8.955-12.578-7.685-8.037-18.59-12.741-26.262-21.47C587.762,188.865,579.8,168.778,575.185,166.791Z" transform="translate(-157.862 -138.31)" fill="#242838"/>
      <path id="Path_280" data-name="Path 280" d="M284.246,264.235c-3.107,2.616-5.031,7.094-3.509,10.867A994.68,994.68,0,0,0,394.3,259.267c15.621-3.107,35.582-7.371,45.116-21.457a233.4,233.4,0,0,0-66.334,2.88c-14.3,2.629-28.539,5.786-42.663,9.257C317,253.2,295.037,255.154,284.246,264.235Z" transform="translate(-124.387 -148.251)" fill="#242838"/>
      <path id="Path_281" data-name="Path 281" d="M323.772,298.8c-3.987,1.547-8.427,0-12.578-.981s-9.345-.956-11.81,2.516-.629,8.528,2.629,11.244,7.547,3.773,11.5,5.207a59.429,59.429,0,0,1,18,10.339,24.729,24.729,0,0,0,4.918,3.585c4.868,2.314,10.691.352,15.345-2.327s9.131-6.125,14.452-6.981c.579-11.936-11.005-22.942-22.891-21.734a55.164,55.164,0,0,1,10.062,16.93c-3.308,1.472-7.3,0-10.062-2.39s-4.717-5.547-7.232-8.175a27.369,27.369,0,0,0-27.985-6.993" transform="translate(-126.872 -156.6)" fill="#242838"/>
      <path id="Path_282" data-name="Path 282" d="M302.255,331.04a93.387,93.387,0,0,0-3.321,38.11,5.509,5.509,0,0,0,.906,2.83c1.157,1.509,3.383,1.484,5.27,1.258a40.739,40.739,0,0,0,24.426-13.37,7.937,7.937,0,0,0,2.3-4.415,10.176,10.176,0,0,0-1.258-4.591,31.445,31.445,0,0,1-2.189-15.269c.478-4.339,1.56-9.484-1.648-12.414-1.861-1.711-4.616-1.962-7.157-1.811a28.69,28.69,0,0,0-21.319,11.961" transform="translate(-126.875 -159.917)" fill="#242838"/>
      <path id="Path_283" data-name="Path 283" d="M485.745,284.527c-5.169-.742-10.289,1.861-14.15,5.371s-6.767,7.9-10.251,11.785c-1.912,2.163-5.421,4.163-7.32,2.038-1.434-1.61-.528-4.163-.981-6.289a10.892,10.892,0,0,0-2.8-4.39,40.11,40.11,0,0,1-9.408-21.382,37.733,37.733,0,0,0-15.257,27.532,14.376,14.376,0,0,1-.818-13.835,110.558,110.558,0,0,0-28.74,7.446,10.691,10.691,0,0,0-4.138,2.516,13.079,13.079,0,0,0-2.239,5.345,42.512,42.512,0,0,1-6.691,13.835c11.76,2.931,23.621-5.169,35.733-4.767,4.138.151,8.175,1.258,12.238,2.088,14.754,2.956,29.947,1.748,44.94.553a11.03,11.03,0,0,0,4.616-1.057C484.562,309.1,485.568,288.98,485.745,284.527Z" transform="translate(-138.542 -153.073)" fill="#242838"/>
      <path id="Path_284" data-name="Path 284" d="M717.49,254.3a31.973,31.973,0,0,1,20.338.377,10.062,10.062,0,0,1,4.842,3.107c2.692,3.585.327,9.182-3.685,11.169s-8.8,1.258-13.068-.252-8.251-3.6-12.691-4.314c-6.54-1.082-13.156,1.069-19.407,3.283,11.735-1.635,21.546-14.125,33-11.081" transform="translate(-181.371 -150.478)" fill="#242838"/>
      <path id="Path_285" data-name="Path 285" d="M590.19,304.453a125.971,125.971,0,0,1,33.532,4.817v2.6a92.245,92.245,0,0,1-27.319-3.056" transform="translate(-167.094 -157.591)" fill="#242838"/>
      <path id="Path_286" data-name="Path 286" d="M625.934,297.8a44.449,44.449,0,0,1,26.212,5.031c1.258,2.126-2.365,3.773-4.867,3.559a80.32,80.32,0,0,1-24.6-6.3" transform="translate(-171.57 -156.634)" fill="#242838"/>
      <path id="Path_287" data-name="Path 287" d="M551.154,335.613c12.716-.6,25.734-1.182,37.9,2.516a112.8,112.8,0,0,1-36.475,1.6,8.037,8.037,0,0,1-1.4-4.239" transform="translate(-161.716 -161.823)" fill="#242838"/>
      <path id="Path_288" data-name="Path 288" d="M441.569,334.24a27.017,27.017,0,0,1,1.044,10.842,54.65,54.65,0,0,1-42.324.226,29.443,29.443,0,0,1-1.434-8.8c2.516-1.685,5.811-.981,8.679-.075s6.012,1.9,8.8.679,3.585-5.974.742-6.981a91.389,91.389,0,0,0-35.708,3.3,66.661,66.661,0,0,1,25.155-4.742C411.722,328.581,440.009,329.285,441.569,334.24Z" transform="translate(-138.325 -160.928)" fill="#242838"/>
      <path id="Path_289" data-name="Path 289" d="M477.884,257.413a8.062,8.062,0,0,0-3.773,1.258c-1.623,1.258-2.151,3.333-2.83,5.27-3.358,9.534-12.917,18.036-10.138,27.759,3.6-.176,6.176-3.333,8.5-6.062A69.743,69.743,0,0,1,503.5,263.915c5.723-1.635-5.283-6.842-5.031-6.742C493.619,254.683,482.978,256.746,477.884,257.413Z" transform="translate(-149.246 -150.913)" fill="#242838"/>
      <path id="Path_290" data-name="Path 290" d="M582.289,259.9a97.174,97.174,0,0,1,30.35-4.088,54.522,54.522,0,0,1-14.829,13.835c-7.421,4.717-17.307,7.484-24.879,3.019a4.792,4.792,0,0,1-2.516-2.968c-.352-1.824,1.094-3.484,2.516-4.629a26.174,26.174,0,0,1,16.452-5.6" transform="translate(-164.362 -150.886)" fill="#242838"/>
      <path id="Path_291" data-name="Path 291" d="M654.925,256.36c-1.962-2.692-5.949-2.666-9.232-2.163a84.986,84.986,0,0,0-30.186,10.641c-1.648,3.031,1.031,6.968,4.339,7.9s6.855-.176,10.138-1.258l21.923-7.345a15.093,15.093,0,0,0-.956-10.59" transform="translate(-170.513 -150.577)" fill="#242838"/>
      <path id="Path_292" data-name="Path 292" d="M703.212,356.708a156.341,156.341,0,0,1,37.242.83,4.088,4.088,0,0,1,3.182,1.522c1.409,2.516-2.78,4.264-5.635,4.113l-38.45-1.773a11.886,11.886,0,0,1,12.917-7.547" transform="translate(-182.161 -164.378)" fill="#242838"/>
      <path id="Path_293" data-name="Path 293" d="M688.437,369.471c1.761,0,4.063.453,4.264,2.214a2.955,2.955,0,0,1-.83,2.1c-2.453,2.931-6.742,3.333-10.553,3.459-18.313.553-39.733,1.333-57.329-3.773C639.057,363.182,670.979,369.471,688.437,369.471Z" transform="translate(-171.751 -166.287)" fill="#242838"/>
      <path id="Path_294" data-name="Path 294" d="M486.908,213.284c-3.22,2.968-7.547,4.339-11.6,5.874a141.51,141.51,0,0,0-30.966,16.024c11.207-2.352,19.684-11.207,28.463-18.59,7.018-5.911,15.018-12.188,23.671-15.345C493.248,205.071,490.619,209.876,486.908,213.284Z" transform="translate(-147.001 -143.372)" fill="#242838"/>
      <path id="Path_295" data-name="Path 295" d="M709.692,289.475c2.251-.377,5.195-.226,6.062,1.874.78,1.861-.641,3.886-2.1,5.27a30.073,30.073,0,0,1-29.822,6.4c-.729-5.421,6.289-5.874,10.138-8.012A49.052,49.052,0,0,1,709.692,289.475Z" transform="translate(-179.988 -155.505)" fill="#242838"/>
      <path id="Path_296" data-name="Path 296" d="M640.852,344.262c.553.906-.2,2.038-.981,2.792-2.931,2.855-20.514,12.791-24.225,6.691C612.515,348.677,638.072,344.84,640.852,344.262Z" transform="translate(-170.565 -163.076)" fill="#242838"/>
      <path id="Path_297" data-name="Path 297" d="M351.179,282.441A7.723,7.723,0,0,1,345,278.152q34.085-9.647,68.951-16.25a57.315,57.315,0,0,1-4.817,14.339,17.093,17.093,0,0,1-3.585,5.27,21.948,21.948,0,0,1-6.893,3.635A150.051,150.051,0,0,0,353.38,313.03c-1.145-12.213-17.018-21.6-13.056-33.2,2.352-6.943,10.578-9.622,17.7-11.32l17.055-4.2" transform="translate(-132.582 -151.729)" fill="#242838"/>
      <path id="Path_298" data-name="Path 298" d="M730.269,297.02a6.679,6.679,0,0,1,1.6,1.861l1.937,2.83a18.187,18.187,0,0,1-6.289,1.937,18.752,18.752,0,0,1-5.987-.956c-3.082-.855-13.7-1.761-11.031-5.8,1.824-2.78,13.005-3.987,12.98.5C725.452,296.567,728.282,295.6,730.269,297.02Z" transform="translate(-183.61 -156.208)" fill="#80892f"/>
      <path id="Path_299" data-name="Path 299" d="M611.681,253.541a2.39,2.39,0,0,0,.478,1.723,2.415,2.415,0,0,0,1.56.5,49.857,49.857,0,0,0,17.018-1.912,2.742,2.742,0,0,0,1.635-.918,2.892,2.892,0,0,0,.252-1.962,124.337,124.337,0,0,0-2.453-12.666q-3.283-14.074-6.553-28.136c-1.17-5.031-4.465-14.439-9.748-6.817-4.188,6.037-2.641,15.6-2.516,22.413Q611.492,239.693,611.681,253.541Z" transform="translate(-169.957 -143.267)" fill="none"/>
      <path id="Path_300" data-name="Path 300" d="M690.56,350.737a2.4,2.4,0,0,0,.478,1.736,2.364,2.364,0,0,0,1.547.5,49.933,49.933,0,0,0,17.03-1.912,2.151,2.151,0,0,0,1.887-2.88,121.055,121.055,0,0,0-2.516-12.666q-3.27-14.074-6.54-28.136c-1.182-5.031-4.465-14.452-9.76-6.83-4.188,6.05-2.629,15.609-2.516,22.426Z" transform="translate(-180.817 -156.659)" fill="#a2a5a2"/>
      <path id="Path_301" data-name="Path 301" d="M370.106,145.211c-1.258-1.031-.226-3.119.868-4.339,2.666-2.993,5.7-6.2,9.66-6.7s8.477,3.509,6.779,7.144c2.516-2.126,5.157-4.364,8.364-5.031s7.157.943,7.911,4.138c.893,3.773-2.843,7.018-6.226,9.018.906-2.277,4.792-1.748,5.8.5s-.151,4.918-1.836,6.729a12.917,12.917,0,0,1-15.093,2.516,22.552,22.552,0,0,0-6.1,2.629c-1.975,1.006-4.264,1.811-6.389,1.157s-3.71-3.308-2.516-5.195a17.294,17.294,0,0,1-7.622,6.955,6.125,6.125,0,0,1-2.88.73,7.722,7.722,0,0,1-4.037-1.912c-3.031-2.226-6.176-4.591-7.874-7.949s-1.585-7.974,1.258-10.364,8.477-.44,8.352,3.346a6.452,6.452,0,0,1,1.321-9.219c2.981-1.836,7.622,0,8.276,3.459a3.774,3.774,0,0,0,.78,2.239c.6.516,1.912-.2,1.409-.83" transform="translate(-133.699 -134.125)" fill="#dfe8ef"/>
      <path id="Path_302" data-name="Path 302" d="M451.6,191.447a17.282,17.282,0,0,1-1.484,13.118c4.767-1.459,8.8-4.566,13.144-7.018s9.458-4.314,14.213-2.943,8.377,7.257,5.849,11.571a40.538,40.538,0,0,1,30.048-7.433c3.207.5,6.666,1.61,8.377,4.364,3.434,5.522-2.339,12.087-7.547,16.024a48.285,48.285,0,0,1,24.1-6.855,8.4,8.4,0,0,1,5.031,1.082c3.949,2.729,1.484,9.157-2.277,12.137-5.622,4.44-12.917,5.974-19.936,7.37-3.484.7-8.905-.528-7.849-3.912a67.818,67.818,0,0,1-38.676,6c-5.849-.83-12.578-3.534-13.6-9.358.755,4.515-31.444,0-34.022.4-10.515,1.572-20.489,13.521-28.715.1C383.45,202.038,449.281,183.674,451.6,191.447Z" transform="translate(-140.352 -141.773)" fill="#fff" opacity="0.54" style="isolation: isolate"/>
    </g>
    <path id="Path_303" data-name="Path 303" d="M597.8,226.625c-15.923-8.8-29.746-20.942-42.211-34.111-2.78-2.931-6.213-5.9-7.874-9.66-1.371-3.082-1.824-6.465-3.056-9.6a10.376,10.376,0,0,0-5.169-5.974,18.376,18.376,0,0,0-7.647-1.258c-6.666,0-14.666,1.56-20.061,5.723l.352.453c1.924-2.063,1.409-5.031-.226-7.043-2.012-2.591-5.169-3.119-8.251-2.516-4.339.855-8.427,3.484-12.339,5.471-4.264,2.176-8.477,4.39-12.666,6.716a167.289,167.289,0,0,0-24,16.087c-7.647,6.289-15.093,12.578-23.432,17.885-15.621,9.936-32.928,16.351-50.851,20.665-17.433,4.239-35.217,6.817-52.826,10.288-19.357,3.773-38.689,8.8-56.222,18.074-.327.176,0,.679.3.5,30.652-16.25,65.781-19.03,99.162-26.111,16.527-3.484,32.878-8.125,48.021-15.747a147.056,147.056,0,0,0,22.954-14.339c7.547-5.8,14.59-12.339,22.439-17.785a237.062,237.062,0,0,1,26.841-15.546c2.277-1.182,4.566-2.365,6.867-3.509a18.867,18.867,0,0,1,7.974-2.44,6.7,6.7,0,0,1,5.924,3.107,4.591,4.591,0,0,1-.126,5.723c-.2.226.075.654.352.453,4.918-3.773,12.037-5.27,18.1-5.6a19.633,19.633,0,0,1,9.031,1.182c3.119,1.409,4.591,4.39,5.547,7.547a55.347,55.347,0,0,0,2.83,8.628c1.685,3.308,4.742,5.949,7.257,8.628a224.76,224.76,0,0,0,19,18.112,150.94,150.94,0,0,0,23.7,16.5c.3.2.578-.277.252-.478Z" transform="translate(-96.532 -127.029)"/>
    <path id="Path_304" data-name="Path 304" d="M251.5,296.308c14.276-4.515,29.042-9.182,44.185-8.528a54.663,54.663,0,0,1,34.488,14.049A53.494,53.494,0,0,1,342.313,317.8c.176.327.654,0,.5-.3a55.341,55.341,0,0,0-25.331-24.9c-12.766-6.176-26.979-6.389-40.7-3.773a225.215,225.215,0,0,0-25.457,6.943c-.327.076-.176.629.176.528Z" transform="translate(-93.772 -144.226)"/>
    <path id="Path_305" data-name="Path 305" d="M362.439,297.655q31.117-6.289,62.649-10.314l-.277-.277c0,5.974.075,11.961.126,17.936a.289.289,0,1,0,.579,0c0-5.974-.076-11.961-.126-17.936a.264.264,0,0,0-.277-.277q-24.489,3.094-48.776,7.609-7.043,1.258-14.024,2.729C361.911,297.126,362.087,297.7,362.439,297.655Z" transform="translate(-109.056 -144.163)"/>
    <path id="Path_306" data-name="Path 306" d="M438.981,293.79c.956-6.05,2.012-12.314,4.314-18.011a19.758,19.758,0,0,1,4.39-6.767c.679-.7,1.409-1.358,2.025-2.113,1.509-1.723,2.516-3.773,4.264-5.358,3.471-3.17,8.4-2.339,12.741-2.239l11.924.327,26.853.73a.289.289,0,1,0,0-.579l-24.778-.679-12.137-.327-6.666-.176a13.52,13.52,0,0,0-5.673.755c-3.861,1.635-5.572,5.874-8.427,8.7a21.645,21.645,0,0,0-4.415,6.025c-2.855,6.062-3.937,12.98-5.031,19.558,0,.352.5.528.579.151Z" transform="translate(-119.565 -140.274)"/>
    <path id="Path_307" data-name="Path 307" d="M495.467,307.967a79.087,79.087,0,0,1,15.206-26.136,36.4,36.4,0,0,1,5.66-5.471,19.206,19.206,0,0,1,7.132-3.082,115.857,115.857,0,0,1,17.068-1.8q9.672-.679,19.395-.83a.289.289,0,1,0,0-.579c-6.151.1-12.263.327-18.414.755a159.531,159.531,0,0,0-17.131,1.673,19.974,19.974,0,0,0-7.295,2.641,27.784,27.784,0,0,0-5.547,4.817,77.676,77.676,0,0,0-9.194,12.15,81.755,81.755,0,0,0-7.459,15.672.3.3,0,0,0,.579.176Z" transform="translate(-127.351 -141.86)"/>
    <path id="Path_308" data-name="Path 308" d="M540.769,315.641A41.191,41.191,0,0,1,557.3,298.56a46.171,46.171,0,0,1,11.659-5.031,50.938,50.938,0,0,1,14.225-1.132,125.1,125.1,0,0,0,16.25,0c.352,0,.377-.6,0-.579-9.81.956-19.822-1.258-29.52.83a44.023,44.023,0,0,0-11.735,4.742,48.587,48.587,0,0,0-9.861,7.094,37.419,37.419,0,0,0-8.05,10.842c-.176.327.327.629.5.3Z" transform="translate(-133.599 -144.843)"/>
    <path id="Path_309" data-name="Path 309" d="M674.077,231.639c-8.226-3.144-17.407-5.8-26.161-3.195a21.86,21.86,0,0,0-9.068,5.195,26.038,26.038,0,0,0-3.144,4.214c-.3.478-.39.428-.943.327s-.906-.2-1.358-.277c-1.132-.226-2.226-.453-3.358-.629-7.421-1.258-15.873-1.7-22.3,2.968-1.648,1.258-3.031,2.679-4.566,3.987a14.464,14.464,0,0,1-6.163,3.182c-4.314,1.057-8.8.73-13.244,1.157a78.874,78.874,0,0,0-29.092,8.8c-.327.164,0,.667.3.491a80.283,80.283,0,0,1,34.488-9.043c5.132-.2,10.062-.654,14.112-4.138a38.2,38.2,0,0,1,6.427-5.144,20.766,20.766,0,0,1,7.848-2.314c5.937-.616,11.936.528,17.747,1.786a.314.314,0,0,0,.327-.126c2.792-5.874,8.8-9.408,15.093-10.452,7.823-1.333,15.722,1.094,22.967,3.861.3.075.453-.478.1-.629Z" transform="translate(-135.571 -135.98)"/>
    <path id="Path_310" data-name="Path 310" d="M651.5,253.521a33.62,33.62,0,0,0-38.148,8.4c-.252.277.151.679.4.4a33.067,33.067,0,0,1,37.469-8.3C651.53,254.175,651.819,253.672,651.5,253.521Z" transform="translate(-143.663 -139.209)"/>
    <path id="Path_311" data-name="Path 311" d="M646.238,276.369a15.093,15.093,0,0,1,8.7-8c4.666-1.623,9.509-.377,14.137.73,9.76,2.327,19.445,5.094,28.929,8.276.352.126.5-.428.151-.553-7.974-2.679-16.074-5.031-24.224-7.119-6.867-1.736-14.666-4.515-21.382-.906a15.534,15.534,0,0,0-6.817,7.27C645.583,276.394,646.087,276.7,646.238,276.369Z" transform="translate(-148.131 -141.442)"/>
    <path id="Path_312" data-name="Path 312" d="M623.215,294.954a157.054,157.054,0,0,1,41.506.4c.352,0,.528-.5.151-.553a158.2,158.2,0,0,0-41.657-.428C622.837,294.375,622.837,295,623.215,294.954Z" transform="translate(-144.993 -145.047)"/>
    <path id="Path_313" data-name="Path 313" d="M691.72,233.442c1.258-2.025,3.7-.151,4.893.78a6.427,6.427,0,0,0,3.861,1.484c3.484,0,6.8-2.214,9.936-3.409a58.424,58.424,0,0,1,22.049-3.937,57.189,57.189,0,0,1,12.741,1.6c.34.075.491-.478.138-.553a59.806,59.806,0,0,0-22.816-.943,57.24,57.24,0,0,0-11.458,2.956c-1.736.654-3.434,1.4-5.119,2.151-2.012.906-4.39,1.937-6.616,1.409s-6.1-5.245-8.125-1.836a.3.3,0,0,0,.516.3Z" transform="translate(-154.396 -136.034)"/>
    <path id="Path_314" data-name="Path 314" d="M559.856,244.267a.918.918,0,0,0,.994-1.258c-.453-1.258-2.277-.566-3.157-.39-4.566.943-9.081,2.025-13.571,3.207-8.8,2.352-17.609,5.195-26.25,8.276-4.289,1.522-8.553,3.107-12.791,4.717a115.828,115.828,0,0,0-11.509,4.566,24.388,24.388,0,0,0-8.352,7.3c-2.767,3.56-5.371,7.22-7.974,10.855q-8.93,12.49-17.08,25.457c-.2.3.3.6.5.3q6.5-10.3,13.458-20.313,3.471-4.968,7.006-9.836a80.838,80.838,0,0,1,7.295-9.358,25.81,25.81,0,0,1,9.685-5.735c3.773-1.459,7.622-2.88,11.458-4.314,7.672-2.855,15.4-5.6,23.218-8.05q6.553-2.038,13.169-3.773c2.276-.579,4.591-1.157,6.893-1.685l3.333-.755c.553-.126,1.107-.252,1.685-.352l.729-.151a3.982,3.982,0,0,1,.579-.088c.5-.176.78.088.855.792-.377,0-.528.5-.176.579Z" transform="translate(-122.562 -138.03)"/>
    <path id="Path_315" data-name="Path 315" d="M375.427,318.2c-6.226-3.182-8.9-10.062-12.892-15.42a22.414,22.414,0,0,0-7.345-6.528,31.242,31.242,0,0,0-9.961-3.157,83.554,83.554,0,0,0-12.578-.8v.579c1.082-.1,2.189-.2,3.283-.277.352,0,.377-.6,0-.579-1.069.1-2.176.2-3.283.277a.29.29,0,0,0,0,.579c7.3.075,15.093.252,21.722,3.635,6.44,3.283,9.383,9.559,13.345,15.206a20.841,20.841,0,0,0,7.4,6.993.289.289,0,0,0,.277-.5Z" transform="translate(-104.963 -144.883)"/>
    <path id="Path_316" data-name="Path 316" d="M583.226,333.54h-3.585a.289.289,0,1,0,0,.579h3.585a.289.289,0,1,0,0-.579Z" transform="translate(-138.989 -150.605)"/>
    <path id="Path_317" data-name="Path 317" d="M472.675,325.728a16.464,16.464,0,0,1,9.307-8.05,122.713,122.713,0,0,1,12.691-3.773,220.111,220.111,0,0,1,26.413-5.232q7.836-1.057,15.735-1.585c.365,0,.365-.6,0-.579a226.1,226.1,0,0,0-27.784,3.509q-7.069,1.358-14.087,3.195a126.1,126.1,0,0,0-13.345,3.987,16.93,16.93,0,0,0-9.433,8.226c-.176.352.3.629.478.3Z" transform="translate(-124.218 -146.881)"/>
    <path id="Path_318" data-name="Path 318" d="M491.669,328.661c4.138-5.735,12.439-5.484,18.766-5.761l26.174-1.107,14.728-.629a.289.289,0,1,0,0-.579l-27.671,1.182c-4.566.2-9.144.4-13.71.579a59.11,59.11,0,0,0-10.314.981,13.747,13.747,0,0,0-8.452,5.031c-.226.3.277.579.5.277Z" transform="translate(-126.835 -148.82)"/>
    <path id="Path_319" data-name="Path 319" d="M454.139,345.816a45.845,45.845,0,0,1,17.508-5.27c6.289-.579,12.439.453,18.577,1.786,5.874,1.258,11.76,2.7,17.81,2.629,6.465-.1,12.817-1.824,19.231-2.516a35.443,35.443,0,0,1,7.3-.226,50.181,50.181,0,0,1,8.5,1.824.289.289,0,0,0,.151-.553,39.518,39.518,0,0,0-13.835-1.824c-6.452.528-12.716,2.2-19.168,2.654-12.641.906-24.552-5.182-37.242-4.415a46.31,46.31,0,0,0-19.131,5.471c-.3.151,0,.654.327.478Z" transform="translate(-121.68 -151.472)"/>
    <path id="Path_320" data-name="Path 320" d="M543.193,351.047a68.661,68.661,0,0,1,9.861-5.8,33.029,33.029,0,0,1,11.735-3.635c7.219-.5,14.25,3.308,21.382,1.384a.289.289,0,0,0-.151-.553c-7.547,2-15.018-2.314-22.64-1.258a36.087,36.087,0,0,0-10.226,3.383,68.249,68.249,0,0,0-10.289,5.974c-.264.226,0,.7.3.5Z" transform="translate(-133.948 -151.635)"/>
    <path id="Path_321" data-name="Path 321" d="M532.592,338.968c3.585-6.213,11.408-7.672,18.024-7.421,8.427.327,16.9,3.258,25.155.5.352-.126.2-.679-.151-.553-8.8,2.956-17.835-.629-26.8-.553-6.352,0-13.42,1.862-16.779,7.723a.293.293,0,0,0,.5.3Z" transform="translate(-132.465 -150.247)"/>
    <path id="Path_322" data-name="Path 322" d="M437.283,334.145c-8.8-.314-17.609-.893-26.338-.868-7.421,0-15.093.943-21.5,5.031a21.381,21.381,0,0,0-7.471,7.911c-.176.314.327.591.5.3,3.207-6.025,9.433-9.71,15.9-11.32,8-2,16.452-1.258,24.6-.981l14.3.528a.289.289,0,1,0,0-.579Z" transform="translate(-111.792 -150.568)"/>
    <path id="Path_323" data-name="Path 323" d="M421.493,329.693a3.006,3.006,0,0,0,0-3.773,5.132,5.132,0,0,0-4.742-1.8,75.24,75.24,0,0,0-7.823,1.17l-8.6,1.384q-8.578,1.4-17.181,2.729c-2.679.428-5.4.83-8.075,1.258a24.187,24.187,0,0,0-6.742,1.987c-3.773,1.874-6.83,6.213-5.094,10.477.126.327.7.2.553-.151-1.56-3.861,1.119-7.823,4.465-9.634,3.773-2.05,8.427-2.352,12.578-3.031l28.237-4.515a63.918,63.918,0,0,1,7.9-1.157,4.7,4.7,0,0,1,3.685,1.107,2.516,2.516,0,0,1,.4,3.459c-.277.277.151.7.377.4Z" transform="translate(-109.145 -149.299)"/>
    <path id="Path_324" data-name="Path 324" d="M448.384,322c-10.88-9.584-26.476-5.22-39.217-3.283a52.451,52.451,0,0,1-14.577.478c-.352,0-.352.516,0,.566,10.062,1.333,19.8-1.849,29.7-2.88,8.175-.855,17.256-.176,23.7,5.522.277.252.679-.151.4-.4Z" transform="translate(-113.498 -148.191)"/>
    <path id="Path_325" data-name="Path 325" d="M268.937,312.247l32.89,4.012a30.4,30.4,0,0,1,6.691,1.258,9.27,9.27,0,0,1,5.27,4.842c.742,1.5,1.346,3.056,2.025,4.591,1.937,4.478,3.861,8.968,5.823,13.458a19.721,19.721,0,0,1,1.824,6.289,15.684,15.684,0,0,1-3.006,10.5,15.371,15.371,0,0,1-4.767,4.239,22.64,22.64,0,0,1-6.867,2.214q-9.113,1.887-18.338,3.207c-.352,0-.2.6.151.553q8.741-1.258,17.382-3.044c4.113-.818,7.874-1.773,11.005-4.7a16.351,16.351,0,0,0,3.7-18.313q-2.792-6.478-5.6-12.942c-.654-1.472-1.258-2.981-1.937-4.465a14.8,14.8,0,0,0-3.006-5.031,11.773,11.773,0,0,0-5.471-2.6,82.375,82.375,0,0,0-8.276-1.157l-9.823-1.195-19.646-2.415c-.365,0-.365.579,0,.629Z" transform="translate(-96.189 -147.574)"/>
    <path id="Path_326" data-name="Path 326" d="M308.427,328.361c-7.8.377-12.464,7.069-15.42,13.559-3.459,7.547-5.195,15.709-8.2,23.432a31.544,31.544,0,0,1-2.277,4.792c-.176.252-.8,1.145-.176,1.321s.994-1.094,1.258-1.446-.277-.579-.491-.3-.679.855-.629,1.044c0,.428.5-.264.6-.415.34-.579.667-1.182.968-1.786a36.568,36.568,0,0,0,1.736-4.113c1.258-3.358,2.251-6.792,3.333-10.213,2.239-7.018,4.566-14.816,9.609-20.388a13.835,13.835,0,0,1,9.722-4.88c.352,0,.352-.629,0-.6Z" transform="translate(-98.033 -149.891)"/>
    <path id="Path_327" data-name="Path 327" d="M282.089,348.337l-3.019,8.3c-.478,1.258-.956,2.6-1.421,3.937-.252.692-.5,1.371-.755,2.075,0,.126-.981,3.006-1.585,2.113.2.3.7,0,.5-.3-.478-.7-1.258,0-1.107.692.252,1.409,1.811,0,2.088-.616,1.132-2.39,1.824-5.031,2.729-7.547,1.031-2.83,2.063-5.685,3.081-8.54.151-.352-.4-.5-.516-.151Z" transform="translate(-97.015 -152.611)"/>
    <path id="Path_328" data-name="Path 328" d="M566.247,373.688c4.654-.629,9.345-1.472,14.037-1.9a3.774,3.774,0,0,1,1.509.1c.553.151,1.472.767.6,1.195a5.349,5.349,0,0,1-1.685.1l-1.685.1c-2.3.151-4.629.277-6.968.4-.377,0-.377.6,0,.579l9.609-.579c.729,0,1.773.226,1.874-.755a1.358,1.358,0,0,0-.742-1.258c-1.861-1.258-4.717-.226-6.729,0l-10.062,1.346c-.3.1-.151.654.2.6Z" transform="translate(-137.128 -155.774)"/>
    <path id="Path_329" data-name="Path 329" d="M660.137,317.2a44.021,44.021,0,0,0,8.553,25.055c.226.3.729,0,.5-.3a43.607,43.607,0,0,1-8.477-24.778.289.289,0,0,0-.579,0Z" transform="translate(-150.119 -148.31)"/>
    <path id="Path_330" data-name="Path 330" d="M658.387,349.825a1.12,1.12,0,0,0,1.258-.528.767.767,0,0,0-.252-1.145c-.327-.151-.629.352-.277.491s.126.252,0,.4a.491.491,0,0,1-.553.226c-.352-.126-.5.428-.151.553Z" transform="translate(-149.854 -152.614)"/>
    <path id="Path_331" data-name="Path 331" d="M655.344,317.958a124.9,124.9,0,0,0,1.434,25.633c0,.352.6.2.553-.151a121.7,121.7,0,0,1-1.409-25.482.289.289,0,1,0-.579,0Z" transform="translate(-149.44 -148.418)"/>
    <path id="Path_332" data-name="Path 332" d="M487.265,156.28c3.056-1.912,7.547,1.258,6.716,4.8a.289.289,0,0,0,.553.151,3.408,3.408,0,0,1,2.516-2.277c.352-.075.2-.629-.151-.553a3.949,3.949,0,0,0-2.943,2.679l.553.151c.956-3.987-4.063-7.622-7.547-5.459-.327.2,0,.692.277.5Z" transform="matrix(0.839, -0.545, 0.545, 0.839, -133.063, 167.492)"/>
    <path id="Path_333" data-name="Path 333" d="M532.964,153.245a19.974,19.974,0,0,1,6.565-.906,8.365,8.365,0,0,1,1.8.126,5.031,5.031,0,0,0,1.333.2c.5-.1.981-.906,1.333-1.258a20.8,20.8,0,0,1,10.477-5.333c.352-.075.2-.629-.151-.553a21.257,21.257,0,0,0-9.974,4.817c-.8.692-1.358,1.673-2.516,1.6-.918,0-1.824-.2-2.755-.2a21.105,21.105,0,0,0-6.289.931.289.289,0,1,0,.126.553Z" transform="translate(-132.535 -124.7)"/>
    <path id="Path_334" data-name="Path 334" d="M583.025,167.967a2.088,2.088,0,0,1,2.931-1.031.3.3,0,0,0,.428-.176,4.905,4.905,0,0,1,6.1-2.956c.352.126.5-.453.151-.553a5.509,5.509,0,0,0-6.8,3.333l.428-.176a2.679,2.679,0,0,0-3.773,1.358c-.151.377.4.528.528.2Z" transform="translate(-139.417 -127.109)"/>
    <path id="Path_335" data-name="Path 335" d="M562.121,283.879c6.83-6.477,17-4.817,25.407-3.585a59.327,59.327,0,0,0,13.6.579c4.239-.327,8.8-.755,12.49,1.748.3.2.6-.3.277-.5a15.018,15.018,0,0,0-9.106-2.05,103.593,103.593,0,0,1-11.182.352c-7.547-.528-14.955-2.792-22.476-1.459a18.212,18.212,0,0,0-9.421,4.49.3.3,0,0,0,.415.428Z" transform="translate(-136.55 -143.028)"/>
    <path id="Path_336" data-name="Path 336" d="M687.943,300.457c-.654,8.276.855,16.477,1.107,24.728.252,7.874-1.786,16,.352,23.721a.289.289,0,0,0,.553-.151c-2.163-7.823,0-16.074-.352-24.048s-1.736-16.125-1.107-24.25a.277.277,0,0,0-.553,0Z" transform="translate(-153.928 -146.01)"/>
    <path id="Path_337" data-name="Path 337" d="M689.792,349.509c1.258,1.17,2.729,2.516,4.566,2.654a3.333,3.333,0,0,0,3.383-1.849l-.528-.075a3.446,3.446,0,0,0,5.446,1.673c.654-.553,1.145-1.082,2.075-1.031a11.587,11.587,0,0,1,2.012.453,3.093,3.093,0,0,0,1.849,0,1.61,1.61,0,0,0,.83-2.377c0,.151-.126.277-.176.428a4.113,4.113,0,0,0,3.031-2.843.277.277,0,0,0-.2-.34c-.44-.176-.667-.176-.868-.6a5.242,5.242,0,0,1,0-1.66v-2.83c0-1.987-.075-3.937-.226-5.924a44.548,44.548,0,0,0-2.113-10.88,52.4,52.4,0,0,1-2.981-11.32c-.4-3.773-.428-7.547-1.132-11.32-.075-.352-.629-.2-.553.151.729,3.773.729,7.748,1.157,11.609a46.108,46.108,0,0,0,2.654,10.138c2.516,7.295,2.692,14.842,2.641,22.5a.3.3,0,0,0,.2.264l1.107.4-.2-.352a3.622,3.622,0,0,1-2.666,2.516.3.3,0,0,0-.176.428c.931,1.258-1.195,1.748-2.025,1.6-.553-.1-1.107-.327-1.66-.4a2.817,2.817,0,0,0-2.2.453c-.956.7-1.534,1.459-2.817,1.258a2.905,2.905,0,0,1-2.453-2c0-.226-.428-.3-.528-.075a2.88,2.88,0,0,1-3.459,1.446,8.452,8.452,0,0,1-3.585-2.4c-.277-.3-.679.1-.4.352Z" transform="translate(-154.192 -146.185)"/>
    <path id="Path_338" data-name="Path 338" d="M697.329,300.42v-.226c0-.352-.6-.377-.579,0q.792,16.741.126,33.519a.289.289,0,0,0,.578,0q.679-16.779-.126-33.519h-.579v.226C696.751,300.759,697.38,300.759,697.329,300.42Z" transform="translate(-155.163 -145.973)"/>
    <path id="Path_339" data-name="Path 339" d="M700.319,303.375c-.755,7.974,2.05,15.647,2.855,23.5a67.712,67.712,0,0,1,.126,12.163c-.176,2.088-.478,4.138-.8,6.2a16.915,16.915,0,0,0-.252,5.4c0,.34.6.189.553-.151a23.685,23.685,0,0,1,.528-6.779c.277-1.773.478-3.585.6-5.383a67.439,67.439,0,0,0-.226-11.924c-.855-7.672-3.534-15.219-2.8-23.017C700.9,303.023,700.344,303.023,700.319,303.375Z" transform="translate(-155.638 -146.412)"/>
    <path id="Path_340" data-name="Path 340" d="M707.531,301.213c-.579-.8,0-2.151.5-2.855a8.011,8.011,0,0,1,1.459-1.459c.5-.4,1.572-.88,1.622-1.6a.3.3,0,0,0-.2-.277.39.39,0,0,0-.428.1.3.3,0,0,0,0,.352h0c.176.314.679,0,.5-.3s-3.182,2.516-3.434,2.8c-.629.88-1.258,2.516-.5,3.434.2.352.7.075.5-.252Z" transform="translate(-156.535 -145.295)"/>
    <path id="Path_341" data-name="Path 341" d="M709.764,294.238a16.716,16.716,0,0,0-5.8,6.289c-.176.327.327.6.5.3a16.162,16.162,0,0,1,5.584-6.062c.3-.2,0-.7-.289-.5Z" transform="translate(-156.152 -145.187)"/>
    <path id="Path_342" data-name="Path 342" d="M705.224,294.787a10.528,10.528,0,0,0-5.031,6.465.289.289,0,0,0,.553.151,9.924,9.924,0,0,1,4.8-6.113.289.289,0,1,0-.277-.5Z" transform="translate(-155.637 -145.258)"/>
    <path id="Path_343" data-name="Path 343" d="M701.732,295.067a25.994,25.994,0,0,0-3.031,5.182c-.151.327.352.629.5.3a28.2,28.2,0,0,1,3.031-5.182C702.462,295.042,701.959,294.765,701.732,295.067Z" transform="translate(-155.428 -145.286)"/>
    <path id="Path_344" data-name="Path 344" d="M693.487,299.156a13.7,13.7,0,0,0-5.9-4.918c-.252-.1-.553.126-.4.4a10.843,10.843,0,0,0,1.761,2.1,7.17,7.17,0,0,1,1.258,1.434c.075.151.34.6.289.8-.34.277-.717.553-1.069.818a2.516,2.516,0,0,1-1.057-.214c-2.063-.755-3.61-3.119-6.05-2.365a.289.289,0,0,0-.076.528,17.106,17.106,0,0,1,4.339,3.207c.252.277.654-.151.4-.4a17.685,17.685,0,0,0-4.465-3.308l-.076.528c2.088-.654,3.547,1.358,5.245,2.151.855.4,2.365.8,3.107,0,1.409-1.572-2.516-4.4-3.132-5.534l-.4.4a13.056,13.056,0,0,1,5.7,4.691c.277.327.78,0,.579-.277Z" transform="translate(-153.145 -145.187)"/>
    <path id="Path_345" data-name="Path 345" d="M702.774,301.568a5.785,5.785,0,0,0,3.094-2.189c1.12-1.321,2.855-3.409,4.8-2.3a.277.277,0,0,0,.352,0,3.949,3.949,0,0,0-1.6-6.918c-1.258-.252-2.365,0-3.371-.88a5.445,5.445,0,0,0-1.6-1.384A1.484,1.484,0,0,0,702.3,289c.151-.075.277-.176.428-.252-2.516-1.384-5.434-1.258-8.2-1.358a28.6,28.6,0,0,0-9.245.981c-4.025,1.258-10.263,5.22-8.628,10.314a.239.239,0,0,0,.2.189l2.377.5a5.384,5.384,0,0,1,1.434.3c.277.226.176.2.226.579a4.6,4.6,0,0,0,.566,2.339c1.56,2.025,3.17-1.258,4.692-.654.352.126.5-.428.151-.553-.956-.377-1.622.3-2.4.8-2.113,1.4-2.591-1.057-2.415-2.666a.277.277,0,0,0-.2-.277l-2.151-.44c-.5-.1-1.736-.151-2.063-.6s-.063-1.861.075-2.415a6.872,6.872,0,0,1,.906-1.824A13.836,13.836,0,0,1,685,289.1,25.154,25.154,0,0,1,693.555,288c2.905,0,6.213-.176,8.8,1.258a.289.289,0,0,0,.428-.252c0-1.258,1.711-.4,2.063,0a8.909,8.909,0,0,0,.956.981,3.119,3.119,0,0,0,1.975.692c1.459.126,2.729.277,3.585,1.66a3.32,3.32,0,0,1-.352,3.937c-.528.478-1.195,0-1.9.075a4.34,4.34,0,0,0-2.088.981c-1.572,1.258-2.4,3.333-4.515,3.773-.277,0-.126.6.226.528Z" transform="translate(-152.357 -144.24)"/>
    <path id="Path_346" data-name="Path 346" d="M708.583,275.366a10.062,10.062,0,0,1,5.031-6.641c1.446-.73,3.534-1.258,4.855,0a2.516,2.516,0,0,1,.2,3.773c-.252.2.075.629.352.453,1.962-1.258,5.144-3.409,7.421-1.748,1.333.943,2.188,3.773.252,4.5.1.151.176.327.277.478a10.439,10.439,0,0,1,4.767-3.157c1.585-.3,3.773.453,4.088,2.239.7,3.66-5.195,3.773-7.421,3.66a93.87,93.87,0,0,1-23.772-4.415.289.289,0,0,0-.151.553,95.591,95.591,0,0,0,23.7,4.415c2.377.113,5.345.189,7.219-1.56a3.006,3.006,0,0,0-.7-4.943c-3.082-1.761-6.037.755-8.15,2.8-.189.2,0,.579.277.478,2.038-.83,1.811-3.383.6-4.868-2.3-2.855-6.415-.44-8.8,1.082l.352.453a2.817,2.817,0,0,0,.679-3.383,3.773,3.773,0,0,0-4.012-2.063c-3.912.428-6.867,4.163-7.748,7.786,0,.289.528.44.629.088Z" transform="translate(-156.204 -141.496)"/>
    <path id="Path_347" data-name="Path 347" d="M715.977,298.129c1.962-1.057,4.113-2.516,6.4-2.755,1.975-.151,4.792,1.824,3.258,3.987l.528.226a3.886,3.886,0,0,1,4.465-2.138,5.936,5.936,0,0,1,3.836,3.773l.2-.352a48.814,48.814,0,0,1-20.917-1.648.289.289,0,0,0-.151.553,49.053,49.053,0,0,0,21.244,1.648.289.289,0,0,0,.2-.352,6.289,6.289,0,0,0-4.641-4.188,4.44,4.44,0,0,0-4.792,2.616c-.126.327.352.44.528.226,1.182-1.66,0-3.874-1.761-4.591-2.855-1.258-6.289,1.258-8.653,2.516a.281.281,0,0,0,.252.5Z" transform="translate(-157.46 -145.266)"/>
    <path id="Path_348" data-name="Path 348" d="M580.107,192.184a6.515,6.515,0,0,1,5.132-.352,6.755,6.755,0,0,1,2.39,1.409c.252.226.88.717.906,1.044.075.73-.855.6-1.258.327-1.484-.843-.478-2.654.4-3.559a12.992,12.992,0,0,1,2.516-1.924,15.734,15.734,0,0,1,5.8-1.987c.352,0,.2-.6-.151-.553a16.163,16.163,0,0,0-5.572,1.836,9.509,9.509,0,0,0-4.088,3.585,2.264,2.264,0,0,0,.629,3.006,1.648,1.648,0,0,0,2.427-.352.314.314,0,0,0,0-.3,7.282,7.282,0,0,0-9.471-2.7c-.327.2,0,.679.3.528Z" transform="translate(-139.028 -130.358)"/>
    <path id="Path_349" data-name="Path 349" d="M529.037,304.139a32.7,32.7,0,0,0,1.6-12.741.29.29,0,0,0-.579,0,72.952,72.952,0,0,1-.755,13.244.289.289,0,0,0,.528.226c2.516-3.962,5.031-7.9,7.547-11.861.2-.3-.3-.6-.5-.3-2.515,3.962-5.031,7.9-7.547,11.861l.528.226a70.2,70.2,0,0,0,.78-13.4h-.578a32.349,32.349,0,0,1-1.585,12.578.3.3,0,0,0,.579.151Z" transform="translate(-131.979 -144.762)"/>
    <path id="Path_350" data-name="Path 350" d="M525.032,291.3a3.509,3.509,0,0,1,5.144-3.006c.855.553,1.421,1.509,2.352,1.887s2.365-.428,1.937-1.333a7.345,7.345,0,0,0,6.993,2.327c1.182-1.975-1.459-4.088-3.685-4.666a25.721,25.721,0,0,0-12.137-.226c-1.384.3-2.931.906-3.383,2.264-.629,1.8,1.321,3.66,3.232,3.71a9.383,9.383,0,0,0,5.22-2.151" transform="translate(-131.106 -144.009)" fill="#80892f"/>
    <path id="Path_351" data-name="Path 351" d="M525.27,291.25a3.22,3.22,0,0,1,2.516-3.056c1.836-.5,2.641.83,3.937,1.786a2.126,2.126,0,0,0,2.214.34,1.258,1.258,0,0,0,.83-1.6c-.151.1-.327.176-.478.277a7.685,7.685,0,0,0,3.836,2.327c.88.226,2.8.6,3.585,0s.226-2.176-.226-2.8a6.49,6.49,0,0,0-3.283-2.239,24.338,24.338,0,0,0-11.911-.44c-2.163.415-5.572,1.849-4.062,4.654,1.924,3.6,6.213,1.459,8.653-.176.3-.189,0-.692-.3-.491a9.785,9.785,0,0,1-4.666,2.1c-1.534.075-3.534-1.031-3.459-2.78s2.3-2.415,3.773-2.717a25.86,25.86,0,0,1,5.32-.491c2.931,0,7.069.239,9.194,2.578.478.528,1.333,1.924.327,2.453a4.868,4.868,0,0,1-2.4,0,7.056,7.056,0,0,1-3.937-2.251.289.289,0,0,0-.478.277c.377,1.258-1.409,1.082-1.836.855a4.492,4.492,0,0,1-.943-.8,6.287,6.287,0,0,0-1.333-1.082,3.346,3.346,0,0,0-2.314-.252,3.773,3.773,0,0,0-3.031,3.635c0,.327.553.327.553,0Z" transform="translate(-131.067 -143.959)"/>
    <path id="Path_352" data-name="Path 352" d="M613.267,348.531q-.868,11.6-1.736,23.155a.291.291,0,0,0,.528.151q3.346-6.176,6.1-12.578c.843-2.038,1.673-4.063,2.453-6.125.377-1.019.755-2.025,1.107-3.056l.6-1.761c.126-.39.34-1.673.767-1.849s0-.629-.277-.5c-.616.277-.692,1.182-.868,1.761-.4,1.17-.8,2.352-1.258,3.534-.83,2.251-1.711,4.515-2.629,6.716a143.455,143.455,0,0,1-6.528,13.6l.528.151,1.711-23.168a.277.277,0,1,0-.553,0Z" transform="translate(-143.423 -152.314)"/>
    <path id="Path_353" data-name="Path 353" d="M613.726,371.674l15.47-14.791c1.258-1.258,2.516-2.415,3.773-3.622.78-.742,2.516-1.8,2.679-2.956s-1.648-1.358-1.472-.226c0,.352.6.2.553-.151.2,1.333-1.862,2.641-2.717,3.459S630.341,355,629.5,355.8l-5.4,5.169-10.779,10.3c-.3.252.1.654.377.4Z" transform="translate(-143.655 -152.78)"/>
    <path id="Path_354" data-name="Path 354" d="M627.786,348.784a5.22,5.22,0,0,0,9.056-5.119c-.277,1.836,2.516,2.968,3.937,1.811a4.037,4.037,0,0,0,.44-5.094c-2.226-3.685-7.547-3.773-11.685-2.755s-8.553,2.83-12.578,1.421c-3.157-1.069-6.037-4.037-9.245-3.157a7.2,7.2,0,0,0-2.968,1.912,32.877,32.877,0,0,0-8.7,13.118c6.025,1.773,11.32-7.157,17.382-5.345,2.692.8,5.5,3.61,7.7,1.924.6-.453,1.057-1.258,1.811-1.258,1.082-.126,1.673,1.119,2.3,2,2.088,2.931,7.647,1.685,8.276-1.874" transform="translate(-141.288 -150.907)" fill="#80892f"/>
    <path id="Path_355" data-name="Path 355" d="M627.486,348.87a5.5,5.5,0,0,0,9.572-5.345c-.126-.3-.541-.277-.541.075a2.515,2.515,0,0,0,2.679,2.516,3.006,3.006,0,0,0,2.931-2.968c.428-4.214-4.012-6.289-7.547-6.49-5.346-.252-10.226,3.006-15.546,2.453-4.616-.478-8.8-6.012-13.445-2.516s-7.949,8.88-9.886,14.2a.264.264,0,0,0,.2.34c5.974,1.61,9.911-5.283,15.533-5.559,1.9-.1,3.484.956,5.132,1.773a4.93,4.93,0,0,0,3.987.7,5.1,5.1,0,0,0,1.434-1.107,1.522,1.522,0,0,1,2.189.226c.3.377.516.8.818,1.258a4.314,4.314,0,0,0,2.817,1.61,5.132,5.132,0,0,0,5.886-3.66c.076-.352-.478-.528-.553-.151-.591,2.855-4.39,4.188-6.817,2.679-1.157-.729-1.484-2.377-2.729-2.905s-1.887.654-2.742,1.258c-1.7,1.258-3.773-.252-5.333-1.044a8.263,8.263,0,0,0-3.773-1.157c-2.516,0-4.742,1.434-6.8,2.7-2.629,1.66-5.584,3.773-8.88,2.918l.2.352a33.181,33.181,0,0,1,7.006-11.4c1.472-1.572,3.283-3.585,5.635-3.585,2.138,0,4.012,1.384,5.8,2.339,3.773,1.975,7.421,1.547,11.408.465,3.71-.994,7.672-2.277,11.483-.943a5.522,5.522,0,0,1,4.012,4.842,2.629,2.629,0,0,1-2.1,2.905,2.063,2.063,0,0,1-2.39-1.987l-.541.075a5.182,5.182,0,0,1-1.912,6.289,5.119,5.119,0,0,1-6.616-1.409c-.226-.3-.729,0-.5.277Z" transform="translate(-141.24 -150.867)"/>
    <path id="Path_356" data-name="Path 356" d="M711.318,344.039a274.263,274.263,0,0,1,30.073,6.83v-.553c-8.087,1.635-16.187,3.258-24.363,4.289-3.962.5-7.949.855-11.961,1.006-1.95.075-3.912.1-5.861,0-1.635,0-3.912-.1-4.666-1.861l-.2.352a22.713,22.713,0,0,1,7.823-.176c1.736.277,3.635,1.132,5.195-.1a4.792,4.792,0,0,0,1.547-3.987,50.07,50.07,0,0,0-1.019-6.415c-1.534-9.735-1.66-19.621-1.836-29.444l-.553.075q1.66,9.886,3.308,19.785c.528,3.207,1.057,6.415,1.811,9.559.151.566.327,1.346,1.031,1.4a.717.717,0,0,0,.78-.931c-.075-.34-.629-.189-.553.151a.571.571,0,0,1-.654-.541l-.226-.956c-.151-.629-.277-1.258-.4-1.912-.252-1.258-.5-2.516-.729-3.773l-1.258-7.547c-.843-5.119-1.723-10.263-2.578-15.37,0-.327-.579-.252-.553.075a240.972,240.972,0,0,0,1.409,26.614c.277,2.063.578,4.088.956,6.1s1.145,5.031-.83,6.641c-1.157.931-2.516.453-3.773.2a22.24,22.24,0,0,0-2.893-.4,23.244,23.244,0,0,0-6.188.4.289.289,0,0,0-.2.352c1.157,2.8,5.245,2.314,7.672,2.314a120.215,120.215,0,0,0,13.445-.855c8.9-1.006,17.684-2.792,26.413-4.54.264,0,.239-.478,0-.553a274.2,274.2,0,0,0-30.073-6.817c-.327,0-.478.541-.126.591Z" transform="translate(-154.776 -147.872)"/>
    <path id="Path_357" data-name="Path 357" d="M615.922,352.183a625.122,625.122,0,0,1,94.7,10.477c15.332,2.918,30.551,6.427,46.122,7.723,7.924.679,15.9.981,23.822,1.66a165.2,165.2,0,0,1,22.9,3.559c16.125,3.773,31.52,9.861,46.852,16.024.4.176.591-.5.176-.654-13.747-5.534-27.57-11.031-41.909-14.816a159.9,159.9,0,0,0-21.747-4.188c-7.9-.931-15.848-1.258-23.772-1.836a231.657,231.657,0,0,1-24.124-2.729c-7.685-1.258-15.282-2.905-22.9-4.415q-23.206-4.591-46.726-7.421-26.589-3.207-53.392-4.113a.365.365,0,0,0,0,.73Z" transform="translate(-143.977 -153.073)"/>
    <path id="Path_358" data-name="Path 358" d="M573.49,368.125a240.5,240.5,0,0,1,30.1,1.258,93.177,93.177,0,0,1,14.489,2.88c4.49,1.258,8.8,3.069,13.269,4.666a74.888,74.888,0,0,0,13.835,3.937,115.252,115.252,0,0,0,14.716,1.157c5.031.151,9.961.327,14.9.956a119.672,119.672,0,0,1,14.867,2.855,292.553,292.553,0,0,1,30.7,10.188c.39.151.591-.5.176-.654-9.031-3.383-18.061-6.754-27.369-9.307a127.816,127.816,0,0,0-28.954-4.641c-5.031-.2-10.15-.226-15.194-.755a65.279,65.279,0,0,1-14.577-3.383c-4.49-1.522-8.88-3.358-13.383-4.842a86.564,86.564,0,0,0-14.175-3.308c-11.031-1.673-22.25-1.648-33.381-1.648a.314.314,0,1,0,0,.616Z" transform="translate(-138.133 -155.28)"/>
    <path id="Path_359" data-name="Path 359" d="M503.786,398.267c6.289-.931,11.031-5.169,16.552-7.974A19.4,19.4,0,0,1,530.514,388a32.915,32.915,0,0,1,12.012,3.773c3.207,1.56,8.452,3.547,9.232,7.484a3.777,3.777,0,0,1,.252-.428,105.313,105.313,0,0,1-26.1,3.471,47.922,47.922,0,0,1-12.439-1.031c-3.056-.8-8.93-3.635-6.742-7.773a.352.352,0,0,0-.6-.352c-1.635,3.082.981,6.05,3.61,7.446,3.861,2.038,8.553,2.239,12.817,2.339a105.993,105.993,0,0,0,29.57-3.484.365.365,0,0,0,.252-.428c-.629-3.245-4.088-5.094-6.754-6.5a50,50,0,0,0-11.534-4.717,19.7,19.7,0,0,0-11.056.5,45.793,45.793,0,0,0-8.679,4.666,28.4,28.4,0,0,1-10.8,4.591c-.428.1-.226.78.2.7Z" transform="translate(-128.513 -158.003)"/>
    <path id="Path_360" data-name="Path 360" d="M515.438,390.541c.956-1.384.151-2.868-1.056-3.773-1.924-1.434-4.616-1.459-6.918-1.333-6.05.327-12.137.956-18.162,1.547a12.779,12.779,0,0,0-6.742,2.113,7.383,7.383,0,0,0-2.515,4.314c-.3,1.409-.855,4.012.1,5.27a4.226,4.226,0,0,0,2.226,1.258,38.55,38.55,0,0,0,4.138,1.107,40.879,40.879,0,0,0,17.609-.3.34.34,0,0,0-.176-.654,40.5,40.5,0,0,1-13.018.906,36.2,36.2,0,0,1-6.767-1.258,8.728,8.728,0,0,1-3.044-1.094c-.956-.8-.755-2.012-.679-3.144a8.931,8.931,0,0,1,1.434-4.729,8.276,8.276,0,0,1,5.572-2.868c4.767-.805,9.7-.931,14.515-1.346a58.714,58.714,0,0,1,7.547-.478,8.527,8.527,0,0,1,4.062.968c1.082.654,2.138,1.862,1.258,3.119-.277.377.327.729.579.352Z" transform="translate(-125.247 -157.748)"/>
    <path id="Path_361" data-name="Path 361" d="M499.165,200.544c-9.131-.453-16.1,6.289-20.917,13.269a16.93,16.93,0,0,1-5.031,5.32c-2.314,1.333-5.031,1.673-7.547,2.516a38.99,38.99,0,0,0-12.062,6.427,111.783,111.783,0,0,0-11.785,10.829c-.252.277.138.679.39.4,6.553-6.666,13.521-13.747,22.64-16.8,2.2-.755,4.515-1.107,6.666-1.9a12.176,12.176,0,0,0,5.031-3.522c1.409-1.623,2.516-3.459,3.773-5.182a33.633,33.633,0,0,1,4.742-5.169,20.124,20.124,0,0,1,14.1-5.547.289.289,0,0,0,0-.579Z" transform="translate(-120.031 -132.279)"/>
    <path id="Path_362" data-name="Path 362" d="M533.761,187.957c-7.547,2.855-9.131,11.584-11.257,18.363a22.362,22.362,0,0,1-6.968,11.106c-3.22,2.654-6.981,4.591-10.062,7.421s-5.6,6.742-5.094,11.106c0,.352.6.377.579,0-1.006-8.8,8.6-13.131,14.326-17.609a20.98,20.98,0,0,0,6.616-8.729c1.509-3.685,2.239-7.547,3.635-11.32,1.56-4.063,4.088-8.15,8.326-9.748.327-.151.176-.7-.151-.579Z" transform="translate(-128.1 -130.547)"/>
    <path id="Path_363" data-name="Path 363" d="M546.617,205.7c2.516,2.692,1.346,6.7-.2,9.534s-3.622,5.5-4.063,8.8c-.88,6.465,3.308,12.892.968,19.231-.126.352.428.5.553.151,2.516-6.867-2.516-13.835-.679-20.766.956-3.509,3.66-6.213,4.842-9.634.906-2.6.956-5.635-1.031-7.773-.226-.252-.641.151-.39.428Z" transform="translate(-133.875 -132.918)"/>
    <path id="Path_364" data-name="Path 364" d="M570.753,200.2a20.565,20.565,0,0,0,.478,13.722,19.332,19.332,0,0,0,1.4,2.855,18.375,18.375,0,0,1,2.113,3.773c.742,2.4,0,4.956.893,7.345.126.327.679.2.553-.151-.843-2.189-.277-4.515-.729-6.754s-2.226-4.037-3.182-6.113a20.338,20.338,0,0,1-.956-14.5.293.293,0,1,0-.566-.151Z" transform="translate(-137.673 -132.207)"/>
    <path id="Path_365" data-name="Path 365" d="M593.389,211.208c-.277,2.654-.755,5.371-.855,8.025a2.893,2.893,0,0,0,2.7,3.308,22.854,22.854,0,0,1,6.654,1.887,18.338,18.338,0,0,1,5.685,4.415c.252.277.654-.126.4-.4a19.105,19.105,0,0,0-9.974-6.025c-.931-.2-1.861-.277-2.792-.44-1.723-.327-2.2-1.484-2.1-3.144.176-2.516.553-5.031.83-7.647a.277.277,0,0,0-.553,0Z" transform="translate(-140.801 -133.711)"/>
    <path id="Path_366" data-name="Path 366" d="M581.584,325.722a2.6,2.6,0,0,1,.88-1.975,4,4,0,0,1,5.119-.654c1.472,1.145,1.258,3.987-.528,4.591a3.094,3.094,0,0,1,4.465-.931,3.144,3.144,0,0,1,.176,4.566c1.107-1.66,3.861-2.843,4.867-1.107a2.39,2.39,0,0,1-1.057,3.006,6.151,6.151,0,0,1-3.434.6,97.014,97.014,0,0,1-15.785-2.151,15.094,15.094,0,0,1,1.258-7.848,4.025,4.025,0,0,1,1.585-1.987,1.6,1.6,0,0,1,2.2.6" transform="translate(-138.555 -148.962)" fill="#80892f"/>
    <path id="Path_367" data-name="Path 367" d="M581.845,325.686c0-2.277,3.107-3.635,5.031-2.7,1.635.8,1.949,3.61.075,4.364.1.151.226.277.327.428a2.692,2.692,0,1,1,4.188,3.258l.453.352c.729-.981,2.2-2.138,3.509-1.761a1.6,1.6,0,0,1,.7,2.516,3.119,3.119,0,0,1-2.214,1.258,19.572,19.572,0,0,1-4.54,0c-1.723-.126-3.484-.352-5.182-.6-1.509-.226-3.044-.491-4.541-.767a19.066,19.066,0,0,1-2.39-.453c-.453-.151-.629-.075-.8-.579a4.131,4.131,0,0,1,0-1.107,14.524,14.524,0,0,1,.83-4.742,10.173,10.173,0,0,1,.906-2c.578-.906,2.088-1.937,2.88-.553.176.327.679,0,.5-.3-1.057-1.811-3.157-.654-3.962.7a14.414,14.414,0,0,0-1.6,8.653.272.272,0,0,0,.2.277c3.434.667,6.842,1.258,10.326,1.748a50.974,50.974,0,0,0,5.547.428,6.515,6.515,0,0,0,3.585-.654c1.346-.855,2.126-3.082.5-4.088s-3.773.5-4.691,1.811c-.2.277.226.579.453.352a3.434,3.434,0,0,0-.2-5.031,3.4,3.4,0,0,0-4.893,1.031c-.126.2.075.528.327.428a3.031,3.031,0,0,0,.453-5.195c-2.264-1.56-6.226.1-6.289,2.981,0,.327.528.327.553,0Z" transform="translate(-138.514 -148.926)"/>
    <path id="Path_368" data-name="Path 368" d="M588.443,341.579a8.075,8.075,0,0,1,3.182-2.956c.2-.1.8-.478.981-.428.377.126.453.792.5,1.119a4.93,4.93,0,0,1-.277,2.516c-.1.252.3.5.478.277a3.421,3.421,0,0,1,2-1.534,1.258,1.258,0,0,1,1.534.654c.1.2.252.73.1.956-.755.969-3.773,0-4.842-.151a27.732,27.732,0,0,0-9.006.075c-.352.075-.2.629.151.553a26,26,0,0,1,8.377-.1c1.459.176,2.905.541,4.39.667a1.258,1.258,0,0,0,1.258-.39,1.937,1.937,0,0,0-.352-2.516c-1.358-1.107-3.169.327-4.012,1.384.151.1.327.176.478.277a5.383,5.383,0,0,0-.226-4.364.277.277,0,0,0-.327-.126,8.968,8.968,0,0,0-4.867,3.773c-.2.3.3.579.5.277Z" transform="translate(-139.478 -151.147)"/>
    <path id="Path_369" data-name="Path 369" d="M530.711,388.476c-1.132.855.88,2.038,2.516,2.188s3.912.4,3.962,1.547a1.849,1.849,0,0,1-.591,1.157c-2.189,2.516-4.339,5.031-6.528,7.547-.654.755-1.333,1.635-.906,2.516a3.409,3.409,0,0,0,3.119,1.17,11.317,11.317,0,0,0,3.509-.968c3.635-1.484,7.27-2.968,10.88-4.415,1.937-.78,4.163-2.138,3.308-3.572a4.214,4.214,0,0,0-2.1-1.346c-5.195-1.912-11.32-2.214-17.156-2.516-.5-.843-1.006-1.723-1.484-2.578" transform="translate(-132.056 -158.173)" fill="#242838"/>
    <path id="Path_370" data-name="Path 370" d="M507.067,413.215c-.277-.126,0-.579.327-.453s.327.478.3.78a20.859,20.859,0,0,1-.654,2.755,2.327,2.327,0,0,0,.855,2.516c1.258.717,2.7-.7,3.434-1.987a44.521,44.521,0,0,0,2.981-6.138,5.572,5.572,0,0,0-6.767,1.773" transform="translate(-129.014 -161.166)" fill="#242838"/>
  </g>
</svg>
