<svg xmlns="http://www.w3.org/2000/svg" width="125" height="125" viewBox="0 0 125 125">
  <path id="Subtraction_1" data-name="Subtraction 1" d="M62.5,125a62.2,62.2,0,0,1-34.944-10.674,62.68,62.68,0,0,1-22.644-27.5,62.415,62.415,0,0,1,5.763-59.272,62.687,62.687,0,0,1,27.5-22.644,62.42,62.42,0,0,1,59.273,5.763,62.686,62.686,0,0,1,22.644,27.5,62.42,62.42,0,0,1-5.763,59.273,62.68,62.68,0,0,1-27.5,22.644A62.109,62.109,0,0,1,62.5,125Zm25.23-40.712a4.48,4.48,0,0,0-2.283.564,3.9,3.9,0,0,0-1.5,1.563,4.821,4.821,0,0,0-.531,2.289,5.04,5.04,0,0,0,.3,1.749,4.032,4.032,0,0,0,.873,1.408,3.945,3.945,0,0,0,1.426.932,5.367,5.367,0,0,0,1.965.333,8.152,8.152,0,0,0,.837-.041c.264-.027.528-.066.783-.117s.486-.109.675-.166a3.608,3.608,0,0,0,.507-.185V88.7H89.751V91.97c-.121.037-.243.07-.363.1a5.451,5.451,0,0,1-.663.108c-.222.021-.448.032-.671.032a4.281,4.281,0,0,1-1.579-.266,2.893,2.893,0,0,1-1.094-.747,3.1,3.1,0,0,1-.636-1.116,4.414,4.414,0,0,1-.207-1.368,4.2,4.2,0,0,1,.237-1.453,3.093,3.093,0,0,1,.675-1.092,2.933,2.933,0,0,1,1.035-.684,3.584,3.584,0,0,1,1.311-.234,4.965,4.965,0,0,1,.864.078,5.365,5.365,0,0,1,.912.248,7.014,7.014,0,0,1,.967.447l.1-1.044a4.962,4.962,0,0,0-.543-.24c-.2-.078-.436-.154-.69-.225a6.19,6.19,0,0,0-.8-.165A6.371,6.371,0,0,0,87.729,84.288Zm-12.361,2,1.867,2.634.716,1.013.4.56.429.607.687.972.285.4.039.055.328.463h.966V84.444H80.049v6.672h-.09L78.1,88.5q-.69-.972-1.4-1.974c-.436-.618-.919-1.3-1.476-2.082h-.978V93h1.032V86.293h.084Zm-5.076-1.848V93h1.1V84.444Zm-9.48,0V93h2.682a5.756,5.756,0,0,0,2.067-.329,3.509,3.509,0,0,0,1.373-.922,3.65,3.65,0,0,0,.765-1.373,5.76,5.76,0,0,0,.24-1.689,5.47,5.47,0,0,0-.273-1.788,3.647,3.647,0,0,0-.8-1.335,3.4,3.4,0,0,0-1.293-.834,5.058,5.058,0,0,0-1.758-.284H60.813ZM53,90.852h3.867l.207.6q.2.6.4,1.171l.06.175.068.2h1.128l-.276-.768-.02-.056-.021-.059-.2-.548-.2-.561-.173-.486-.145-.408-1.057-2.947-.158-.445-.351-.983q-.228-.636-.463-1.3H54.249l-.136.374c-.109.3-.218.6-.327.9l-.005.014c-.133.361-.287.789-.517,1.431L52.2,90.1c-.21.571-.391,1.073-.525,1.446-.218.609-.422,1.171-.525,1.452h1.1c.185-.514.369-1.036.545-1.551l.085-.246,0-.012L53,90.853Zm-8.841-6.408V93h5.328v-.93H45.225V89.118h4.014v-.906H45.225V85.374h4.254v-.93H44.163Zm-7.6,5.081h1.525l1.121,1.446c.236.294.49.616.778.984.273.351.541.692.819,1.044h1.272l-.337-.421-.247-.309-.017-.022-.689-.868c-.268-.336-.482-.6-.672-.833L39.108,89.29a2.939,2.939,0,0,0,1.035-.313,2.076,2.076,0,0,0,.909-.932,2.985,2.985,0,0,0,.274-1.284A2.458,2.458,0,0,0,41,85.416a1.855,1.855,0,0,0-.977-.742,4.958,4.958,0,0,0-1.629-.23H35.5V93h1.062V89.527Zm5.026-23.238a4.405,4.405,0,0,0-2.335.589,3.915,3.915,0,0,0-1.467,1.589,4.94,4.94,0,0,0-.507,2.25,5.25,5.25,0,0,0,.27,1.687,4.123,4.123,0,0,0,.813,1.413,3.8,3.8,0,0,0,1.359.966,4.8,4.8,0,0,0,1.9.351,4.347,4.347,0,0,0,2.291-.579,3.841,3.841,0,0,0,1.458-1.579,4.967,4.967,0,0,0,.5-2.264,5.308,5.308,0,0,0-.275-1.723,4.08,4.08,0,0,0-.823-1.409,3.8,3.8,0,0,0-1.346-.949A4.7,4.7,0,0,0,41.586,66.288Zm-8.928,0a4.26,4.26,0,0,0-2.209.564,3.958,3.958,0,0,0-1.481,1.563,4.815,4.815,0,0,0-.535,2.295,4.988,4.988,0,0,0,.3,1.76,4.108,4.108,0,0,0,.873,1.4,3.925,3.925,0,0,0,1.383.927,4.821,4.821,0,0,0,1.827.33,6.611,6.611,0,0,0,.7-.036,6.037,6.037,0,0,0,.681-.111,4.437,4.437,0,0,0,.635-.2,3.28,3.28,0,0,0,.555-.282L35.3,73.476a4.555,4.555,0,0,1-.573.333,3.568,3.568,0,0,1-.591.225,4.376,4.376,0,0,1-.606.123,4.762,4.762,0,0,1-.612.039,3.652,3.652,0,0,1-1.461-.273,2.959,2.959,0,0,1-1.05-.753,3.251,3.251,0,0,1-.636-1.11,4.2,4.2,0,0,1-.212-1.345,3.921,3.921,0,0,1,.41-1.85,2.959,2.959,0,0,1,1.131-1.2,3.215,3.215,0,0,1,1.644-.42,4.51,4.51,0,0,1,.824.078,4.8,4.8,0,0,1,.864.248,6.269,6.269,0,0,1,.909.447l.1-1.044a4.3,4.3,0,0,0-.528-.246c-.2-.078-.422-.153-.666-.222a6,6,0,0,0-.761-.162A5.74,5.74,0,0,0,32.658,66.288Zm74.19.157V75h2.682a5.756,5.756,0,0,0,2.067-.329,3.509,3.509,0,0,0,1.373-.922,3.65,3.65,0,0,0,.765-1.373,5.76,5.76,0,0,0,.24-1.689A5.47,5.47,0,0,0,113.7,68.9a3.647,3.647,0,0,0-.8-1.335,3.4,3.4,0,0,0-1.293-.834,5.058,5.058,0,0,0-1.758-.284h-3.006Zm-7.746,0V75h5.328v-.93h-4.266V71.118h4.014v-.906h-4.014V67.374h4.254v-.93Zm-9.462,0V75h2.682a5.756,5.756,0,0,0,2.067-.329,3.509,3.509,0,0,0,1.373-.922,3.65,3.65,0,0,0,.765-1.373,5.76,5.76,0,0,0,.24-1.689A5.47,5.47,0,0,0,96.5,68.9a3.648,3.648,0,0,0-.8-1.335,3.4,3.4,0,0,0-1.293-.834,5.058,5.058,0,0,0-1.758-.284H89.64ZM81,68.292h.084l1.867,2.634.71,1.005.334.472.5.7.656.928.03.042.32.453,0,.006L85.83,75H86.8V66.444H85.764v6.672h-.09L83.82,70.5q-.69-.972-1.4-1.974c-.332-.469-.845-1.2-1.476-2.082h-.978V75H81V68.293Zm-8.778-1.848V75H77.55v-.93H73.284V71.118H77.3v-.906H73.284V67.374h4.253v-.93Zm-4.459,1.92h.078l.312,2.556.022.176,0,.036q.1.8.208,1.7.126,1.026.264,2.165H69.69c-.056-.476-.111-.927-.167-1.377s-.116-.929-.18-1.449l-.348-2.849c-.07-.543-.128-1.011-.183-1.471q-.063-.529-.132-1.091l-.039-.319H67.548c-.234.591-.466,1.168-.707,1.764-.224.549-.448,1.1-.684,1.692l-1.345,3.317h-.084l-1.356-3.324q-.227-.558-.457-1.12l-.135-.33-.1-.239q-.348-.849-.72-1.76H60.87c-.066.507-.127,1-.18,1.422l-.009.071-.05.408-.005.043q-.055.449-.115.941l-.354,2.821c-.065.535-.123,1-.183,1.476-.066.516-.119.94-.171,1.373H60.84l.019-.157.1-.818.143-1.19q.052-.434.1-.844l.005-.043q.041-.34.08-.664l.005-.041.04-.328.311-2.55h.078l1.122,2.772.543,1.326c.158.385.317.781.477,1.177l0,.007.062.154c.171.421.332.825.481,1.2h.738l.019-.049.019-.047.022-.055q.316-.805.679-1.724l.022-.057.018-.046L65.935,73q.373-.947.743-1.884l1.085-2.753Zm-12.114,0h.078l.312,2.556.022.176q.1.814.212,1.739Q56.4,73.86,56.538,75h1.038c-.045-.384-.1-.822-.167-1.377q-.085-.668-.18-1.449l-.348-2.849c-.07-.543-.128-1.011-.183-1.471q-.063-.529-.132-1.091l-.039-.319H55.434c-.247.623-.485,1.217-.707,1.764s-.451,1.11-.684,1.692L52.7,73.218h-.084l-1.356-3.324q-.293-.72-.59-1.446l-.1-.243q-.348-.849-.72-1.76H48.756c-.066.507-.127,1-.18,1.422l-.009.071-.005.044-.071.576,0,.017q-.045.364-.093.755l-.354,2.821c-.062.519-.127,1.037-.183,1.476-.051.4-.105.832-.171,1.373h1.038l.019-.157.007-.061q.124-1.019.235-1.947l.192-1.593.04-.328.311-2.55h.078l1.122,2.772.543,1.326c.176.433.359.883.543,1.338.171.422.333.826.481,1.2h.738l.019-.049.005-.013q.331-.844.714-1.813.4-1.008.792-2.007l1.085-2.753ZM21.2,66.444V75h5.328v-.93H22.26V71.118h4.014v-.906H22.26V67.374h4.254v-.93Zm-7.6,5.081H15.12l1.122,1.446c.251.315.518.652.777.984.27.347.538.689.819,1.044H19.11l-.193-.243-.394-.494-.013-.015q-.2-.257-.414-.52l-.128-.16-.148-.187c-.235-.295-.455-.568-.672-.833L16.142,71.29a2.939,2.939,0,0,0,1.036-.313,2.076,2.076,0,0,0,.909-.932,3,3,0,0,0,.273-1.284,2.465,2.465,0,0,0-.327-1.344,1.861,1.861,0,0,0-.978-.742,4.95,4.95,0,0,0-1.629-.23H12.534V75H13.6V71.527ZM63,49.1h0L73.08,56.66,68.79,45.47l8.851-6.66H67.14L63,27.71l-4.17,11.1H48.36l8.851,6.66L52.95,56.66,63,49.1Zm.5,42.994H61.9V85.35h1.733a3.954,3.954,0,0,1,1.426.234,2.526,2.526,0,0,1,.99.672,2.831,2.831,0,0,1,.576,1.05,5,5,0,0,1-.13,3.117,2.541,2.541,0,0,1-1.044,1.224A3.705,3.705,0,0,1,63.5,92.094ZM56.58,90H53.3l.013-.037.016-.047L54.9,85.422h.1l1.56,4.536.012.034,0,.007ZM38,88.632h-1.44V85.344h1.795a4.812,4.812,0,0,1,.624.041,1.808,1.808,0,0,1,.6.186,1.085,1.085,0,0,1,.45.453,1.755,1.755,0,0,1,.171.843,1.941,1.941,0,0,1-.24,1.029,1.362,1.362,0,0,1-.725.562A3.735,3.735,0,0,1,38,88.632ZM41.592,74.2a3.306,3.306,0,0,1-1.416-.282,2.771,2.771,0,0,1-.993-.771A3.322,3.322,0,0,1,38.6,72.03a4.46,4.46,0,0,1-.193-1.319,4.393,4.393,0,0,1,.2-1.318,3.4,3.4,0,0,1,.594-1.116,2.8,2.8,0,0,1,.994-.77,3.623,3.623,0,0,1,2.768-.015,2.757,2.757,0,0,1,.987.744,3.257,3.257,0,0,1,.6,1.11,4.508,4.508,0,0,1,.2,1.365,4.6,4.6,0,0,1-.186,1.305,3.321,3.321,0,0,1-.572,1.119,2.75,2.75,0,0,1-.981.777A3.269,3.269,0,0,1,41.592,74.2Zm67.945-.1h-1.6V67.35h1.733a3.954,3.954,0,0,1,1.426.234,2.526,2.526,0,0,1,.99.672,2.83,2.83,0,0,1,.576,1.05,5,5,0,0,1-.13,3.117,2.541,2.541,0,0,1-1.044,1.224A3.705,3.705,0,0,1,109.536,74.094Zm-17.208,0h-1.6V67.35H92.46a3.954,3.954,0,0,1,1.426.234,2.526,2.526,0,0,1,.99.672,2.83,2.83,0,0,1,.576,1.05,5,5,0,0,1-.13,3.117,2.541,2.541,0,0,1-1.044,1.224A3.705,3.705,0,0,1,92.328,74.094ZM15.036,70.632H13.6V67.344H15.39a4.831,4.831,0,0,1,.624.041,1.815,1.815,0,0,1,.6.186,1.081,1.081,0,0,1,.45.453,1.755,1.755,0,0,1,.171.843A1.942,1.942,0,0,1,17,69.9a1.362,1.362,0,0,1-.726.562A3.732,3.732,0,0,1,15.036,70.632Z" transform="translate(0 0)" fill="#cd5dff"/>
</svg>
