<svg xmlns="http://www.w3.org/2000/svg" width="803.95" height="664.07" viewBox="0 0 803.95 664.07"><defs><style>.cls-1{fill:#e8a6c2;}.cls-2{fill:#ffc688;}.cls-3{fill:#a6b6e8;}.cls-4{fill:#c7d7ff;}.cls-5{fill:#dbd2ca;}.cls-6{fill:#192a61;}.cls-7{fill:#735261;}.cls-8{fill:#fe8602;}.cls-9{fill:#fff1f7;}.cls-10{fill:#dbdbdb;}</style></defs><g id="Layer_2" data-name="Layer 2"><g id="Layer_3" data-name="Layer 3"><path class="cls-1" d="M65.63,354.84C72.71,360,75,368.75,78.36,376.55l2.4,5.6a7,7,0,0,0-1.4,7.12c.13.41.27.81.4,1.22a185.46,185.46,0,0,0,21.82-3,20.55,20.55,0,0,1,7.86-1.23,58.6,58.6,0,0,0-8.15-19.75c-2.15-3.5-4.54-6.92-6.77-10.43,0-.05,0-.11,0-.16a50.24,50.24,0,0,0-7.15-14.05,13.14,13.14,0,0,0-1.19-1.37c-.13-.33-.27-.65-.39-1-1.9-5.19-3.12-10.62-6.49-15.12-3.19-4.26-7.51-6.75-12.41-8.62-3.88-1.48-8.89-2.05-12.23-4.68A9.25,9.25,0,0,0,47,309.06a7.15,7.15,0,0,0-4.9,2.52c-7,7.8.29,17,5.36,23.64C52.87,342.38,58.32,349.5,65.63,354.84Z"/><path class="cls-2" d="M217.82,361.81c-2.34-6.62-8.37-12.5-15.91-12.12l-87,4.38c-29.37,1.48-58.78,3-88.18,1.38-8.64-.47-16.89,7.93-16.5,16.5a19.58,19.58,0,0,0,.43,3.3,13.24,13.24,0,0,0-.24,3.46c.19,3,.28,5.94.74,8.84.05.4.12.8.2,1.19a22,22,0,0,0,1.87,5.66c3.28,6.6,10.25,9.59,17.28,9.73C39.57,404.31,49,403,58,402.26c18.3-1.44,36.58-3.27,54.82-5.33s36.47-4.35,54.68-6.73q13.67-1.77,27.32-3.61c5.87-.78,11.34-1.18,16.19-4.93C217,377,220.49,369.37,217.82,361.81Z"/><path class="cls-3" d="M302.89,136.13a5.12,5.12,0,0,0-5.14-4.79,90.4,90.4,0,0,0-4.2-8.49,77.28,77.28,0,0,0-19.71-46.17,15.18,15.18,0,0,0-10.44-4.74q-2.61-4.41-5.2-8.82c-.85-1.44-1.67-2.94-2.53-4.43-14.33-3-28.57-6.41-42.85-9.64-20.48-4.63-41-9-61.56-13.43q-20.79-4.5-41.62-8.85l-49.5-6.72A5.28,5.28,0,0,0,55.25,22c-1.51,2.91-2.9,5.88-4.23,8.87,0,.31-.06.62-.1.93a3,3,0,0,1,.31,1.84c-1.69,12.32-6.08,23.94-10.12,35.64-.46,5-1.44,9.95-2.39,14.89-.09,4.1-.28,8.19-.53,12.27a2.77,2.77,0,0,1,.49,2.13c-.55,3.3-.91,6.62-1.2,10v22.23a2.44,2.44,0,0,1-1.09,2.14c.16,5.2.39,10.41.65,15.61.11,2.16-1.74,2.92-3.31,2.44-.24,1.74-.51,3.49-.84,5.22,1,6.75,3.3,13.56,4.92,19.33a2.49,2.49,0,0,1-.72,2.53,79.08,79.08,0,0,1,2,13.32l1.58,3.1A2.86,2.86,0,0,1,43,196.25a21.34,21.34,0,0,1,1.42,6.59c0,.13.07.26.11.38,2.49.81,2.21,3.46,4.68,2.85,2.38.78,6.81.6,9,1,9.19,1.66,19.52,1,28.81,1.85,20,1.89,40.09,2.36,60.13,3.46,6.45.36,12.86.87,19.25,1.47q9.26,1.08,18.51,2c7.47.92,14.94,1.94,22.42,3,20,2.87,40.19,5.3,60.46,3.61,1.67-.14,3.54-.83,4.31-2.47.1-.2.19-.4.28-.59,2.33-1.66,4.05-4,5.85-6.3,3.14-3.93,6.25-7.89,9.17-12,6.16-8.66,11.55-18.15,14.15-28.53C304.54,160.66,303.77,148.28,302.89,136.13Z"/><path class="cls-4" d="M62.19,28.72a4,4,0,0,0-1.92-2.17c-1.5-2.6-6.2-2.21-7.4,1.07C42.69,55.48,35,84.4,32.47,114a215.06,215.06,0,0,0-.68,24.57,4.47,4.47,0,0,0-.14,1.07c-.09,18.38.3,37,8.55,53.88a3.4,3.4,0,0,0,1.38,1.53c.71,2.19,1.45,4.37,2.24,6.55a4.06,4.06,0,0,0,6.68,1.77c10.49-8.73,12.14-25.14,14.81-37.64a395.85,395.85,0,0,0,7.25-45.43C75.51,89.45,73.51,57.85,62.19,28.72ZM48.49,158l.06-2.44a3.41,3.41,0,0,0,.32-.6C48.75,156,48.61,157,48.49,158Zm11.7-107.6a4.17,4.17,0,0,0-.89-.89c.08-1.09.15-2.18.23-3.27q.7,2.58,1.32,5.17C60.63,51.06,60.43,50.72,60.19,50.39Z"/><path class="cls-5" d="M140.78,352.77l-25.87,1.3c-29.37,1.48-58.78,3-88.18,1.38-8.64-.47-16.89,7.93-16.5,16.5a19.58,19.58,0,0,0,.43,3.3,13.24,13.24,0,0,0-.24,3.46c.19,3,.28,5.94.74,8.84.05.4.12.8.2,1.19a22,22,0,0,0,1.87,5.66c3.28,6.6,10.25,9.59,17.28,9.73C39.57,404.31,49,403,58,402.26c18.3-1.44,36.58-3.27,54.82-5.33q14.24-1.6,28.47-3.38C145.19,380.78,144.57,365.9,140.78,352.77Z"/><path class="cls-2" d="M217.82,361.81c-2.34-6.62-8.37-12.5-15.91-12.12l-55.65,2.8c3.54,13.07,4.13,27.44.74,40.33q10.25-1.27,20.48-2.62,13.67-1.77,27.32-3.61c5.87-.78,11.34-1.18,16.19-4.93C217,377,220.49,369.37,217.82,361.81Z"/><path class="cls-6" d="M45.65,193.73s-15,4-20,16-11,29-7,37,20,8,21-2,2-14-1-21-4-18-2-21,11-4,11-4l218,18,31-43s-19-5-36,3S45.65,193.73,45.65,193.73Z"/><path class="cls-4" d="M300.1,180.93a5.88,5.88,0,0,0-4.44-1.86c-20.08-.18-39.84-3.31-59.63-6.27s-39.44-4.89-59.09-7.93c-14.37-2.22-31.77-5.35-45.46,1.2-13.34,6.38-17.6,21.69-18.26,35.3a5.16,5.16,0,0,0-.62,3.25,13.09,13.09,0,0,0,.75,3.72,6.44,6.44,0,0,0,1.89,2.55c2.79,0,5.58.17,8.37.36a5.43,5.43,0,0,0,1.92-4.51c-.2-12.84,2.36-29.24,17.84-31.91,14.74-2.55,30.9,1.85,45.39,4,17.55,2.64,35.26,4.22,52.83,6.86s35,5,52.65,5.33A58.17,58.17,0,0,1,300.1,180.93Z"/><path class="cls-4" d="M304.07,156c.07-1.1.08-2.21.09-3.31s-.29-2-.49-3a6.12,6.12,0,0,0-3-.61,702.66,702.66,0,0,1-75.13-1.35q-18.24-1.32-36.38-3.6c-11.85-1.49-24-2.75-35.68-5.26-9.15-2-15.87-6.6-18.3-15.61-1.89-7-.84-16.45,4.77-21.77,4-3.77,11.19-3.12,16.37-3.44q9.1-.56,18.25-.68c12.52-.19,25,.18,37.54.93,28.25,1.7,56.33,5.35,84.36,9,3.35.44,6.63-.78,7.64-4.19.83-2.79-1-6.94-4.34-7.38-28.12-3.7-56.28-7.43-84.62-9.28-14.18-.92-28.4-1.37-42.61-1.09-6.76.14-13.53.43-20.28.92-6.56.47-13.23.75-18.68,4.71-15.7,11.4-14.83,37.23-2,50.16,8.47,8.52,20.87,9.78,32.32,11.46,13.76,2,27.53,3.91,41.38,5.32a701.18,701.18,0,0,0,95.36,3.11,6.37,6.37,0,0,0,2.53-.59A9.7,9.7,0,0,1,304.07,156Z"/><path class="cls-4" d="M264.15,74.45c-11.64-3.83-24.06-3.81-36.15-4.77q-20-1.58-39.91-4.58Q168.88,62.18,149.88,58c-5.77-1.28-12.16-1.49-15.64-6.76a29.46,29.46,0,0,1-4.74-16.79,5.42,5.42,0,0,0-2.44-4.78c-.92-.29-1.82-.61-2.71-1-3.24-.38-6.83,1.52-6.85,5.74-.08,11.36,4.56,26.89,16,31.7,6.14,2.58,13.33,3.5,19.83,4.86q10.93,2.3,22,4.16,21.39,3.63,43,5.71c14.1,1.35,29.08.71,42.65,5.18C268.31,88.44,271.46,76.85,264.15,74.45Z"/><path class="cls-1" d="M802.32,631.35c-.26-.49-.15-1.19-.43-1.65s-.88-.75-1.18-1.2-.46-1-.78-1.46-1-.57-1.39-1-.12-1.32-.48-1.74-1.17-.42-1.54-.82-.79-.75-1.18-1.14-.44-1.1-.84-1.48-.82-.73-1.23-1.1-.74-.81-1.16-1.17-.86-.68-1.27-1-.66-.93-1.08-1.28-1.39,0-1.81-.38-.81-.74-1.24-1.09-.7-.87-1.12-1.22-.44-1.18-.87-1.53-1.38,0-1.8-.41-.67-.9-1.09-1.26-.9-.64-1.31-1-.92-.62-1.32-1-.26-1.3-.65-1.69-.71-.82-1.09-1.22-.67-.81-1-1.21-1-.56-1.32-1-.85-.69-1.17-1.11-.62-.88-.93-1.31-.88-.68-1.2-1.12-.53-.92-.84-1.35,0-1.36-.27-1.79-.77-.76-1.09-1.19-1.11-.48-1.44-.9-.24-1.19-.59-1.59-.85-.68-1.22-1.06-1.07-.42-1.46-.79-.43-1.11-.84-1.46-1.09-.34-1.5-.67-.92-.53-1.34-.86-.65-.89-1.07-1.21-.67-.88-1.1-1.2-.87-.6-1.3-.91-.74-.8-1.17-1.1-.94-.5-1.38-.81-1-.36-1.47-.66-.93-.53-1.36-.84-.65-.92-1.09-1.22-1.28,0-1.71-.33-.49-1.14-.92-1.45-1.13-.26-1.55-.57-1-.5-1.38-.83-.32-1.35-.74-1.69-.93-.58-1.35-.92-.74-.8-1.16-1.14-1.19-.26-1.61-.61-.8-.72-1.22-1.07-1-.52-1.39-.87-.49-1.09-.9-1.45-.82-.7-1.22-1.06-.83-.71-1.23-1.07-1-.56-1.36-.92-.57-1-1-1.35-.61-.93-1-1.3-.93-.59-1.33-1-1.27-.24-1.66-.62-.33-1.21-.72-1.59-1-.52-1.39-.91-.92-.61-1.3-1-.53-1-.91-1.39-.4-1.12-.78-1.51-1-.55-1.36-.94-.53-1-.91-1.38-1-.58-1.33-1-1-.5-1.42-.89-.73-.81-1.1-1.2-.69-.83-1.07-1.23-.35-1.15-.72-1.54-1-.51-1.41-.91-.79-.75-1.16-1.15-.57-1-1-1.37-.56-1-.94-1.38-1-.61-1.33-1-1.16-.41-1.54-.8-.56-1-.94-1.39-.46-1.09-.85-1.48-1.25-.3-1.64-.69-.8-.75-1.2-1.13-.87-.66-1.28-1-.59-1-1-1.34-.38-1.23-.79-1.59-1.38-.1-1.8-.46-.41-1.21-.83-1.56-.81-.76-1.24-1.1-.82-.75-1.25-1.09-1.28-.14-1.72-.47-.63-1-1.08-1.31-1.19-.22-1.65-.53-.94-.56-1.39-.86-.74-.88-1.21-1.17-.66-1-1.13-1.31-1.24-.07-1.72-.34-1-.34-1.54-.6-.78-.88-1.27-1.12-1.11-.23-1.61-.46-1-.41-1.52-.62-.73-1-1.24-1.18-1.13,0-1.64-.17-1.12.07-1.63-.09-.9-.67-1.41-.82-1.07-.08-1.59-.21-.94-.59-1.47-.71-1.11.2-1.64.1-1-.64-1.49-.72-1-.25-1.57-.31-1-.25-1.58-.3-1.11.76-1.64.74-1-.74-1.57-.74-1.06.13-1.59.16c0-.05.35.17.35.13.27-.46.1-1.15.39-1.59s.42-1,.73-1.42,1-.6,1.29-1,.89-.62,1.23-1,.28-1.14.62-1.54c.54,0,1.08-.13,1.61-.14s1.06-.14,1.59-.17,1.09.34,1.62.3,1.06-.16,1.59-.21,1-.38,1.55-.45,1.11.22,1.64.14,1-.41,1.53-.51,1-.24,1.56-.36,1.11,0,1.62-.1,1-.29,1.54-.45,1-.51,1.46-.69,1-.31,1.52-.5,1.15,0,1.63-.25.79-.85,1.27-1.09.84-.67,1.3-.93,1.11-.21,1.57-.49.84-.67,1.28-1c.07,0,.23.05.31,0s-.14-.18-.15-.19c.56-.39,1.16-.72,1.7-1.15.33-.26.89-.33,1.14-.65s.18-.9.36-1.27c.46-.31.72-.89,1.16-1.21s1-.43,1.46-.76,1.13-.37,1.54-.72.44-1.17.84-1.53.86-.68,1.25-1.06.73-.8,1.1-1.2.73-.81,1.09-1.22,1-.55,1.38-1,.81-.76,1.15-1.19.7-.86,1-1.3.74-.83,1-1.28.14-1.22.43-1.68,1-.7,1.24-1.17.23-1.14.49-1.61.9-.77,1.15-1.25.5-1,.74-1.48,0-1.2.25-1.7.86-.81,1.08-1.32.4-1,.6-1.53.21-1.1.41-1.61.6-.94.78-1.46.29-1.06.47-1.58.45-1,.61-1.53.32-1.05.48-1.57.37-1,.52-1.56-.07-1.16.08-1.69.54-1,.68-1.51-.35-1.22-.21-1.75.37-1,.5-1.56.85-.92,1-1.45-.15-1.16,0-1.69.63-1,.75-1.52-.35-1.19-.23-1.73.72-1,.83-1.5.19-1.08.3-1.61-.11-1.13,0-1.67.65-1,.74-1.53-.4-1.17-.31-1.71.31-1.05.39-1.59.37-1,.45-1.59.07-1.09.14-1.63.17-1.08.23-1.62.49-1,.55-1.58-.36-1.14-.3-1.68.2-1.08.25-1.62.09-1.08.14-1.63-.38-1.11-.34-1.66.08-1.08.11-1.62.79-1.06.81-1.6-.5-1.11-.49-1.65.19-1.09.2-1.63,0-1.09,0-1.64-.27-1.08-.28-1.63,0-1.08,0-1.63.67-1.11.65-1.65-.45-1.08-.48-1.62.45-1.1.42-1.64-.44-1.1-.43-1.65.4-1.11.4-1.66-.74-1.11-.75-1.66.65-1.12.63-1.68-.83-1.07-.86-1.62.45-1.13.41-1.69-.36-1.08-.41-1.63.27-1.14.22-1.69-.2-1.09-.26-1.64.27-1.15.19-1.7-.55-1.05-.63-1.59.09-1.14,0-1.69,0-1.12-.12-1.67-.93-.95-1-1.5.38-1.2.27-1.74-.7-1-.82-1.53,0-1.13-.14-1.67-.51-1-.64-1.55-.23-1.08-.37-1.62.29-1.22.15-1.76-.66-1-.81-1.5-.57-1-.72-1.52.36-1.26.2-1.79-1-.86-1.14-1.39.13-.88-.05-1.41c.54.13.92-.42,1.47-.31s1,.8,1.54.88,1.12.11,1.67.17,1.1.38,1.66.41,1.09-.45,1.63-.45,1.07.22,1.6.2,1.07-.17,1.6-.23,1-.59,1.52-.67,1.17.53,1.7.42,1-.34,1.54-.48.91-.7,1.42-.86,1-.32,1.5-.51,1-.37,1.47-.58.92-.52,1.4-.76,1-.34,1.47-.61,1.27,0,1.72-.29.49-1.17.92-1.49.92-.54,1.33-.89.77-.73,1.15-1.1.48-1,.84-1.39,1.43-.18,1.77-.6.25-1.16.56-1.59,1-.62,1.31-1.07.25-1.17.51-1.65.56-1,.8-1.47.48-1,.69-1.53.2-1.11.38-1.64.51-1,.67-1.53.5-1,.63-1.57-.22-1.19-.11-1.73.85-1,.94-1.54-.33-1.17-.26-1.72.18-1.1.22-1.66-.27-1.13-.24-1.68.2-1.1.2-1.66.64-1.11.64-1.67-.64-1.1-.66-1.66-.19-1.1-.22-1.65.44-1.15.4-1.7-.06-1.12-.12-1.67-.75-1-.81-1.56.15-1.12.07-1.66.3-1.15.22-1.69-.88-1-1-1.51.51-1.2.42-1.73-.69-1-.79-1.53-.11-1.09-.21-1.63-.2-1.08-.31-1.61-.22-1.07-.34-1.61.23-1.17.11-1.7-.59-1-.71-1.52.11-1.16,0-1.69-.84-.92-1-1.45-.38-1-.52-1.55-.26-1.06-.41-1.59-.09-1.11-.25-1.63-.57-1-.74-1.49.3-1.24.14-1.76-1.12-.79-1.29-1.31.12-1.19-.06-1.71-.48-1-.66-1.5l-.56-1.56c-.19-.52-.52-1-.72-1.49s-.28-1.08-.48-1.59-.13-1.13-.34-1.65-1-.76-1.24-1.27-.2-1.11-.42-1.61-.26-1.09-.49-1.6-.56-.95-.79-1.45.06-1.25-.18-1.75-1-.73-1.27-1.22-.7-.88-1-1.37-.44-1-.71-1.49.1-1.31-.17-1.79-.88-.78-1.16-1.25-.22-1.16-.51-1.63-.84-.78-1.13-1.25-.56-1-.87-1.41-.65-.9-1-1.35-1.14-.53-1.47-1-.4-1.07-.74-1.5-.81-.76-1.16-1.19-.69-.85-1.05-1.27-.66-.88-1-1.28-.4-1.14-.79-1.54-.8-.77-1.19-1.15-.88-.69-1.29-1.06-.66-.93-1.08-1.29-1-.56-1.4-.91-.74-.86-1.18-1.19-1-.56-1.42-.88-1.17-.24-1.63-.54-.82-.76-1.3-1-1-.43-1.51-.69-.71-1-1.2-1.27-1.26.07-1.77-.16-1-.53-1.47-.74-1-.39-1.55-.58-1.11-.12-1.63-.29-1-.53-1.5-.68-1-.42-1.55-.55-1.15.17-1.68.06-1-.28-1.59-.36-1-.59-1.58-.64-1.08-.3-1.63-.33-1.12.42-1.66.41-1.1,0-1.64,0-1.09.13-1.63.17-1.07.2-1.62.26-1.13-.23-1.67-.15-1.15-.16-1.69-.05-.92.91-1.45,1-1.27-.5-1.8-.35-.95.68-1.46.86-.83.91-1.34,1.11-1.2-.06-1.7.16-.83.79-1.32,1-1,.5-1.43.78-1.19.13-1.65.43-.93.6-1.37.92-.87.68-1.3,1-.93.61-1.34,1-.56,1-1,1.39-1.06.5-1.43.91-.21,1.25-.56,1.68-1.36.33-1.68.78.08,1.38-.22,1.84-.9.72-1.18,1.19-.8.82-1.05,1.31-.52,1-.75,1.48-.24,1.09-.44,1.6-.44,1-.61,1.54-.32,1.08-.47,1.61-.52,1-.65,1.57-.11,1.13-.22,1.67-.12,1.13-.2,1.67.13,1.15.08,1.7-.3,1.12-.33,1.67c-.47-.31-.85-.81-1.31-1.12s-1.26-.15-1.73-.46-.58-1.16-1-1.46-1.33,0-1.81-.3-.77-.88-1.25-1.17-.75-.94-1.24-1.22-1.18-.2-1.67-.47-.83-.84-1.33-1.09-1.09-.34-1.6-.58-1.17-.14-1.68-.37-1-.41-1.56-.62-.9-.75-1.43-.95-1.09-.25-1.63-.43-1.07-.28-1.62-.44-.92-.75-1.44-.88-1.08-.19-1.61-.31-1.1,0-1.63-.12-1-.46-1.56-.54l-1.62-.22c-.54-.07-1.09-.06-1.63-.11s-1.12.42-1.66.38-1.06-.39-1.6-.41-1.08-.37-1.62-.37-1.1-.07-1.64-.05-1,.88-1.59.91-1.08-.12-1.62-.07-1.16-.63-1.69-.57-1.09.17-1.62.24-1,.64-1.54.73-1.11,0-1.64.1-1.11,0-1.64.14-.88.94-1.4,1.08-1.14-.05-1.66.1-.95.59-1.46.76-1,.28-1.55.47-.94.55-1.45.75-1.26-.24-1.76,0-.81.85-1.3,1.08-1.17.08-1.65.32-.79.83-1.27,1.08-.82.74-1.29,1-1.16.17-1.62.45-1,.43-1.47.72-.68.93-1.13,1.24-1.28.08-1.72.4-.64,1-1.07,1.3-1,.46-1.44.81-.35,1.24-.76,1.61-1,.46-1.43.83-.41,1.13-.79,1.51-1.16.37-1.53.77-.86.68-1.22,1.08-.87.69-1.21,1.1-.38,1.1-.72,1.52-.92.65-1.25,1.08-.47,1-.79,1.44-.81.76-1.11,1.2,0,1.32-.26,1.77-1,.65-1.27,1.11-.88.74-1.15,1.21-.16,1.15-.42,1.63-.9.74-1.15,1.22-.46,1-.7,1.47-.09,1.16-.32,1.64-.67.89-.89,1.38-.15,1.11-.36,1.61-.22,1.07-.42,1.57-.43,1-.62,1.49-.19,1.07-.37,1.58-.88.84-1.05,1.35-.06,1.11-.22,1.63-.52,1-.67,1.48-.74.92-.89,1.44.55,1.26.42,1.78-.87.9-1,1.42.37,1.2.26,1.72-.46,1-.57,1.53.06,1.11,0,1.64-1.11.89-1.2,1.42-.16,1.08-.25,1.61S564,330.51,564,331s.36,1.15.29,1.68-.21,1.06-.28,1.6.15,1.1.09,1.63-.58,1-.64,1.56.28,1.11.23,1.65,0,1.08-.06,1.61-.07,1.1-.11,1.64-.12,1.09-.15,1.64,0,1.1,0,1.65-.91,1.05-.94,1.59.78,1.14.76,1.69-.13,1.09-.14,1.64.11,1.1.09,1.64-.81,1.08-.82,1.63.08,1.1.07,1.65.68,1.1.67,1.65-.36,1.1-.36,1.65-.19,1.1-.18,1.64-.24,1.11-.23,1.65.34,1.1.35,1.65.53,1.08.55,1.63-.44,1.11-.42,1.66,0,1.09,0,1.64.27,1.09.3,1.64,0,1.09.05,1.64-.19,1.11-.16,1.66-.34,1.12-.31,1.67.67,1.06.71,1.6,0,1.1.07,1.65-.48,1.14-.43,1.69.16,1.09.21,1.63.33,1.08.38,1.62.26,1.08.32,1.63,0,1.1.07,1.65.2,1.08.26,1.62,0,1.11.09,1.65.19,1,.25,1.53c-.16-.51-.69-.82-.84-1.33s.3-1.22.14-1.74-.09-1.1-.25-1.62-1.16-.78-1.31-1.29-.18-1.08-.34-1.6-.13-1.09-.28-1.6-.5-1-.66-1.5-.47-1-.62-1.5-.15-1.09-.3-1.61-.09-1.1-.24-1.62-.68-.92-.84-1.44.51-1.28.36-1.8-1.12-.79-1.27-1.31.43-1.26.27-1.78-.38-1-.53-1.53-.77-.9-.92-1.42,0-1.12-.17-1.64-.27-1.05-.43-1.56-.15-1.09-.3-1.61-.77-.9-.92-1.41-.63-.95-.78-1.47.32-1.22.16-1.73-.54-1-.69-1.49-.72-.92-.87-1.44.65-1.31.5-1.83-1.1-.81-1.25-1.33.39-1.23.24-1.75-1-.85-1.13-1.37-.4-1-.55-1.53-.14-1.08-.28-1.6.22-1.19.07-1.71-.78-.9-.92-1.43-.35-1-.49-1.54.49-1.26.35-1.78-1.18-.8-1.32-1.32.49-1.25.35-1.78-1-.85-1.14-1.37.11-1.15,0-1.67-.2-1.07-.34-1.59-.37-1-.51-1.54,0-1.1-.16-1.62c-.13-.71-.42-.65-.54-1.36s-.29-.68-.41-1.38.33-.79.21-1.5c-.09-.53.07-1.12,0-1.65s-1.06-.9-1.16-1.44.59-1.22.48-1.76-.29-1.05-.4-1.58-.69-1-.79-1.5.18-1.15.08-1.68-.51-1-.6-1.55,0-1.1-.11-1.64-.08-1-.15-1.56a13.06,13.06,0,0,0,.57-1.39c.12-.48-.33-1.09-.27-1.6s.44-1.14.49-1.71-.3-1.19-.29-1.77-.09-1.16-.1-1.74.24-1.17.2-1.75-.44-1.15-.5-1.73.35-1.09.35-1.62,0-1.06,0-1.59-.14-1.07-.14-1.6-.08-1.06-.08-1.59-.12-1.07-.12-1.6.69-1.05.69-1.58-.52-1.07-.52-1.6.09-1.06.1-1.59.69-1.06.69-1.59-.09-1.06-.09-1.6-.12-1.06-.12-1.59-.35-1.06-.35-1.59-.27-1.09-.26-1.63.52-1.07.53-1.61.3-1.07.32-1.61-.42-1.1-.4-1.64-.27-1.09-.25-1.63,0-1.08,0-1.62.26-1.07.26-1.62.1-1.08.1-1.62,0-1.08-.06-1.62.34-1.1.31-1.64,0-1.09,0-1.63-.44-1.05-.5-1.58.2-1.13.11-1.66-.25-1.07-.35-1.6,0-1.13-.14-1.65-.78-.94-.95-1.46.11-1.24-.09-1.75-1-.77-1.27-1.26,0-1.25-.3-1.73-.7-.89-1-1.35-.67-.89-1-1.33-.54-1-.89-1.43-.93-.67-1.3-1.07-.61-1-1-1.36-1.16-.39-1.57-.76-.43-1.18-.86-1.54-.9-.66-1.33-1-1.36-.05-1.8-.39-.47-1.12-.95-1.44-1-.48-1.41-.78a10.23,10.23,0,0,0-2-3c-.34-.41-.71-.79-1-1.21s-.69-.81-1-1.23,0-1.35-.35-1.77-.93-.62-1.27-1-.46-1-.79-1.42-.73-.78-1.06-1.2-.91-.63-1.24-1-.22-1.2-.55-1.61-1.3-.33-1.64-.74-.42-1-.76-1.45-.95-.59-1.3-1-.12-1.31-.47-1.71-.78-.74-1.13-1.14-1.17-.38-1.53-.77-.31-1.18-.68-1.56-1.16-.36-1.54-.73-.57-1-1-1.38-.86-.72-1.3-1.06-.73-.91-1.18-1.23-.94-.63-1.42-.92-1-.43-1.53-.71-1.23-.07-1.72-.33-.75-1-1.25-1.22-1.2-.08-1.7-.33-.74-1-1.24-1.26l-1.51-.71c-.5-.25-1.17-.14-1.67-.4s-.75-1-1.24-1.23-1-.39-1.52-.67-1.13-.29-1.6-.59-.88-.61-1.33-.91-.7-.87-1.14-1.17-.92-.55-1.36-.86-1.08-.32-1.51-.63-.81-.71-1.24-1-.62-1-1-1.27-1.23-.15-1.65-.48-.88-.61-1.31-.94-.67-.87-1.09-1.2-.83-.68-1.25-1-.63-.89-1.05-1.22c-.51-.5-1.15-.84-1.66-1.34s-.54-1-.94-1.42-1.2-.35-1.6-.73-.89-.68-1.29-1.06-.87-.69-1.27-1.06-.49-1.11-.89-1.48-1.14-.39-1.55-.76-.57-1-1-1.39-.61-1-1-1.34-.93-.62-1.36-1-.67-.93-1.1-1.28-1.05-.47-1.49-.8-1-.49-1.46-.82-.83-.75-1.28-1.07-.87-.68-1.33-1-1.14-.36-1.61-.66c-.23-.45-.18-1.15-.5-1.56a8.46,8.46,0,0,0-.91-1.33c-.38-.32-1.1-.25-1.56-.51a10.3,10.3,0,0,0-1.48-.39c-.51-.19-.75-1.09-1.26-1.3s-1.2.05-1.7-.17-.92-.6-1.42-.84-.86-.71-1.34-1-1.41.3-1.89,0-.85-.74-1.32-1-.63-1.05-1.09-1.35-.84-.71-1.29-1-.86-.65-1.3-1-1-.48-1.43-.82-.7-.85-1.11-1.21-1.43,0-1.84-.4-.55-1-.95-1.44-.92-.66-1.3-1.07-.28-1.26-.65-1.67-.77-.8-1.13-1.22-.75-.82-1.11-1.24-1-.6-1.38-1-.45-1.09-.81-1.51-1.06-.55-1.43-1-.71-.86-1.09-1.27-.58-1-1-1.37-.76-.83-1.17-1.21-.83-.75-1.26-1.11-.77-.84-1.21-1.18-.81-.74-1.24-1-1.36.12-1.81-.16-.52-1.2-1-1.47-1.12-.18-1.59-.43-.81-.75-1.29-1-1-.3-1.52-.53-.83-.75-1.31-1-1.09-.18-1.58-.39-1.12-.07-1.61-.28-.81-.83-1.3-1-.93-.56-1.42-.76l-1.48-.62-1.47-.61-1.45-.65c-.49-.2-1.29.33-1.78.12-.77-.33-.65-.59-1.42-.92s-.94.05-1.71-.28-.74-.4-1.5-.73-.8-.26-1.57-.59-.43-1.13-1.2-1.46-1.08.41-1.85.07-.5-.95-1.27-1.28-1,.15-1.74-.19-.67-.56-1.44-.9-.67-.55-1.44-.88-.91,0-1.68-.35-.6-.71-1.37-1-.8-.27-1.57-.6-.75-.4-1.52-.73-.87-.1-1.65-.43c-.5-.22-1.15-.14-1.66-.36s-1.08-.29-1.59-.51-.73-1.1-1.23-1.33-.91-.7-1.42-.92-1.19-.06-1.7-.28-.88-.77-1.39-1-1.13-.19-1.65-.4-1-.54-1.49-.75-1.29.25-1.81,0-.94-.65-1.47-.84-.88-.85-1.4-1-1.23.19-1.76,0-.92-.81-1.46-1-1.24.37-1.78.23-1-.13-1.55-.21-.93-1-1.47-1-1.07,0-1.61,0-1.06,0-1.59,0-1.09.26-1.62.23-1-.68-1.55-.72-1.07.09-1.6,0-1-.25-1.55-.34-1.19.46-1.7.34-.82-1-1.32-1.17-1.2.16-1.67-.07-.66-.94-1.1-1.24-1.27-.1-1.65-.49-.62-.9-1-1.3-.59-.9-.92-1.33-.73-.79-1-1.23-.14-1.18-.43-1.63-.63-.86-.91-1.31-1.12-.57-1.4-1-.51-.94-.79-1.4-.82-.73-1.11-1.18-.58-.88-.89-1.31-.27-1.12-.61-1.54-.95-.57-1.31-1-.56-.9-.95-1.27-.55-1-.94-1.3-.88-.58-1.29-.89-.71-.83-1.14-1.12-.95-.48-1.4-.74-1.15,0-1.62-.28-.63-1.15-1.11-1.35-1-.32-1.52-.48-.92-.19-1.43-.3c-.25-.5-.3-.92-.52-1.44s-1.23-.72-1.41-1.25,0-1.19-.13-1.73-.58-1-.69-1.57-.23-1.11-.32-1.66.24-1.16.18-1.72,0-1.12,0-1.68-.35-1.09-.37-1.65S307,74,307,73.43s-.65-1-.76-1.52.39-1.25.18-1.73-1.05-.64-1.36-1.07,0-1.44-.45-1.79-1.18-.27-1.65-.54a7.8,7.8,0,0,0-1.49-.62c-.5-.17-.93-.86-1.47-.94s-1.13.54-1.68.55a11.08,11.08,0,0,0-1.63-.13c-.47.08-1-.14-1.45-.06s-.85.6-1.31.68-.91.07-1.38.15c-.1-.54.13-1.1,0-1.64s-.71-1-.8-1.51l-.27-1.62c-.08-.54.24-1.14.16-1.68s-.13-1.08-.21-1.61-.54-1-.61-1.57,0-1.1-.08-1.64,0-1.1-.06-1.64,0-1.09-.08-1.63-.08-1.08-.12-1.63-.27-1.07-.31-1.61,0-1.1,0-1.64-.59-1.06-.62-1.61,0-1.09,0-1.64.84-1.11.83-1.66-.53-1.07-.54-1.62,0-1.09-.06-1.63.14-1.09.14-1.64.42-1.08.43-1.62,0-1.09,0-1.63-.37-1.1-.35-1.65-.2-1.1-.17-1.64.55-1.06.58-1.61-.09-1.09-.05-1.64,0-1.09,0-1.63a6,6,0,0,0,.21-1.63c-.1-.51-.65-.91-.86-1.4a9,9,0,0,0-.95-1.23c-.3-.43-.35-1-.72-1.41A10,10,0,0,0,287,19c-.44-.31-.79-.88-1.26-1.09s-1.21.21-1.72.12a4.79,4.79,0,0,0-1.49.18,9.91,9.91,0,0,1-1.81-.05,17.48,17.48,0,0,1-1.77-.23c-.57-.1-1.05-.69-1.62-.83s-1.08-.48-1.65-.61-1.25.33-1.83.25a12.39,12.39,0,0,0-1.71-.26,9.36,9.36,0,0,0-1.72.2,13.35,13.35,0,0,0-1.62.27,12.6,12.6,0,0,0-1.43.82,15.08,15.08,0,0,0-1.35.9c-.47.27-1,.36-1.49.67s-1,.51-1.4.84-.65.93-1.09,1.27-.94.57-1.37.91-1.15.23-1.56.55-.43,1.15-.84,1.48-1,.43-1.4.76-.89.56-1.3.88-1,.45-1.39.77-.73.77-1.14,1.1-.75.74-1.16,1.06-1.16.22-1.57.55-.34,1.25-.75,1.58-1,.3-1.37.62c-.23-.51-.16-1.05-.4-1.56s-.68-.93-.92-1.44-.29-1.11-.53-1.62-.46-1-.71-1.54-1.24-.65-1.48-1.16.12-1.32-.13-1.82-.67-.93-.92-1.43-.51-1-.76-1.51-.65-.94-.91-1.44-.74-.88-1-1.38.19-1.22-.07-1.72c.12-.51-.17-1-.17-1.48a8.07,8.07,0,0,0-.23-1.54c-.11-.5-.65-.83-.85-1.32s.26-1.25,0-1.7-1.12-.5-1.42-.93-.23-1.11-.56-1.5-.8-.69-1.15-1.06-.74-.72-1.12-1.07-.85-.61-1.23-.94-.93-.59-1.36-.9a14.56,14.56,0,0,0-1.4-.8c-.52-.26-.76-1.06-1.26-1.23a9.48,9.48,0,0,0-1.64-.53,9,9,0,0,0-1.72,0,10.11,10.11,0,0,0-1.74.12c-.52.14-.74,1.18-1.26,1.41s-1.26-.06-1.73.24-.51,1.14-1,1.5-1.44,0-1.85.42S218.33,5,218,5.39a8.53,8.53,0,0,0-1.55.65,7.35,7.35,0,0,0-1.52.51c-.48.28-.85.71-1.31,1s-1.33.05-1.77.38-.57,1.09-1,1.44-1,.51-1.45.87-.82.75-1.23,1.13-.47,1.12-.87,1.51-1.37.18-1.77.57-.88.69-1.28,1.09-.33,1.24-.73,1.63-1.23.33-1.63.72,0,1.25-.29,1.52-1,.19-1.28.44c-.39-.48-1.07-.74-1.46-1.22s-.51-1.19-.9-1.67-1-.55-1.38-1-.16-1.28-.52-1.69-1.1-.47-1.47-.87-.71-.81-1.09-1.19-.64-.9-1-1.27-1.06-.45-1.46-.81-.5-1.07-.91-1.42-.55-1.06-1-1.39-1.23-.18-1.67-.49-1-.4-1.49-.69-.63-1-1.1-1.3S184,3,183.56,2.77s-1-.54-1.47-.76-1.19,0-1.69-.21-1.13,0-1.65-.2-.87-1-1.4-1.09S176.28.2,175.74.12s-1.14.24-1.68.2S173,.13,172.42.13s-1.06.53-1.6.57-1.11-.3-1.66-.22-1.14-.16-1.68,0-.84,1.07-1.37,1.23-1.23-.31-1.75-.12-.94.66-1.45.88-.82.87-1.31,1.11-1.28,0-1.76.22-.74.94-1.21,1.23-.88.67-1.34,1-1.18.24-1.63.57-1,.5-1.46.85-.73.86-1.16,1.22-.51,1.1-.92,1.47-.84.71-1.24,1.1-.74.81-1.14,1.21-.86.7-1.24,1.1-.79.73-1.16,1.13-.56.94-.92,1.35-1,.52-1.4.93-.56,1-.92,1.36-.67.86-1,1.26-.88.66-1.26,1.05-.63.93-1,1.3-.87.68-1.28,1-.72.86-1.15,1.19-.92.64-1.37.93-1.15.23-1.63.48-.89.68-1.39.88-1.12,0-1.55.26a11.07,11.07,0,0,0-1.44.65c-.4.31-.57.95-.91,1.31a9.62,9.62,0,0,0-.84,1.27,9.19,9.19,0,0,0-.88,1.29c.06,0,.35-.28.41-.27.57.1,1,.94,1.55,1.05s1.18-.13,1.73,0,1.17,0,1.72.14,1.17.06,1.72.22.8,1.22,1.34,1.4,1.35-.43,1.89-.22c0,0,0,.18,0,.19l-.21.51c.42.17.94.08,1.36.27s.45.43.68.58c.51.11,1.18-.35,1.7-.24s1,.4,1.5.5,1,.14,1.56.24,1,.33,1.52.42,1,.44,1.52.51,1.1-.22,1.62-.15,1,.35,1.54.42,1.09-.33,1.61-.28,1,.2,1.56.25,1,.21,1.56.25,1,.22,1.56.25,1,.54,1.56.56S160.46,37,161,37s1.07.41,1.6.41c.38-.36.4-1.13.77-1.5s1-.52,1.32-.9,1-.54,1.33-.92.62-.86,1-1.26.65-.77,1-1.17c.37.4.46,1,.82,1.39s.84.71,1.2,1.11.88.66,1.24,1.07.74.79,1.1,1.19.78.75,1.15,1.16,1,.53,1.39.93.26,1.22.62,1.62.5,1,.86,1.41,1.36.25,1.72.65.33,1.16.69,1.56,1.16.42,1.52.83.49,1,.85,1.41.87.68,1.23,1.09.65.86,1,1.27.69.83,1,1.24.73.8,1.09,1.21.59.92.94,1.33.66.86,1,1.27.48,1,.83,1.42.82.73,1.17,1.14.9.66,1.24,1.07.75.8,1.1,1.21.38,1.09.73,1.5,1.13.47,1.48.89.05,1.36.4,1.78,1.22.39,1.56.81.35,1.12.7,1.53.9.67,1.24,1.09.63.88,1,1.3.75.79,1.09,1.21.37,1.09.71,1.51,1.11.49,1.46.91.37,1.09.71,1.51.68.85,1,1.27.95.63,1.29,1,.15,1.26.49,1.68.62.89,1,1.32,1,.59,1.34,1,.62.89,1,1.31,1.16.46,1.5.89.33,1.11.66,1.54.5,1,.84,1.43.77.78,1.11,1.21,1,.64,1.3,1.06.71.84,1.05,1.26.67.87,1,1.3.31,1.16.66,1.58.66.87,1,1.29.53,1,.89,1.41,1.18.43,1.54.84.58.94.94,1.35.78.78,1.15,1.18,1.08.49,1.45.89.68.85,1.06,1.25.73.8,1.12,1.19.68.86,1.07,1.24.41,1.16.8,1.54,1.05.48,1.45.85.76.8,1.17,1.16,1,.53,1.4.88.81.74,1.23,1.09l1.3,1.05c.43.34.95.57,1.4.91s1,.54,1.42.86.44,1.31.9,1.63,1,.54,1.45.85,1.22.14,1.7.43.82.78,1.31,1.06,1,.4,1.53.66.68,1.13,1.17,1.38,1.37-.27,1.87,0,.78.82,1.27,1,1,.38,1.47.58.9.58,1.4.76,1,.3,1.51.47,1,.44,1.48.58a12.94,12.94,0,0,0,1.73.59c.56.08,1.25-.47,1.84-.39s1.45,0,2,.15c.11.54-.57,1.45-.52,2.06s.38,1.11.39,1.7.2,1.17.18,1.75.14,1.19.09,1.76-.85,1.11-.92,1.66.63,1.32.55,1.82-1,.88-1.06,1.39.58,1.22.44,1.72-.57.92-.75,1.41-.54.91-.75,1.38.09,1.22-.15,1.68-.8.76-1.08,1.21-.31,1.07-.62,1.49-.86.68-1.2,1.08-.75.83-1.13,1.24-1.08.49-1.48.88-.59,1-1,1.37-1.1.42-1.53.77-.48,1.19-.93,1.53-1.34,0-1.8.36-.76.84-1.23,1.15-.93.59-1.4.89-.67,1-1.14,1.33-1,.49-1.49.77-1.15.26-1.63.54-.9.66-1.38.94-1,.57-1.45.84-.68.93-1.12,1.26-1.3.11-1.74.44-.4,1.29-.84,1.62-1.36,0-1.8.36-.84.71-1.28,1-.71.88-1.15,1.21-.81.75-1.25,1.09-1.15.3-1.59.64-.7.89-1.13,1.23-1,.57-1.39.91-.35,1.32-.78,1.67-.83.72-1.26,1.07-.86.67-1.29,1-1.24.22-1.66.57-.47,1.16-.9,1.51-1.14.35-1.56.7-1.06.46-1.48.81-.38,1.25-.8,1.61-.79.76-1.2,1.12l-1.23,1.11c-.41.36-1.08.43-1.49.8s-.86.69-1.27,1.06-.89.65-1.3,1-.78.77-1.18,1.14-1,.55-1.4.93-.75.81-1.15,1.19-.55,1-1,1.4-.89.66-1.28,1-1,.6-1.34,1-.57,1-1,1.38-1,.52-1.43.92-.56,1-.94,1.39-.95.62-1.33,1-.73.82-1.11,1.22-.49,1-.86,1.45-.52,1-.89,1.42-1.1.5-1.46.91-.38,1.12-.72,1.54-1,.62-1.32,1.05-.86.74-1.18,1.19-.44,1-.75,1.49-.33,1.1-.62,1.56-.57.94-.85,1.41-.63.89-.91,1.37-.55.94-.81,1.42-.93.76-1.18,1.25-.52,1-.76,1.47.17,1.28-.06,1.78-.78.85-1,1.36-.46,1-.66,1.51-.78,1-1,1.54c.15.57.74,1.15.9,1.71s.16,1.17.32,1.73.58,1,.74,1.6.29,1.12.45,1.68c.37.36.88.51,1.28.84s.37,1.26.8,1.54,1.34-.3,1.81-.08.65,1.12,1.15,1.27,1.1-.22,1.63-.15a10.57,10.57,0,0,0,1.51.09c.53,0,1.1.53,1.61.46a14.39,14.39,0,0,0,1.55-.45c.5-.13,1.07-.14,1.57-.32s1-.31,1.51-.52.59-1.18,1.06-1.42,1.12-.12,1.57-.37.94-.48,1.38-.75.83-.66,1.28-.93.85-.62,1.29-.89.8-.72,1.24-1,1.22-.09,1.69-.36.8-.81,1.28-1.08,1.15-.2,1.62-.48.57-1.2,1-1.48,1.11-.29,1.58-.56.77-.86,1.24-1.14,1.35.13,1.82-.15.93-.59,1.4-.87l1.4-.86c.47-.28.85-.71,1.32-1s.9-.63,1.37-.92l1.41-.85c.47-.29,1-.5,1.45-.79s1.08-.33,1.55-.61,1-.53,1.43-.81.61-1.11,1.08-1.4,1.22-.1,1.69-.38.52-1.26,1-1.55,1-.48,1.46-.77,1.27,0,1.74-.31.95-.55,1.42-.83.89-.65,1.35-.94.8-.8,1.26-1.08.81-.79,1.27-1.08,1.32.05,1.79-.24.7-1,1.17-1.24,1-.46,1.47-.75.68-1,1.14-1.27,1.18-.2,1.64-.49.74-.88,1.2-1.17.91-.62,1.37-.91.87-.69,1.33-1,1.14-.26,1.6-.55.71-.92,1.17-1.22,1-.47,1.46-.77.81-.77,1.27-1.07,1.14-.25,1.6-.55.68-1,1.14-1.26,1-.45,1.48-.75,1.06-.38,1.52-.67,1-.4,1.46-.69,1-.38,1.48-.67.67-.92,1.11-1.21,1.1-.29,1.54-.58.55-1.06,1-1.36,1-.45,1.43-.83l1.16-1.13c.38-.38.35-1.16.73-1.55s1.24-.3,1.61-.69.38-1,.71-1.35.38-1,.71-1.34,1.08-.34,1.41-.7.43-.81.72-1.15c0-.06.14-.62.19-.69.32-.44,1.14-.52,1.45-1s.38-1,.68-1.5.16-1.18.46-1.63.86-.73,1.16-1.18.9-.69,1.2-1.14.69-.83,1-1.27-.08-1.38.24-1.83,1.09-.55,1.42-1,.25-1.17.58-1.6,1.1-.53,1.44-1,.34-1.14.7-1.55,1.14-.43,1.52-.82.91-.59,1.31-1c.06-.06-.23-.47-.18-.52.25-.53.27-1.17.52-1.7s.95-.85,1.19-1.38.33-1.12.57-1.65c.51-.2,1-.3,1.55-.49s.8-1,1.32-1.16,1.12-.12,1.63-.3,1.16,0,1.67-.17,1.1-.16,1.62-.33.78-1.13,1.3-1.3,1.14,0,1.66-.16,1.12-.08,1.64-.24,1.07-.61,1.59-.76c.37.36.74.86,1.12,1.2s.66.79,1.06,1.11.92.46,1.34.75.81.61,1.25.86.69.92,1.15,1.14,1.22-.27,1.71-.09.87.57,1.36.71.88.75,1.38.86,1,.26,1.51.35,1.16-.75,1.67-.68.84,1.06,1.35,1.12,1.19-.26,1.71-.1,1.05.29,1.58.43.92.77,1.45.9,1.07.25,1.61.37,1.11,0,1.65.15,1,.44,1.49.55a7.93,7.93,0,0,0,1.51.61,11.18,11.18,0,0,0,1.65.22c.54.11,1,.62,1.53.74s1.22-.4,1.76-.28,1,.58,1.55.69,1.17-.18,1.71-.06.92,1,1.46,1.08,1.21-.36,1.75-.24.94.89,1.48,1,1.26-.58,1.8-.47,1,.51,1.56.63,1,.68,1.52.79l1.63.34c.54.12,1.08.2,1.63.32s1.14-.05,1.68.06,1.12-.2,1.63-.09,1,.42,1.5.53.93.69,1.44.81,1.09-.06,1.61.06.91.66,1.42.8,1.16-.26,1.66-.12,1,.52,1.45.68,1,.23,1.53.4,1.19.08,1.68.26c.39.38.43,1.24.83,1.62s1.08.43,1.47.8.94.59,1.33,1,.49,1.06.88,1.43.51,1,.9,1.41,1.18.33,1.57.71.95.58,1.34,1,.47,1.07.86,1.44,1,.56,1.36.93.65.89,1,1.26,1,.51,1.4.89.19,1.38.58,1.75,1.38.12,1.77.49.19,1.38.58,1.75,1,.51,1.41.88.87.66,1.27,1,.55,1,1,1.36,1.14.36,1.54.73.41,1.16.81,1.52.74.81,1.14,1.17,1.2.29,1.6.65.78.76,1.18,1.12.67.89,1.07,1.24.68.88,1.08,1.24.74.8,1.15,1.16,1.43,0,1.84.36.7.84,1.11,1.19.46,1.14.87,1.49,1.24.21,1.66.56.91.58,1.33.93.23,1.43.65,1.77,1.27.15,1.7.49.89.62,1.31,1,.48,1.16.91,1.49,1,.46,1.44.78,1.1.35,1.54.67.65.94,1.08,1.26,1.16.26,1.6.58.46,1.24.91,1.55,1.05.39,1.5.7,1,.44,1.47.74,1,.53,1.41.82.61,1.08,1.08,1.37,1.16.18,1.63.46,1,.54,1.42.81,1,.38,1.51.65.75.88,1.23,1.14.93.57,1.41.83.81.81,1.3,1.06,1.19.06,1.68.3.92.61,1.4.85,1.2,0,1.69.26.67,1.13,1.16,1.36l1.5.68,1.48.68c.5.23,1,.38,1.53.59s1.22,0,1.73.2c.28.25.22,1.05.55,1.27s1.25.08,1.69.38.61,1,1.06,1.32,1.34-.06,1.79.24.87.64,1.31.94.46,1.24.91,1.54,1.19.17,1.63.47.83.69,1.28,1,.86.65,1.31,1,.93.54,1.38.84.75.81,1.2,1.11,1.1.3,1.54.6.57,1.07,1,1.38.83.7,1.27,1,1.31,0,1.76.29.52,1.15,1,1.45,1,.43,1.46.73,1.14.23,1.59.53.73.84,1.18,1.14.81.72,1.26,1,.84.68,1.28,1,1.15.28,1.6.59,1.06.41,1.52.72.48,1.25.94,1.56.87.61,1.33.91.61.9,1,1.31,1,.62,1.35,1,.57,1,1,1.39.88.7,1.27,1.08.76.83,1.17,1.2,1.34.17,1.75.54l1.24,1.09c.42.36.88.66,1.3,1s.71.88,1.15,1.22.55.94,1,1.28c0,.52.8.87.86,1.4s-.14,1.07-.06,1.59-.41,1.13-.32,1.65.85.93.94,1.45-.17,1.1-.06,1.62-.27,1.13-.16,1.65,1.13.83,1.24,1.34-.44,1.19-.32,1.7.68.92.81,1.43-.22,1.15-.08,1.66.86.86,1,1.37.43,1,.58,1.47.25,1,.4,1.53,0,1.13.17,1.64a7.21,7.21,0,0,0-.78,1.38c-.18.48.11,1,0,1.58a7.31,7.31,0,0,0-.05,1.49,8.65,8.65,0,0,0,.15,1.49c.15.65.25,1.29.43,1.92s-.13,1.14,0,1.65.33,1,.46,1.52-.13,1.13,0,1.64.36,1,.49,1.52.84.87,1,1.39-.18,1.14,0,1.65.76.9.89,1.41-.2,1.14-.06,1.66.05,1.08.18,1.59.92,1.1,1.22,1.64a7.16,7.16,0,0,0,1,1.63c.05.54.24,1,.31,1.55s0,1.09.12,1.62.15,1.07.26,1.6.51,1,.63,1.52.55,1,.69,1.48-.3,1.2-.15,1.72.28,1,.45,1.56.21,1.07.39,1.58.28,1,.46,1.54.32,1,.46,1.57.65,1,.8,1.5.41,1,.56,1.56.09,1.12.24,1.65.35,1.05.51,1.58.49,1,.64,1.53-.26,1.23-.1,1.76.44,1,.6,1.54.72.94.89,1.46.27,1.07.43,1.6.65.95.82,1.47-.36,1.28-.19,1.8.18,1.11.36,1.63,1.08.8,1.26,1.32-.36,1.29-.18,1.81.47,1,.65,1.53.48,1,.67,1.52.55,1,.73,1.49.23,1.09.42,1.61.92.84,1.11,1.35-.24,1.27,0,1.79.58,1,.77,1.47,0,1.2.18,1.71.87.84,1.07,1.36.31,1.06.51,1.57.1,1.07.19,1.6.05,1.09.13,1.63.51,1,.59,1.55.43,1,.52,1.56-.39,1.16-.31,1.69.35,1.05.44,1.58.25,1,.34,1.59.56,1,.64,1.54-.23,1.14-.14,1.67.33,1,.42,1.58-.17,1.12-.08,1.66.59,1,.68,1.53.22,1.06.31,1.59-.22,1.14-.12,1.67.5,1,.59,1.55.14,1.07.23,1.6.22,1.07.31,1.6-.29,1.15-.2,1.68.54,1,.63,1.54.47,1,.57,1.55,0,1.09.13,1.63.49,1,.59,1.54-.42,1.18-.32,1.71.16,1.07.26,1.6.2,1.07.3,1.6.31,1,.4,1.58,0,1.1.08,1.63.26,1.06.36,1.59.15,1.07.25,1.6,0,1.1.11,1.64.82,1,1,1.54.17,1.3.5,1.75a6.57,6.57,0,0,0,1.24,1.33,6.13,6.13,0,0,0,1.56.77c.29.49.48.94.79,1.42s.82.84,1.13,1.31,1,.7,1.32,1.17.6,1,.93,1.43,0,1.3.37,1.77.48,1,.71,1.57.74,1,1,1.51.25,1.18.48,1.73.74,1,1,1.51,0,1.26.25,1.81.77.82,1,1.3.29,1,.5,1.51,1,.75,1.18,1.23,0,1.16.21,1.69-.1,1.19.08,1.71.61.95.8,1.47.39,1,.58,1.54,1,.81,1.15,1.32.05,1.17.26,1.67,0,1.23.22,1.72.65.93.9,1.41,1,.69,1.3,1.16-.07,1.37.24,1.82,1.22.47,1.57.88.45,1.06.84,1.44l.7,1.24c.24.41,1,.52,1.23.93s-.06,1.16.2,1.57.4,1.05.69,1.52.79.8,1.09,1.27.74.84,1,1.3.53,1,.82,1.44.9.74,1.2,1.2.31,1.12.61,1.58.83.78,1.13,1.24.66.88,1,1.34,0,1.35.28,1.81.87.75,1.18,1.2.4,1.06.71,1.52,1.07.61,1.38,1.06.41,1.06.72,1.52.71.85,1,1.31l.95,1.36c.32.45.83.77,1.14,1.22s.56,1,.88,1.41.18,1.23.49,1.68,1.07.6,1.39,1.05.43,1,.75,1.49.63.92,1,1.37.5,1,.82,1.45.89.72,1.21,1.17.55,1,.88,1.41.42,1.06.74,1.51,1.27.44,1.59.89.54,1,.87,1.42.16,1.25.49,1.7,1.13.54,1.46,1,.22,1.21.54,1.66,1.32.41,1.64.85.15,1.26.48,1.7,1.16.52,1.48,1,.29,1.16.61,1.6.39,1,.7,1.48,1.2.45,1.51.89.41,1,.72,1.46.84.71,1.15,1.15-.13,1.4.18,1.83,1.31.39,1.62.83.3,1.1.61,1.53,1.06.56,1.37,1,.53,1,.84,1.38.17,1.2.49,1.63.48,1,.79,1.41.79.76,1.11,1.19,1,.55,1.37,1,.7.8,1,1.23.73.78,1.07,1.2.47,1,.81,1.4.69.81,1,1.22.32,1.13.67,1.54.62,1,1,1.4,1.08.54,1.51.9.88.73,1.33,1.07.88.71,1.35,1,1,.6,1.44.9.83.81,1.3,1.11.93.65,1.41,1,1.12.33,1.6.64.92.65,1.39,1,1.07.44,1.52.78,1,.53,1.47.9.48,1.15.89,1.55,1,.52,1.41.91.44,1.1.81,1.5,1,.52,1.42.92.87.7,1.23,1.11.8.76,1.16,1.18.08,1.37.43,1.79,1.42.23,1.78.65.63.9,1,1.32.61.92,1,1.34.48,1,.83,1.44.43,1.09.79,1.5,1.29.31,1.66.72.19,1.32.56,1.71.92.65,1.31,1,1.08.53,1.48.9c.13.54.36,1.09.5,1.62s.16,1.1.29,1.63.55,1,.69,1.52.18,1.09.32,1.62-.22,1.2-.08,1.73.2,1.08.35,1.61.27,1.07.41,1.6,1,.86,1.14,1.39-.16,1.19,0,1.72.39,1,.54,1.55.45,1,.6,1.55-.39,1.25-.24,1.78,1.24.78,1.39,1.31.2,1.09.36,1.61-.16,1.2,0,1.72.51,1,.67,1.52-.18,1.2,0,1.72.44,1,.6,1.52,1,.83,1.13,1.35.46,1,.63,1.51-.17,1.19,0,1.71.65.93.82,1.44.17,1.09.34,1.61.1,1.11.27,1.63.64.93.81,1.44.75.89.93,1.4-.54,1.35-.36,1.86,1.05.81,1.23,1.32.36,1.06.44,1.59-.19,1.12-.11,1.66.19,1.06.27,1.6.22,1.05.3,1.59-.38,1.15-.29,1.69,1,.92,1.12,1.46-.64,1.2-.55,1.73.08,1.08.17,1.62,1.11.9,1.21,1.43-.12,1.12,0,1.65.05,1.09.15,1.62.48,1,.58,1.54,0,1.09.13,1.63-.1,1.11,0,1.64.07,1.09.17,1.62.77,1,.87,1.48-.54,1.21-.44,1.74.61,1,.72,1.51-.11,1.13,0,1.66.31,1,.42,1.56,1,.91,1.08,1.44.16,1.07.26,1.6-.08,1.12,0,1.65-.22,1.15-.11,1.67.24,1.06.35,1.59.41,1,.52,1.54.27,1,.38,1.58.48,1,.59,1.53-.35,1.18-.24,1.71.7,1,.82,1.48.44,1,.55,1.54.09,1.09.2,1.61.09,1.09.2,1.62-.23,1.15-.11,1.68,1,.89,1.12,1.42,0,1.1.1,1.63-.15,1.14,0,1.67.73.94.85,1.47.12,1.08.24,1.61-.15,1.14,0,1.66.77.94.89,1.47-.46,1.2-.34,1.73.78.93,1,1.39,0,1.28.29,1.69,1,.6,1.42.93,1.08.19,1.55.43.68,1.1,1.2,1.22,1.1-.22,1.63-.2,1.11.6,1.64.53,1-.66,1.47-.83a9.51,9.51,0,0,0,1.52-.3,8.64,8.64,0,0,0,2.14-.31c.43,0,.85,0,1.28,0s.89.24,1.33.22,1.07-.87,1.62-.9,1.17.73,1.73.69,1.07-.77,1.62-.81,1.17.61,1.72.57,1.11-.19,1.67-.24,1.1-.26,1.66-.3l1.67-.13c.56,0,1.1-.29,1.66-.33s1.1-.33,1.65-.37,1.15.38,1.71.34,1.06-.24,1.6-.28,1-.31,1.59-.35,1.07-.18,1.6-.22,1.11.3,1.64.26,1-.55,1.57-.6,1.14.75,1.68.71,1.05-.39,1.58-.44,1.11.36,1.65.32,1-.45,1.58-.5,1.09.08,1.62,0,1.08,0,1.62,0,1-.86,1.54-.91,1.13.58,1.67.53,1.06-.22,1.6-.27,1.07-.12,1.6-.16,1-.38,1.59-.43,1.06-.15,1.6-.19,1.08,0,1.62,0,1.09.14,1.63.09,1-.44,1.58-.49,1-.39,1.58-.44,1.13.6,1.67.55,1-.67,1.57-.72,1.12.37,1.66.32,1.11.15,1.65.1,1.06-.35,1.6-.4,1-.69,1.56-.75,1.08-.14,1.62-.19,1.15.62,1.69.57,1-.67,1.57-.73,1.13.37,1.67.31,1.06-.26,1.6-.32,1.09-.06,1.63-.11,1.08-.09,1.62-.14,1.09,0,1.63,0,1-.76,1.55-.82,1.16.62,1.7.56l1.62-.21c.54-.06,1-.77,1.55-.83s1.07-.19,1.61-.25,1.1.08,1.64,0,1-.36,1.59-.42,1.17.65,1.71.59,1-.87,1.53-.93,1.1,0,1.64,0,1.08-.09,1.62-.15,1-.37,1.59-.44,1.14.38,1.67.32,1-.38,1.59-.44,1.05-.37,1.59-.43,1.13.32,1.67.26,1.12.19,1.66.12l1.62-.21c.53-.06,1-.38,1.58-.45s1.09,0,1.63-.1,1.1.05,1.64,0,1-.89,1.52-.95,1.16.51,1.7.45,1-.59,1.56-.66,1-.37,1.59-.44,1.11.16,1.65.09,1.15.41,1.69.34,1-.94,1.51-1l1.61-.21c.54-.07,1.16.45,1.69.38s1.12-.06,1.62-.19.92-.7,1.4-.9a9.15,9.15,0,0,0,1.53-.51c.45-.29.48-1.07.86-1.44s1.31-.28,1.6-.73,0-1.16.23-1.67.79-.71.87-1.26c.49-.24.49-1,.93-1.29s1.29-.26,1.65-.68a8.68,8.68,0,0,0,.82-1.5,8.43,8.43,0,0,0,.94-1.46c.18-.51-.34-1.22-.28-1.77s.74-1.11.69-1.67-.54-1.05-.71-1.59S802.59,631.85,802.32,631.35ZM688.6,447.55c-.12.37-.39.84-.52,1.21-.21,0-.41.06-.62.06C687.8,448.46,688.28,447.91,688.6,447.55ZM217.2,39.16c.33-.37,1.05-.63,1.37-1s.34-1,.64-1.38.74-.67,1-1.07.15-1.08.41-1.5.8-.31,1.05-.73c0,.52.47.75.51,1.28s.13,1,.18,1.57-.37,1.1-.31,1.63.15,1,.22,1.57,0,1.06.12,1.59.21,1,.3,1.56-.09,1.1,0,1.62.74,1.39.85,1.9c-.41-.43-1.22-1-1.62-1.48s-.64-1-1-1.47-.33-1.31-.73-1.75-1.43-.32-1.83-.76S217.6,39.6,217.2,39.16Zm46.22,22.25c-.44-.39-.55-1.12-.94-1.53s-1.05-.63-1.42-1.07-.56-1-.9-1.51-1.07-.7-1.38-1.19,0-1.37-.24-1.88-1.11-1-1.37-1.49c.53-.31,1.16-.83,1.68-1.15s1.29-.23,1.81-.55,1-.68,1.53-1,1.08-.58,1.59-.92c.27-.18.32-.45.57-.65,0,.52-.34,1-.35,1.49s.86,1,.86,1.57-.05,1,0,1.57-.2,1-.18,1.57-.58,1.08-.55,1.61.91,1,1,1.51-.17,1.06-.12,1.58.23,1,.29,1.55,0,1.48,0,2C264.7,62.51,263.92,61.85,263.42,61.41Z"/><path class="cls-1" d="M457.56,618.57l.2-2-1-1.6-.42-1.77-.09-1.84-.79-1.69v-1.84l-.21-1.8-.86-1.7.64-1.93-.87-1.7-.35-1.78,0-1.83-.76-1.71.28-1.88-.15-1.81-.33-1.79-.59-1.73-.54-1.73-.21-1.81-.92-1.63.24-1.95-.49-1.76-.63-1.71-.52-1.75-.81-1.64-1.06-1.56-.88-1.63-.54-1.81-.85-1.66L444,566l-.8-1.69-1-1.55-.89-1.64-1.38-1.31-1.22-1.41-.8-1.7-.81-1.7-1.55-1.17-.7-1.79-1.53-1.17-1.34-1.32-.49-2-1.13-1.48-1.61-1.1-.94-1.61-1.32-1.33-.48-2-1.72-1-1.1-1.49-.52-1.91-1.26-1.38-1.49-1.22L419,531.5l-1-1.55-1.26-1.39-1.13-1.47-.47-2-1.28-1.37-1-1.58-1.32-1.33-1.23-1.41-1-1.6-1-1.59L407,514.85,406,513.32l-1.13-1.49-1.7-1-.57-1.93-1.82-.92-1.14-1.47-1-1.55-1.5-1.17-.88-1.69-1.31-1.33-.77-1.8-1.26-1.38-1.36-1.28-1.3-1.33-1.39-1.25-1.64-1-1-1.66-1.52-1.12-1.38-1.25-1.26-1.36L381,485.74l-1.16-1.49-1.67-.93-1.1-1.56-1.78-.8-.91-1.79-1.81-.75-1.29-1.35-1.69-.88-1.57-1-1.35-1.29-1.44-1.18-1.06-1.7-1.75-.76L361,469.08l-1.89-.51L358,467l-1.47-1.13-1.63-.89-1.66-.82-1.88-.44-1.54-1-1.23-1.59-1.81-.54L345,460l-1.54-1.05-1.66-.8-1.61-.92-1.77-.54-1.75-.6-1.66-.81-2-.63,2.05-.57,1.68-.87,1.66-.93,1.81-.58,1.47-1.21,1.74-.74,1.51-1.12,1.63-.92,1.67-.87,1.55-1.06,1.49-1.13,1.32-1.37,1.58-1,1.15-1.54,1.37-1.27,1.61-1,1.1-1.56,1.52-1.11,1.57-1.08,1.11-1.53,1.37-1.28.78-1.8,1.77-.95.8-1.76,1.34-1.33.62-1.86,1.15-1.46,1.26-1.41.74-1.74,1.71-1.15.23-2,1.4-1.36.54-1.83.68-1.75,1.46-1.37.86-1.67.31-1.92,1.21-1.52.36-1.88.15-1.94,1.25-1.53.53-1.8,1-1.65.25-1.9.34-1.85.45-1.82,1-1.66.2-1.89.2-1.89,1.05-1.65,0-1.93,1.09-1.65.65-1.76-.1-1.92.23-1.82.89-1.67.56-1.74.1-1.86.51-1.76.82-1.68.45-1.77.38-1.79.32-1.81-.31-1.94.72-1.71.86-1.68.4-1.79.17-1.83.54-1.76,0-1.87.61-1.74.23-1.82.48-1.77.43-1.78-.18-1.9.7-1.73.24-1.81.56-1.75v-1.87L401.1,330l.23-1.82.22-1.82-.2-1.9.66-1.76.6-1.78L402.4,319l.64-1.77.25-1.85.36-1.82.36-1.82.35-1.83.24-1.84.13-1.87.37-1.82.57-1.79.52-1.79.33-1.83.31-1.84.13-1.86.37-1.82.12-1.86.28-1.84.37-1.83.87-1.74.17-1.85.05-1.88.56-1.79.14-1.86.36-1.83v-1.88l.69-1.76.42-1.75-.38-1.93.9-1.66.58-1.73-.36-1.91.47-1.75.58-1.74.19-1.8.21-1.8.07-1.82.33-1.78.36-1.77-.11-1.84.37-1.78.9-1.7-.46-1.88.58-1.76.55-1.75.3-1.79-.38-1.86.43-1.78.09-1.81-.21-1.69-.72-1.5-.46-1.72-1.67-.82-1.25-1.47-1.36-1.27-1.77-.58-1.87-.16-1.86-.09-1.84.11-1.85.1-1.83.18-1.82.47-1.86-.09-1.81.48-1.91-.68-1.79.7-1.86,0-1.85,0-1.79.76-1.84.21-1.89-.49-1.85,0-1.77.94-1.92-.83-1.86.86-.45-1-.23-1.63-.44-1.66-.86.32L371,222l-1.32-1.08-1.27-1.17-1.23-1.21L366,217.24,364.85,216l-1.19-1.19-1.53-.86-1.3-1.05-1-1.5-1.39-1.08-1.31-.62-1.47,1-1.52.19-1.21.91-.12.21-1.81.35-1.88.18-1.77.49-1.77.52-1.76.53-1.73.64-1.61,1-1.78.45-1.91.07-1.58,1.11-1.68.8-1.91,0-1.85.25L328,219l-1.49,1.36-1.92.06-1.65.88-1.93,0-1.48,1.43-2.05-.38-1.66.84-1.68.8-1.81.4-1.67.79-1.95-.05-1.64.93-1.71.68-1.72.65-1.68.79-1.73.64-1.92,0-1.63.94-1.84.31-1.76.51-1.73.64-1.87.2L288,232.54l-1.94,0-1.83.33-1.47,1.45-1.92,0-1.83.31-1.56,1.16-1.91.08-1.82.37-1.51,1.29-2-.05-1.78.55-1.59,1-1.55,1.08-1.62.86-1.79.52-1.54,1-1.63.85-1.66.82-1.85.58L253.84,246l-1.5,1.06-1.17,1.42-1.3,1.28-1.29,1.32-.34,2-1.39,1.26-1,1.55-.52,1.75-.66,1.7-.74,1.71.55,2,.17,1.87-.66,1.94,0,1.91,1,1.8-.53,1.95.71,1.88,0,1.94L244,278l-.28,1.93-1.09,1.62-1.37,1.28-1.83.64-1.5,1-1.53,1-1.73.66-1.78.5-1.66.79-1.72.66-1.55,1.14-2-.06-1.6,1-1.48,1.18-1.79.34-1.64.75-1.95-.06-1.57.93-1.45,1.24-1.79.35-1.84.21-1.69.63-1.43,1.29-2-.08-1.51,1.08-1.66.7-1.69.63-1.81.33-1.65.75-1.32,1.37-1.37,1.07-1.24,1.21-1,1.43-.67,1.65,0,1.76.47,1.67.77,1.55.77,1.68.93,1.59,1.18,1.41,1.3,1.29,1.63.93,1.37,1.2,1.32,1.24L203,322.6l1.06,1.64,1.79.62,1.45,1.11,1.32,1.36,1.85.45,1.48,1.1,1.62.84,1.86.37,1.48,1.14,1.45,1.21,1.93.15,1.55,1,1.82.31,1.68.66,1.62.92-.09-.5-1.59.86L224,337l-1,1.64-1.47,1-1.72.66-1.51,1-1.57.88-.45.29-.22-.14-1.7.61-1.75.44-1.78.55-1.87,0-1.74-.71-1.84-.24-1.68-.74-1.52-1.08-1.47,1-1.06,1.39-1.64,1.08.17,1.92.1,1.7.3,1.73,1.08,1.79.07,0,0,.25.47,1.8,1.14,1.45.38,1.9,1.52,1.18.62,1.8,1.3,1.3,1.28,1.3.91,1.66,1.83.73,1.11,1.48,1.24,1-1.69.76-1.62,1.25L207,371.44l-2,.76-.69,1.9-1.66,1.07-.21,2-.94,1.56-.47,1.76-1,1.69.54,1.91-.1,1.82-.53,1.87.57,1.8.32,1.82,0,1.9.51,1.79.31,1.83.8,1.7.18,1.88L204,402l.22,1.87,1,1.61-.06,2,1.22,1.5.82,1.66.18,1.94,1.26,1.45.47,1.82.71,1.71,1.51,1.29.84,1.64.59,1.78,1,1.55.45,1.9,1.47,1.25,1.15,1.45.47,1.92,1.53,1.18,1,1.54,1.51,1.17,1,1.56,1,1.53.9,1.65,1.47,1.15,1.19,1.4,1.43,1.17,1.38,1.21,1.18,1.41,1.23,1.36,1,1.59,1.52,1.06,1.51,1.06,1.36,1.24,1.5,1.05,1.46,1.11,1.24,1.43,1.64.86,1.6.91,1.44,1.16,1.75.65,1.52,1,1.5,1.09,1.71.7,1.73.65,1.52,1.11,1.86.33,1.84.3,1.49,1.32,1.82.35,1.91.49,1.92.39,2,0,2,0,1.92.29,1.93.28,1.81.39-1.23,1.17-.6,1.77-1,1.53-1.27,1.34-.5,1.8-.73,1.66-1,1.48-1.3,1.35-.19,1.93-1.49,1.28-.26,1.88-1,1.52-.43,1.79-1.39,1.35-.26,1.86-.88,1.66-.39,1.87-1.24,1.51-.18,1.95L260,499.79l-.52,1.82L259,503.4l-.71,1.74-1,1.63-.44,1.83-.5,1.82-.07,1.94-1,1.65-.36,1.85-.53,1.8-.77,1.73-.45,1.82-.09,1.92-.77,1.73-.67,1.78-.29,1.93-.28,1.94-.47,1.9-.21,2-.23,1.94-.22,1.94-.53,2-1.3-1.36-1.19-1.39-1.33-1.22-1.45-1.09-1.52-1-1.21-1.35L240,531.56l-1.3-1.25-1.49-1-1.11-1.44-1.45-1.09-1.54-1-.93-1.62-1.36-1.19-1.41-1.14-1.26-1.3-.88-1.62-1.38-1.2-1.15-1.38-1.53-1.09-.47-1.92-1.9-.92-.61-1.91L219,509l-1-1.62-1.51-1.23-1.23-1.44-.89-1.69-1.09-1.53-.85-1.71-1.13-1.51L210,496.91l-1.25-1.42-.59-1.9-1.33-1.37-1.3-1.38L204.9,489l-1.2-1.45L202.5,486l-1-1.61L200.33,483l-1.12-1.53L198,480l-1.43-1.16.83-1.54.78-1.65,1.58-1.19.46-1.83.58-1.74.63-1.7.81-1.63.45-1.76,1.5-1.41.54-1.75-.4-2,.77-1.68.86-1.69.2-1.82-.48-1.91.18-1.8.32-1.79-.13-1.81.72-1.81-.45-1.81.52-1.86-.13-1.83L206,439l.15-1.87-.48-1.77-.51-1.76-.41-1.77-.45-1.77-.21-1.86-.78-1.66L202,425.12l-.37-1.82-.4-1.78.05-1.88-.39-1.79-.83-1.67-1-1.59.25-2-.58-1.7-.94-1.56-.78-1.61L196,406.28l-.49-1.84-1.34-1.25-1.28-1.28-1.35-1.24-1.58-.94-1.86-.24-1.71-.44-1.74-.24-1.76-.46-1.72.58-1.78.14-1.55.86-1.67.6-1.73.68-.82,1.75-1.51,1.17-1.27,1.43-.45,1.93L169.25,409l-.8,1.7-.45,1.85-.79,2.12-1.52-1.51-1.34-1.05-.7-.53L162,410.06,160.84,408l-1.18-1.39-1.65-.8-1.69-.61-1.51-1-1.73-.48-1.65-.41-1.31-.81-1.39-1.07-.35-1.87-.29-1.78.16-1.9-.47-1.75-.42-1.76-1-1.62-.32-1.79-.08-1.85-.73-1.68-.38-1.77-.36-1.78-.61-1.71-1.16-1.53-.19-1.84-1-1.56-.44-1.76-.78-1.64-.31-1.78-.92-1.55-.05-1.93-1.12-1.45-.66-1.67-1.18-1.42-.07-1.93-1.18-1.43-.43-1.76-.79-1.61-.09-1.84-.64-1.66-.65-1.67-.36-1.9-.91-1.78-.31-1.91-.7-1.81.26-2.09-.53-1.88-.81-1.79-1.25-1.57-.59-1.88-1-1.57-1.33-1.33-.87-1.64-.81-1.72L121.7,326l-1.78-.85-.84-1.77-1.73-.83-1-1.73-1.54-1.05L113,319.2l-1.34-1.32L110,317l-1.73-.67-1.65-.82-1.46-1.22-1.69-.75-2-.08-1.69-.69-1.78-.46-1.68-.59-1.81-.16-1.56.93-2,.25L90,314.27l-.79,1.59L87.94,317l-1.1,1.33L86,319.85l-.38,1.81,1,1.68-.33,1.92,1,1.53,1.48,1.06L90,328.92l1.65.75L93,330.91l1.23,1.35,1.86.51.9,1.74,1.57.91,1.58.93,0,.28,1,1.35.64,1.57,1,1.5,1.58,1.09.8,1.65.83,1.61.49,1.77,1.25,1.42.59,1.72.32,1.8.09,1.85.68,1.67.93,1.61-.17,1.9,1,1.59.4,1.76.6,1.7-.21,1.89.77,1.66.16,1.8.28,1.77.15,1.8,1,1.64.5,1.73v1.83l.67,1.69,0,1.84-.21,1.86.6,1.72.42,1.74.34,1.76.1,1.8.19,1.81.64,1.73v1.84l1.19,1.64-.53,1.93.78,1.71.68,1.73-.54,1.93.83,1.7.69,1.73-.51,1.92.35,1.78.3,1.79.61,1.74-.19,1.87.75,1.72.67,1.74-.17,2.05-.7-1.93-1.08-1.54-.88-1.64-.54-1.79-1.15-1.53-.46-1.82-.78-1.69-.32-1.88-1-1.61-.74-1.7-.54-1.78-.29-2-1-1.78-.47-2-.58-2-.74.4-1.45-.22-.58-.28-1.22-.2-1.09,1.24-2.59.62-1.08.13-1.89-.26-1.85.12-1.8.42-1.73.81-1.82.34-1.88-.16-1.78.62-1.89-.27-1.8.47-1.9-.47-1.84.61L84.05,402l-.15,2.06,1.34,1.51.5,1.82.59,1.78.76,1.72.53,1.81.35,1.89.71,1.74,1.22,1.53.44,1.86,1.07,1.65L92.53,423l.73,1.8.79,1.77.3,2,.92,1.71,1.24,1.56.89,1.73-.23,1.09L97,436.56v1.93l-.4,1.87,0,1.91.27,1.9.81,1.75.16,2,1.47,1.52-.31,2,.94,1.55,1,1.53,1.72.72,1.43.9,1.59.77,1.3,1.8,2,1.69,1.8,1.51,1.06.47.55,1.85,1.06,1.47,1.52,1.11,1.28,1.28,1.27,1.29,1.13,1.4.82,1.71,1.45,1.12,1.3,1.26,1.5,1,1.14,1.43,1.34,1.21,1.44,1.09,1.39,1.14,1.05,1.58,1.72.74,1.38,1.18,1.3,1.28,1.83.53,1.46,1.06,1.6.84,1.14,1.61,1.54,1,1.51.89,1.76.75,1.14,1.5,1.09,1.54,1.59,1,1.76.85,1.3,1.33,1.32,1.31.79,1.84,1.52,1.11,1.32,1.3,1.15,1.48,1.35,1.28,1.7.93,1.09,1.53,1.38,1.25,1.26,1.37.87,1.73,1.65,1,1.47,1.16,1.18,1.45,1.2,1.42,1,1.56,1.33,1.3,1.52,1.14,1.13,1.48,1.1,1.51,1.61,1.05.67,1.88,1.72,1,.62,1.92,1.47,1.19,1.67,1,.43,2,1.41,1.21,1,1.5,1.27,1.34,1.2,1.4.48,1.86.78,1.65,1.31,1.35.57,1.76.74,1.67,1.55,1.25.67,1.71.27,1.89,1.29,1.41,1,1.56.09,2,.65,1.74,1.17,1.5,1,1.59.63,1.75,1,1.59.89,1.61,1.15,1.47.88,1.61,1,1.52.27,2.06,1.63,1.1,1.31,1.32,1.18,1.41.7,1.88,1.6,1.06,1.17,1.48,1.51,1.14,1.23,1.43,1.63,1L221,589l1.53,1.1,1.32,1.33,1.58,1,1.69.94.88,1.79,1.36,1.28,1.7,1,.91,1.69,1.35,1.29,1,1.56.92,1.64,1.11,1.49,1.1,1.49,1.84,1,1,1.58.94,1.61.49,1.91,1.1,1.5,1.59,1.2.53,1.86.85,1.64,1.48,1.25.91,1.61,1,1.57.89,1.61.35,1.93,1.66,1.16.31,2,1.09,1.49,1.3,1.37,1.11,1.48.4,1.92,1.42,1.29,1.15,1.45L259,641l1.59,1.16,1.07,1.5.51,1.89,1.72,1,.74,1.74,1.12,1.47,1.16,1.43,1.18,1.42L269.4,654l1.42,1.19.66,1.91,1.78.84,1.07,1.54,1.41,1.17,1.73.71,1.53.91,1.52,1.05,1.85,0,1.75.24,1.77-.07,1.9.55,1.76-.59,1.81-.22,1.65-.76,1.55-1,1.72-.51,1.6-.82,1.79-.38,1.44-1.16,1.57-.89,1.82-.28,1.81-.52,1.66-.84,1.44-1.28,1.65-.85,1.54-1,1.78-.62,1.59-1,1.47-1.16,1.7-.76,1.53-1.06,1.52-1,1.69-.81,1.76-.72,1.55-1,1.17-1.55,1.56-1,1.71-.82,1-1.55,1.17-1.33.79-1.58.9-1.61-.69-1.79.37-1.84-.86-1.6-.2-.38,0-2-.68-1.86-1.11-1.62-.9-1.72-1.2-1.51-1.21-1.52-1.62-1.1-1.17-1.57-1.89-.76-.87-1.88-2.5-1.52,2.14.07,1.58,1.42,1.92.2,1.82.57,1.94.11,1.81.61,2-.19,1.78.79,1.83.62,1.89.27,1.85.13,1.79.6,1.83.27,1.89-.15,1.86,0,1.86,0,1.85.15,1.85.13,1.8.54,1.79.56,1.89-.19,1.75.91,1.9-.2,1.88-.1,1.77.7,1.88,0,1.71,1,1.95-.37,1.67,1.11,1.88.05,1.69.89,1.83.31,1.91.06,1.84.33,1.68.87,1.68.85,1.76.57,1.89.23,1.75.62,1.73.68,1.72.73,1.93.11,1.7.76,1.56,1.17,1.86.32,1.83.37,1.81.43,1.77.53,1.74.7,1.75.63,1.74.74,2-.4,1.79.5,1.77.7,1.91-.35,1.79.71,1.84.3,1.87-.17,1.85,0,1.86.09,1.89.3,1.76-1.08,1.86,0,1.83-.3,1.8-.41,1.78-.51,1.81-.4,1.8-.48,1.75-.65,1.48-1.2,2-.16,1.32-1.45,1.63-.88,1.28-1.4,1.68-.84,1-1.29,1-1.38.32-1.69-.31-1.68ZM377.1,364.7l-1.24,2,0,2.17-.47-.51.18-.63.18-1.62ZM272.73,631l1.11,2.54,1.64,1.23,1.14,1.63.82,1.83,1.41,1.73-1.35-1.5-1-1.46-1.48-1.08-.24-2-1.48-1.1Z"/><path class="cls-7" d="M669.1,326.36a8.66,8.66,0,0,0-1.77-4.52c-3.88-7.06-12.29-10.71-20.09-6.8-9.69,4.85-8.56,17.79-7.88,27,.71,9.68,8.15,19.34,18.84,14.58l0,0a7.48,7.48,0,0,0,8.42-5.58A68.36,68.36,0,0,0,669.1,326.36Z"/><path class="cls-7" d="M589.12,338.34c-1.67-6.8-5.68-12.12-10.13-17.19l-.21.07a19.45,19.45,0,0,0-17.37,3.17c-9,7.05-8.19,21.35-4.33,31,4.2,10.55,17.73,16.1,26.37,6.84a17.39,17.39,0,0,0,3.47-5.67,41,41,0,0,0,3.54-9.95A56.33,56.33,0,0,0,589.12,338.34Z"/><path class="cls-7" d="M626.6,349.86c-.51-.19-.65-1.2-1.07-1.4s-1.19,0-1.59-.24a15.58,15.58,0,0,1-1.37-.77c-.41-.32-.75-.77-1.1-1.1s-.08-1.31-.42-1.68-.55-.85-.92-1.22-.66-.76-1.07-1.11-.88-.51-1.32-.82-1.32.19-1.77-.09a3.81,3.81,0,0,0-1.22-.54,9.66,9.66,0,0,0-1.32-.58c-.45-.11-1,.24-1.5.15s-.77-1.24-1.26-1.31-1,.25-1.51.19-.93-.79-1.41-.82-1,0-1.5,0-1.06-.15-1.51-.13a8.86,8.86,0,0,0-1.58.19c-.44.1-.65,1.13-1.09,1.33s-1.15-.09-1.54.18a9.25,9.25,0,0,0-1.28.81c-.35.34.41,1.54.16,1.92a3.29,3.29,0,0,0-.44,1.09c-.12.46-1.29.78-1.22,1.25s1.33.79,1.44,1.28-.72,1.23-.58,1.72,1.2.67,1.38,1.15-.39,1.24-.17,1.71.3,1,.55,1.46,1.28.4,1.57.82-.14,1.34.18,1.75.92.56,1.27.94.93.49,1.31.85-.15,1.69.25,2,1.35,0,1.77.29.35,1.19.79,1.48,1.35.23,1.84.59.63,1.34,1.17,1.63,1.35-.33,1.83-.13,1.07,0,1.57.13a12.75,12.75,0,0,0,1.49.22c.52.09.9,1.17,1.42,1.2a15.45,15.45,0,0,0,1.62.32c.52,0,1-1,1.48-1.09a12.47,12.47,0,0,0,1.49-.37,14.45,14.45,0,0,0,1.37-.67c.49-.21.94-.34,1.4-.59s1.32.12,1.74-.19.54-1,.92-1.36,1.11-.43,1.44-.84c.2-.26.57-.33.71-.59a7.42,7.42,0,0,0,.77-1.26,6.3,6.3,0,0,0,.41-1.46,5.8,5.8,0,0,0,0-1.44c0-.47-.47-.82-.55-1.29s.95-1.25.76-1.69-1-.54-1.33-.91-.36-1-.75-1.3S627.06,350,626.6,349.86Z"/><path class="cls-7" d="M309.39,301.48c-5.33,1.72-11.58,3.92-15.37-1.46-4-5.69-6.59-12.77-9.66-19-4.54-9.24-18.35-1.14-13.81,8.07,4,8.22,7.49,18.68,14.57,24.87,8.16,7.13,18.89,6,28.52,2.94S319.23,298.32,309.39,301.48Z"/><path class="cls-7" d="M275.35,498.66c.53-.31,1-.77,1.49-1.07s.86-1,1.39-1.26,1.48.13,2-.18l1.59-.91c.52-.3,1.38,0,1.91-.35s1.08-.56,1.6-.87.31-1.89.84-2.2,1.27-.24,1.79-.55,1.07-.58,1.6-.89,1-.69,1.53-1l1.58-.92c.53-.31,1.67.44,2.2.14s1-.73,1.51-1,.79-1.07,1.31-1.38,1-.72,1.52-1,.88-.91,1.41-1.22,1.32-.15,1.84-.46,1.19-.38,1.71-.69.51-1.55,1-1.86.95-.8,1.48-1.1,1.26-.26,1.78-.57,1-.67,1.54-1,1.58.28,2.1,0,.65-1.3,1.18-1.6.89-.9,1.41-1.21,1-.72,1.52-1,1.79.65,2.32.35.69-1.24,1.22-1.54.57-1.44,1.1-1.74,1.15-.45,1.68-.75,1.62.37,2.15.06.65-1.3,1.17-1.61,1.66.43,2.18.13.91-.71,1.41-1,.29-1.68.78-2,.79-.74,1.23-1.14.58-1,1-1.37,1.17-.38,1.57-.77,1.69.1,2.08-.3-.17-1.72.21-2.12,1.48-.15,1.86-.55-.17-1.91.26-2.43,2.24-.57,2.65-1.1c-.51-.35-1.62-.78-2.12-1.14s-.44-1-.83-1.33-1.27.35-1.64,0c-.51.24-.77.5-1.28.73s-1.39-.37-1.91-.15-.46,1.76-1,2-1.31-.2-1.82,0-1.49-.68-2-.47-.64,1.61-1.2,1.83-1.2.19-1.75.4-.93.94-1.49,1.14-1.58-.86-2.14-.66-1,.73-1.56.92-1.13.36-1.69.55-1.1.47-1.66.65-.93,1-1.5,1.18-1.34-.3-1.91-.13-.89,1.19-1.46,1.35-1.52-1-2.09-.85-.9,1.33-1.48,1.48-1.27-.07-1.86.07-1,.87-1.63,1-1.22.14-1.81.27-1.3-.34-1.9-.23-1.18.28-1.77.39-1.05,1.07-1.65,1.17-1.39-1.07-2-1-1.15.46-1.75.54-1.27-.52-1.87-.45-1.14.67-1.74.73-1.11,1.33-1.72,1.37-1.29-1.16-1.89-1.13-1.2.25-1.8.27-1.2.79-1.81.8-1.2-1.41-1.81-1.42-1.2.37-1.81.35-1.23.56-1.84.53-.83.5-1.43.46c-.32.5-1.41,0-1.72.55s.14,1.49-.17,2-.5,1.1-.81,1.62-1.89.26-2.2.78.42,1.64.12,2.15-.67,1-1,1.52-1.52.53-1.81,1.05.08,1.42-.21,1.95-1.21.72-1.49,1.25.82,1.77.55,2.31-1.25.71-1.51,1.25-.63,1-.88,1.57.22,1.42,0,2-1.64.58-1.88,1.12.4,1.48.17,2-.48,1.09-.7,1.65-.67,1-.88,1.58-.4,1.14-.6,1.7-.65,1.05-.85,1.62-.16,1.22-.35,1.79-.41,1.13-.61,1.7-.92,1-1.11,1.53-.3,1.17-.49,1.74-.28,1.18-.48,1.75-1,.93-1.19,1.5.13,1.88-.07,2.45c.53-.29,1.48-.92,2-1.22s1.33-.09,1.85-.38.35-1.84.87-2.13l1.57-.89c.52-.29,1.37,0,1.89-.31s1.07-.54,1.6-.84,1.51.23,2-.07.36-1.8.88-2.09.78-1.06,1.3-1.36,1.28-.17,1.8-.47,1.52.23,2-.07S274.83,499,275.35,498.66Z"/><path class="cls-7" d="M569.93,437.06c-.17,0,.08.19-.09.21.18.57-.66,1.34-.48,1.91s1.65.73,1.82,1.3-.72,1.46-.56,2,.84,1,1,1.57.85,1,1,1.58-.68,1.22-.56,1.71.28,1,.4,1.5,0,1.06.19,1.48,1.2.76,1.4,1.18c.27-.7.75-1.54,1-2.25s-.5-1.67-.35-2.4c.09-.46.93-.83,1-1.34s.25-1.12.24-1.63c-.27-.53-1.33-.77-1.6-1.31s.57-1.6.3-2.14-.67-1-.92-1.53-1.19-.71-1.44-1.25A4.29,4.29,0,0,0,569.93,437.06Z"/><path class="cls-7" d="M657.32,507.31c-.63-.12-1.33.2-2,.06s-1.25-.29-1.88-.45-1.17-.57-1.79-.75-1.6.76-2.21.55-1-1-1.65-1.23-1.59.51-2.19.27-.69-1.76-1.29-2-1.1-.52-1.66-.78-1.77.81-2.32.53-.3-2.13-.85-2.42-1.33-.1-1.87-.4-1.53.2-2.07-.1-.36-1.87-.9-2.17-1.12-.53-1.66-.84-1.88.82-2.42.52-1.06-.62-1.6-.92-.55-1.58-1.09-1.86-.77-1-1.27-1.22-1-.38-1.55-.63-1.45.39-1.93.13-.38-1.51-.85-1.81-1-.89-1.55-1.3-1.62-.12-2.16-.55c-.52-.18-1.43.61-2,.42s-.5-1.81-1-2-1.08-.27-1.58-.5-1.22-.05-1.71-.31-.78-.86-1.25-1.16-1.05-.77-1.59-1.14-1.26-.49-1.79-.88-.93-.94-1.46-1.34-1.34-.41-1.86-.81-.84-1.06-1.36-1.45-.83-.44-1.19-.73c-.53-.33-1.25-.38-1.77-.73s-.53-1.44-1-1.81-.81-1-1.31-1.43-1.3-.41-1.79-.84-.9-.89-1.35-1.35-.88-.91-1.3-1.4-1.54-.47-1.94-1-.8-1.09-1.17-1.64-.36-1.37-.71-1.93,0-1.58-.31-2.14-2,0-2.29-.48.33-1.76,0-2.28-1.42-.57-1.77-1.1-.83-1-1.17-1.52.63-1.91.29-2.45-1.8-.38-2.13-.92-1.15-.81-1.47-1.36.51-1.77.19-2.32-1.08-1.7-1.39-2.26c-.24.65-.48,2-.76,2.67s.39,1.72.09,2.35-2.4.8-2.72,1.42c.26.53.86,1.41,1.12,1.95s.69,1,1,1.53,1.43.63,1.7,1.16-.19,1.43.08,2,.32,1.17.59,1.71.82.93,1.09,1.46.62,1,.9,1.56.74,1,1,1.49,1,.79,1.33,1.32,0,1.36.3,1.88,1.49.52,1.79,1-.48,1.67-.17,2.18.68,1,1,1.5.34,1.22.67,1.72,1.77.24,2.11.73.24,1.29.59,1.77.22,1.16.53,1.58.41,1,.74,1.43.45.88.78,1.3c.34.67,1.51.85,1.85,1.52s1.26.73,1.55,1.28.12,1.33.42,1.88.73,1,1,1.54.77,1,1.08,1.52.65,1.05,1,1.58-.57,1.78-.25,2.31,1.56.51,1.88,1,.07,1.42.4,1.95,1.44.55,1.78,1.06.25,1.31.59,1.83,1.31.6,1.66,1.11.46,1.18.82,1.68.4,1.24.76,1.74.05,1.51.43,2,1.92.09,2.3.58.78,1,1.16,1.43.35,1.3.75,1.78-.1,1.64.29,2.09.89.82,1.29,1.26,1.36.36,1.77.79,1,.11,1.39.53c.84,0,.88,1.53,1.38,2a2.76,2.76,0,0,1,1,1.83c.59.24,1.47.33,2.07.56s1,.93,1.61,1.14,1.28.22,1.88.42,1.55-.66,2.15-.47,1,1.11,1.59,1.29,1.46-.54,2.07-.38,1.11.72,1.73.87,1,1.12,1.67,1.24,1.49-1.1,2.12-1,1.15.68,1.78.77,1.32-.27,1.94-.18,1.17,1.83,1.8,1.91c.57-.17,1.08-1.06,1.64-1.26s1.41.34,2,.13.85-1.11,1.4-1.35.73-1.24,1.27-1.5,1.81.72,2.35.45c.6-.62.12-2.42.72-3,.45-.47,1.91.16,2.38-.22s.32-1.7.83-2a17.92,17.92,0,0,1,1.65-1c.56-.29,1-.45,1.59-.69.29-.51.76-.69,1.06-1.2s.14-1.29.44-1.8,1.95-.2,2.26-.71,0-1.34.36-1.84.24-1.24.55-1.74,1-.77,1.31-1.27.6-1.1.92-1.59c-.6.06-1.28-.26-1.89-.25s-1.15-.44-1.75-.49-1.15-.29-1.74-.38S657.9,507.41,657.32,507.31Z"/><path class="cls-7" d="M567.88,431.25c.83-.19,2,1.07,2.85,1-.26-.56-1.68-1.47-1.94-2s-.3-1.23-.56-1.79c-.1-.21.2-.74,0-.89s-.9.34-1.12.19c0,0,.48-.83.46-.84s-.3.42-.3.42.08-.81,0-.9c-.34-.12-.92.65-1.26.5.08.18.18,0,.26.23a3.11,3.11,0,0,0-.69.06c.23.53-.23,1.37,0,1.91s1.76.55,2,1.1S567.67,430.71,567.88,431.25Z"/><path class="cls-7" d="M114.85,440.41c-.75.07-1.5-.36-2.24-.22s-2.08.05-2.8.27c0,.49.38,2.29.39,2.78.68-.11,1.81,0,2.49-.12s1.63-.53,2.31-.63C115.1,441.91,114.73,441,114.85,440.41Z"/><path class="cls-7" d="M110.37,446.47c0,.59.1,1.43.13,2s.69,1.14.72,1.73.25,1.17.29,1.76-.6,1.22-.56,1.81-.17,1.68-.12,2.27a5.13,5.13,0,0,0,2.35-1,2.72,2.72,0,0,0,.78-1.93c0-.58-.09-1.15-.08-1.72s.42-1.13.44-1.71-.47-1.17-.43-1.74-.15-.95-.09-1.52c-.55.08-1-.4-1.51-.31S110.92,446.38,110.37,446.47Z"/><path class="cls-7" d="M107.06,426c.07.56.06,1.09.11,1.66s.07,1.12.1,1.69.36,1.11.37,1.69.19,1.13.17,1.7.43,1.19.37,1.76-.45,1-.19,1.39.48.88.89,1.09c0,.23.29.48.29.71.56-.19,1.19-.47,1.75-.61s1-.66,1.61-.75,1.24.62,1.81.57,1.16-.61,1.74-.63c.2-.65,0-1.48.28-2.12s.25-1.39.5-2,.64-1.23.91-1.86,1.53-.69,1.83-1.31c.39-.4-.22-1.63.2-2.07s1.57-.21,1.93-.65-.44-1.67-.21-2.16.41-.57.3-1.13c-.23-1.11.08-1.59-.11-2a4.56,4.56,0,0,1-.44-2.16c0-.77-.07-1.75-.14-2.51s.28-1.44.26-2.15,0-1.43,0-2.14a3.79,3.79,0,0,0-.58-1.88c-.37-.44-1.43-.11-2.08-.19-.34-.52-1.22-.8-1.61-1.29s-.24-1.38-.66-1.84-1.06-.69-1.5-1.13-1.07-.93-1.52-1.36c-.19-.63.3-1.64.1-2.27s-.21-1.32-.42-2-1.18-1-1.41-1.6.65-1.73.42-2.35c-.07,0-.83,1.26-.9,1.26-.72,0-.72-.2-1.45-.2-.2,0-.44-.1-.63-.11-.37,0-.55,0-.93,0a5.08,5.08,0,0,1-1.24.68c-.6.14-1.22-.41-1.82-.27-.06.59.11,1.06.07,1.66s-.76,1.16-.78,1.75.68,1.22.67,1.82-.43,1.18-.43,1.78,0,1.2.06,1.79,0,1.2,0,1.8.06,1.19.11,1.79.09,1.19.15,1.78.74,1.12.81,1.71-1.29,1.38-1.21,2,.72,1.11.81,1.7.11,1.2.22,1.79,1.32,1,1.44,1.55-1,1.44-.92,2,1.41.9,1.55,1.49S106.91,425.31,107.06,426Z"/><path class="cls-7" d="M375.66,225.89c-.3-.35-1.1-.19-1.33-.54l.56-.26c0-.05-1.44.67-1.46.62s.84-.83.77-1-.7.36-.74.32c-.28-.37.38-1.25.26-1.68-.36-.79-2.05-.91-2.53-1.75a4.49,4.49,0,0,0-1.09-1.25l-1.46-1.31c-.46-.41-.05-1.77-.5-2.19s-1-.72-1.46-1.14-1-.78-1.43-1.18-.67-1.28-1.21-1.59-1.68.48-2.21.16-1.1-.56-1.61-.89-.48-1.47-1-1.82-1.57.12-2.05-.25c-.07,0,.15-.11.09-.12-.53,0-.41.29-.86.37-.25.56-1.15.45-1.4,1s-.2,1.25-.45,1.81-1.55.65-1.8,1.21,1.16,1.85.91,2.41-1.53.66-1.78,1.22-.4,1.16-.65,1.72-.76,1-1,1.55-.93.91-1.19,1.46-.37,1.17-.64,1.72,0,1.37-.27,1.91.24,1.5-.05,2.05-1.48.69-1.77,1.23a3.29,3.29,0,0,0,1.11.27c.61,0,1.18-.86,1.79-.9s1.31,1.36,1.92,1.32,1.18-.82,1.79-.86,1.27.56,1.88.51,1.16-1,1.77-1,1.26.42,1.87.37,1.19-.48,1.8-.53,1.21-.27,1.82-.32,1.33,1.11,1.94,1.06,1.09-1.52,1.7-1.58,1.35,1.17,2,1.11,1.13-1,1.74-1.06,1.14-.89,1.75-1,1.35.27,1.81-.2c.39,0,.83.68,1.21.73a3.11,3.11,0,0,0,1.68-.55C375.65,227,375.83,226.08,375.66,225.89Z"/><path class="cls-7" d="M751.32,330.13c-.4.4-.81.81-1.23,1.2s-.48,1.2-.91,1.58-.88.74-1.33,1.11-1.54.29-2.07.74-.77,1.2-1.31,1.64-.6,1.49-1.16,1.9-1,.77-1.61,1.16-1.92-.22-2.39.22-.78,1-1.3,1.41a17.34,17.34,0,0,1-1.46,1.26c-.55.34-.76,1.38-1.35,1.66s-1.49-.13-2.1.08-1.5-.42-2.15-.24-.8,1.91-1.46,2c-.19.16-1.16-1.2-1.38-1.06-.52.35-.35,2-.92,2.17a11,11,0,0,1-1.89.5,13.71,13.71,0,0,1-1.92.44c-.61,0-1.22-1.24-1.84-1.29s-1.39,1.11-2,1-1.26-.31-1.85-.44-1.19-.2-1.77-.35-1.31-.95-2-1.05-1.4-.9-2.11-1.05c-.59.08-1.13,1.65-1.71,1.71s-1.22.15-1.81.17-1.21-1.19-1.79-1.2-1.26,1-1.84,1-.47-.43-1-.54c.27.55.08.58.36,1.12s1.07.83,1.34,1.38.35,1.19.61,1.74-.59,1.62-.33,2.17.84.95,1.09,1.5.31,1.18.56,1.74,1.06.86,1.3,1.42.33,1.18.56,1.75.13,1.25.36,1.82-.09,1.43.14,2.05.48,1.22.7,1.84.7,1.15.92,1.77,1.13,1,1.35,1.62.79,1.11,1,1.73-.2,1.73.24,2.16,1.75-.35,2.34-.07.66,1.84,1.28,2,1.4-.2,2-.12,1.26,1,1.85,1,1.26-.91,1.85-.93,1.17-.2,1.76-.26,1.27.49,1.86.39,1-1,1.58-1.13,1.16-.21,1.73-.38,1.19-.12,1.75-.33c.61,0,1.38.65,2,.52a15.79,15.79,0,0,0,1.75-.77c.67-.17.82-1.68,1.48-2,.5-.23,1.59.61,2,.29a10.46,10.46,0,0,0,1.49-.95c.38-.39-.34-1.94,0-2.4.59-.36,1.17-.93,1.73-1.33s1.14-.67,1.67-1.12,2.15.27,2.62-.24.15-1.55.51-2,1.13-.75,1.44-1.28.52-1.16.77-1.72,1.07-1,1.27-1.55.24-1.28.39-1.88.32-1.25.46-1.87-.27-1.38-.14-2-.35-1.36-.24-2,.78-1.16.88-1.79.56-1.21.65-1.84-1-1.42-.92-2.05,1.67-1.1,1.73-1.73.17-1.28.23-1.92-.75-1.35-.7-2,.4-1.26.43-1.9.49-1.26.52-1.9-1.42-1.32-1.41-2,1-1.49.73-1.89S751.84,330.28,751.32,330.13Z"/><path class="cls-8" d="M32.65,361.43c-.14-.73,0-1.5-.34-1.94s-1.46-.23-2.08-.4c-.41-.48-.34-1.68-.83-2.07a11,11,0,0,0-1.55-1.25c-.55-.28-1.56.52-2.18.32s-.92-1.51-1.56-1.61-1.35.77-2,.74-1.16-.16-1.77-.15-1.19-.14-1.79-.09-1.19.17-1.78.27-1.2.13-1.77.28-1.41-.3-2-.09a16.51,16.51,0,0,0-1.59,1c-.53.29-.83,1-1.29,1.38s-.58,1.09-1,1.54-1.68.28-2,.81.91,1.72.7,2.3-1.82.58-1.93,1.1.82,1.23.77,1.76.24,1.11.22,1.64,0,1.29,0,1.94-1,1.18-1,1.83.34,1.28.34,1.93-.74,1.31-.71,2-.2,1.32-.15,2,.71,1.24.78,1.88.83,1.21.91,1.84-.37,1.36-.29,2,0,1.06,0,1.59-.64,1.07-.63,1.59,1.3,1,1.32,1.55c0,.92-.84,1.83-.43,2.42.05.63,1.4,1,1.47,1.66s-.88,1.38-.78,2a17.38,17.38,0,0,0,.77,1.78,9.94,9.94,0,0,0,.9,1.63c.29.56,0,1.51.45,2a7.51,7.51,0,0,0,1.28,1.3c.48.3,1.43-.28,2-.06s.69,1.55,1.24,1.71,1.4-.71,1.94-.57.94.92,1.47,1.09,1.3-.05,1.87.06,1.23-.25,1.81-.22,1.22.62,1.8.55,1-.86,1.57-1,1.24,0,1.76-.34a9.21,9.21,0,0,0,1.38-1.21c.63-.16,2,.38,2.49-.13s-.62-1.85-.39-2.57,1.37-.85,1.54-1.43-.19-1.31,0-1.9-.34-1.32-.2-1.91.83-1,.95-1.64.17-1.19.29-1.78.16-1.2.25-1.8,1.36-1,1.44-1.62-1.12-1.36-1.05-2,.65-1.15.7-1.75,1.13-1.15,1.17-1.75-.71-1.26-.69-1.87-.1-1.22-.09-1.83.82-1.23.81-1.83-.36-1.22-.38-1.83.38-1.25.34-1.86-2-1.06-2.07-1.66.36-1.24.29-1.85-.56-1.13-.64-1.73,1.56-1.47,1.47-2.07S32.76,362,32.65,361.43Z"/><path class="cls-9" d="M110.5,323.67c-2.2-5.65-10.48-6.26-15.9-9A14.5,14.5,0,0,0,88.75,313a12.62,12.62,0,0,0-1.62-.35c-4.37-.67-9.31,1.73-9.43,6.69-.13,5.55,5.78,8.61,9.82,11.15q1.24.78,2.52,1.5c6,3.47,15,14.07,20.18,3.06A13.29,13.29,0,0,0,110.5,323.67Z"/><path class="cls-9" d="M62.5,321.67c-5.28-3-10.48-6.26-15.9-9A14.5,14.5,0,0,0,40.75,311a12.62,12.62,0,0,0-1.62-.35c-4.37-.67-9.31,1.73-9.43,6.69-.13,5.55,5.78,8.61,9.82,11.15q1.24.78,2.52,1.5c6.05,3.47,16.62,13.26,21.82,2.24C65.54,328.69,66.54,324,62.5,321.67Z"/><path class="cls-10" d="M25.32,312.94a14.71,14.71,0,0,0-9.12-9.43c-2.27-.88-4.19-.91-4.38-3.74-.2-3,2-6.08,3.42-8.53,3.91-6.68-6.46-12.72-10.36-6.05C0,293.52-3.71,306.14,6.45,312.46c3.15,2,7.93,1.52,7.69,6.24-.25,4.89-5.49,8.61-8.89,11.47-5.91,5,2.61,13.43,8.49,8.49C21.37,332.23,28.66,323.62,25.32,312.94Z"/><path class="cls-9" d="M685.05,411.43c-.93-12.87-9-18.35-20.17-22.86a147.55,147.55,0,0,0-39.08-9.63,5.44,5.44,0,0,0-3,.43c-12.41.11-23.23,7.44-31.21,17.05-.39.39-.78.78-1.16,1.18-6.22,6.65-12.14,16.32-10.73,25.77a21.43,21.43,0,0,0,12.93,16.15c7.85,1.15,16.62-.73,23.77-2.44,7.59-1.81,15.63-3.7,23.4-1.9a24.19,24.19,0,0,1,11.21,6.24,24.85,24.85,0,0,1,2.76,1.21,21.82,21.82,0,0,1,4,2.66,25.25,25.25,0,0,0,20.07-7C685.06,431.33,685.74,420.87,685.05,411.43Z"/><path class="cls-4" d="M29.76,230.89a4.65,4.65,0,0,0-2.69-2.07,4.57,4.57,0,0,0-3.47.46l-.91.7a4.5,4.5,0,0,0-1.16,2c-.3.79-.54,1.61-.84,2.41a4.53,4.53,0,0,0,.45,3.47,4.59,4.59,0,0,0,2.69,2.06,4.52,4.52,0,0,0,3.47-.45l.91-.7a4.56,4.56,0,0,0,1.16-2c.3-.79.53-1.61.84-2.41A4.58,4.58,0,0,0,29.76,230.89Z"/><path class="cls-3" d="M60.22,200.79c-3.83-.63-7,.42-10.84.32-4.14-.11-6.08-3.48-7.73-6.81C38,187,36.77,178.59,35.74,170.55c-2.11-16.35-3.26-32.78-2.4-49.26a269.68,269.68,0,0,1,7.3-48.69c1.89-7.86,4.09-15.65,6.53-23.36,1.09-3.43,6-23.49,10.53-22C62,28.74,63.81,22,59.56,20.54,51.8,17.91,48,25.49,45.83,31.5q-5.14,14-9.13,28.41a290.14,290.14,0,0,0-10.13,57.67c-1.34,19.75.05,39.6,3,59.16,1.29,8.54,3.24,17.81,8.31,25a14.32,14.32,0,0,0,7.33,5.82c4.41,1.34,8.73-.76,13.14,0S64.67,201.51,60.22,200.79Z"/><path class="cls-7" d="M749.41,335.61a29.34,29.34,0,0,0-7.13,1.34,3.7,3.7,0,0,0-1.06.57q-16.76,4.05-33.7,7.15c-4.43.8-2.55,7.55,1.86,6.75q20.64-3.75,41-8.93C754.08,341.53,753.41,335.33,749.41,335.61Z"/></g></g></svg>