<svg xmlns="http://www.w3.org/2000/svg" width="536.17" height="497.84" viewBox="0 0 536.17 497.84"><defs><style>.cls-1{fill:#a1bdff;}.cls-10,.cls-2{fill:#879ac6;}.cls-3{fill:#ff8b87;}.cls-4{fill:#ffe3b1;}.cls-5{fill:#778293;opacity:0.27;}.cls-6{fill:#474747;}.cls-7{fill:#dde7ff;}.cls-8,.cls-9{fill:#fff;}.cls-9{stroke:#000;stroke-linecap:round;stroke-miterlimit:10;stroke-width:2px;}.cls-10{opacity:0.58;}.cls-11{fill:#ffaecf;}.cls-12{fill:#bc849e;}</style></defs><g id="Layer_2" data-name="Layer 2"><g id="Layer_3" data-name="Layer 3"><path class="cls-1" d="M333.75,331.84l-54-32,8.34,136.86a8.56,8.56,0,0,1,2.39,4.65,17.27,17.27,0,0,1-1.23,6.26c-.14.41-.28.8-.43,1.2l2.93,48,50,1Z"/><path class="cls-1" d="M246,288.86c.45-4.35.92-8.7,1.45-13.05.2-1.68-1.76-2.75-3.17-2.41Q196.68,285,149.21,297.05c-8.38,2.14-16.78,4.34-24.53,8.26a2.63,2.63,0,0,0-.55.37l-2,.45c-10.69,2.36-6.16,18.69,4.52,16.39l1.34-.29c1.48,3.18,4.88,5.45,9.62,4.54L146.7,325a7.14,7.14,0,0,0,1.59,1.83c11.12,9.15,25.24,12.2,39.14,14.48,14.85,2.43,29.75,4.61,44.62,6.91,4.5.7,9.34-1.73,10.57-5.86a9.14,9.14,0,0,0,.44-9c0-1.71-.18-3.44-.29-5.1a2.77,2.77,0,0,0,.24-1c0-.11,0-.22,0-.33a2.5,2.5,0,0,0,2.1-2.37A174.29,174.29,0,0,0,246,298.6q.15-4.35.21-8.7A2.31,2.31,0,0,0,246,288.86ZM176,314a2.53,2.53,0,0,0,.09.55l-1.24-.21Z"/><path class="cls-2" d="M335.17,341.07c-.62-4.38-6.42-3.37-7.55.21a4,4,0,0,0-1.66.56c-1.11.64-2.17,1.34-3.2,2.07a4.14,4.14,0,0,0-3.18-.24,4.22,4.22,0,0,0-6-3.45A57.18,57.18,0,0,1,295,345.9a3.92,3.92,0,0,0-1.83-.41,17.79,17.79,0,0,0-2.36.18,4,4,0,0,0-7,1.29,41.07,41.07,0,0,0-1.53,7.32c0,.49.07,1,.08,1.47.11,2,.21,4,.36,6a75.88,75.88,0,0,1,1.18,14.85,79.44,79.44,0,0,1,1.55,15.54,4.49,4.49,0,0,1-.25,1.34c0,.89,0,1.79-.07,2.7.12.82.22,1.64.29,2.46,0,.26,0,.52.06.79a108.76,108.76,0,0,1,1.51,15l.49.29-.43.8.09,2.25a4.08,4.08,0,0,1,0,.61c.05,4.74.42,9.54.48,14.31,4.28-11.48,11.37-21.85,16.85-32.89,3.91-6.51,6.67-14.08,10.92-20.31,4.41-6.45,9.53-12.37,14.32-18.53C334.88,354.38,336.36,349.37,335.17,341.07Z"/><path class="cls-3" d="M260.78,115.82a12.23,12.23,0,0,0-4.89,1.53c-.91.51-2.72,3.6-2.14,4.49s3.18-.49,4.16-1c.28-.15.55-.3.84-.43h0l.09,0,.39-.13a9.41,9.41,0,0,1,.91-.25l.41-.08.11,0h.09"/><path class="cls-3" d="M253.31,111.71a2,2,0,1,0-4,0l.3,12.71a2,2,0,1,0,4,0Z"/><path class="cls-4" d="M307.8,103.21a5,5,0,0,0-1.5-3.32,124.36,124.36,0,0,0-1.94-22,5.24,5.24,0,0,0-.14-1.33l-.39-1.68c-.15-.83-.3-1.66-.46-2.5a6.35,6.35,0,0,0-.06-1c-.05-.32-.09-.65-.13-1a4.66,4.66,0,0,0,.43-1.91A24.14,24.14,0,0,0,302,59.27l-.06-.13c-1.81-9.43-4.07-19.23-8.1-27.6-2.16-4.48-5.82-7.14-10.28-9.11a67,67,0,0,1-13.21-7.36C262,8.92,254.37,2.23,243.79.58A35.1,35.1,0,0,0,227,2.05a5.59,5.59,0,0,0-4-2c-4.39-.19-7.77,1.92-10.93,4.77a83.25,83.25,0,0,1-8.74,6.87c-2.22.58-4.59.79-6.61,1.89-4.35,2.37-6.55,7.85-8.61,12.07a61.38,61.38,0,0,0-5.53,15.7c-2,10.61-1,21.47,5.47,30.4.75,1,1.54,2,2.36,3a4.13,4.13,0,0,0,.9,3.33c2.8,3.72,5.61,7.55,9.17,10.59a26.71,26.71,0,0,0,6.16,4,30.63,30.63,0,0,0,15,8c.53.11,1.07.19,1.6.26,3.5,2,7.11,3.56,10.48,3,4.06,2.32,8.24,5,12.59,6.73,8.69,3.45,18.18,2.55,27.26,1.57l16.78-1.81c4.63-.51,10.86,0,15-2.3a4.94,4.94,0,0,0,2.48-4.32Z"/><path class="cls-5" d="M306.33,107.21c.55-1.45,1.41-2.62,1.31-3.81-.13-1.46-1.15-2.85-1.48-4.31a5.43,5.43,0,0,1,0-2.27,2,2,0,0,0-1.42-.55,2.21,2.21,0,0,0-2.41-2.14c-6.79.73-13.58,1.52-20.38,2.21Q266.87,94.71,252,92a2.56,2.56,0,0,0-3.07,1.75,2.52,2.52,0,0,0,1.74,3.08q3.52.64,7.06,1.23c-4.73.11-9.46,0-14.18-.27l-.45-.1c-2.08-.61-4.13-1.36-6.19-2.05a33.35,33.35,0,0,0-4.34-1.75,1.81,1.81,0,0,0-.44-.09c-2.47-1.15-5-2.27-7.43-3.38a23.48,23.48,0,0,0-5.77-3.07,2.15,2.15,0,0,0-1.18,0c-.17-.09-.34-.18-.52-.26a73.49,73.49,0,0,1-10.4-9.08,2.25,2.25,0,0,0-3.29-.1l-4.85-1.78a2.28,2.28,0,0,0-2.36.63c-.59-.64-1.18-1.27-1.74-1.92A2.5,2.5,0,1,0,191,78.3a102.64,102.64,0,0,0,10.41,10.34,2,2,0,0,0,.3.36c4.1,4.14,9.37,6.68,14.8,8.58h0a29.13,29.13,0,0,0,3.29,2c5.91,3,12.43,4.64,18.71,6.61a2.25,2.25,0,0,0,1.36,0l0,0a25.67,25.67,0,0,0,10.34,5.23,37.42,37.42,0,0,0,7.38.9,2.11,2.11,0,0,0,2,1c9.73-.72,26.14-2.45,35.14-3.45,5.5-.5,4.88-1.31,10.39-1.56a2.57,2.57,0,0,0,1-.24A3.49,3.49,0,0,1,306.33,107.21Z"/><path class="cls-5" d="M198.65,37.24a17.74,17.74,0,0,0,2.43-4.84c0-2.1,0-4.19-.14-6.28a2.15,2.15,0,0,0-.81-.13,2.55,2.55,0,0,0-2.5,2.5q0,.32,0,.63c0,.05,0,.25,0,.36a9.05,9.05,0,0,1-.24,1c-.05.15-.1.29-.16.44s-.09.22-.14.32a9.94,9.94,0,0,1-.59,1l-.15.21c-.12.15-.25.3-.38.44s-.55.54-.84.8l-.06.06-.1.06a6,6,0,0,1-.53.34l-.55.31c-.06,0-.45.18-.35.16-.33.11-.66.22-1,.3l-.23.05-.46,0c-.86,0-1.72,0-2.58-.08a8,8,0,0,0-5.82,1.63,1.34,1.34,0,0,0,0,.2,8.87,8.87,0,0,1-.2,1.37,12.92,12.92,0,0,0,3.34,1.51c.43.12.87.21,1.32.29l.25,0c.9,0,1.81.07,2.71.1a11.22,11.22,0,0,0,5.94-1.43A11.46,11.46,0,0,0,198.65,37.24Z"/><path class="cls-1" d="M212.93,331.32c-.71.62-1.43,1.23-2.15,1.83q2.06-.48,4.11-.93c.14-.23.28-.45.41-.68A6.3,6.3,0,0,1,212.93,331.32Z"/><polygon class="cls-1" points="480.48 210.71 468.44 176.56 446.65 147.78 414.06 132.66 378.79 124.59 344.77 124.06 310.78 122.61 276.8 120.89 242.77 120.11 208.71 120.07 174.75 118.03 140.75 117.04 109.4 126.04 84.2 147.62 70.02 177.67 59.89 209.13 55.66 241.95 51.72 282.4 47.63 323.08 81.72 328.18 115.68 333.48 149.48 339.89 183.76 343.06 176.25 340.91 143.37 305.54 142.35 305.58 140.52 304.1 133.42 297.24 108.7 290.01 88.27 271.01 87.11 267.42 82.58 263.38 82.5 255.93 82.84 209.17 86.39 191.96 88.22 188.45 89.38 185.68 107.58 147.22 142.84 124.4 193.66 133.25 228.22 171.89 241.28 213.24 247.13 256.26 247.53 277.97 245.63 280.27 246.17 288.53 245.29 291.42 242.07 339.85 238.36 348.15 237.46 346.31 238.57 346.32 237.4 352.22 243.71 352.75 278.8 349.99 313.98 347.81 349.12 345 384.35 343.42 419.42 339.83 454.54 336.79 490.19 335.59 488.86 293.33 485.78 251.92 480.48 210.71"/><path class="cls-6" d="M201.45,240.88c-.06.11-.1.21-.17.32-.51.78-1,1.56-1.57,2.33,1.46-.83,2.95-1.61,4.51-2.32A5.88,5.88,0,0,1,201.45,240.88Z"/><path class="cls-6" d="M136.64,243.53c-1-6.86-2-13.72-3.21-20.54.07,7.19.44,14.4.81,21.6C135.06,244.26,135.86,243.91,136.64,243.53Z"/><path class="cls-6" d="M120.72,260.55c-.6-1.74-1.23-3.47-1.86-5.2a18.55,18.55,0,0,1-2.51-1A44.26,44.26,0,0,0,120.72,260.55Z"/><path class="cls-6" d="M165.63,288.2c0,.12.09.23.14.35a5.92,5.92,0,0,1,1.78.59,4.51,4.51,0,0,1,.64-.26c2-2.84,4.06-5.62,6.19-8.37-2,2.23-4.13,4.38-6.28,6.38A5.06,5.06,0,0,1,165.63,288.2Z"/><path class="cls-6" d="M144.78,178a39.76,39.76,0,0,1,3.65-2.57v-.09c-.57.08-1.15.17-1.72.28C146.06,176.4,145.42,177.19,144.78,178Z"/><polygon class="cls-2" points="49.58 318.8 52.33 320.46 56.34 317.33 82.92 312.49 106.64 308.77 129.87 302.79 153.29 297.67 176.75 292.73 199.34 287.1 222.15 282.32 240.31 276.42 247.29 273.48 246.14 265.43 246.19 242.7 242.01 220.38 236.11 198.54 227.97 177.52 217.07 157.79 201.85 141.19 183.53 127.88 161.72 121.67 139.21 120.04 114.13 123.16 92.65 136.84 76.47 156.43 65.83 179.42 56.84 203.24 53.98 228.58 53.8 251.56 51.16 274.39 48.93 297.25 46.96 320.27 49.58 318.8"/><path class="cls-3" d="M148.75,61.84s7-4,18-9c9.76-4.43,29.76-11.23,34.14-12.71a4.66,4.66,0,0,1,1.93-.22,22,22,0,0,1,8.93,2.93c5,3,7,10,7,16s1,16-7,23c0,0-2,2-9,0s-45-10-50-11-9.61-1.77-8-5C145.75,63.84,148.75,61.84,148.75,61.84Z"/><path class="cls-3" d="M260.77,119.84a10.58,10.58,0,0,1,1.78,0h.09l.45.1a5.65,5.65,0,0,1,.8.24l.11.06.34.19.1.06,0,0,.25.23c.16.17.3.34.45.52s.22.3.27.37a9.43,9.43,0,0,0,2.27,2.4c.51,1.59,1.45,3.08,2,4.66a25,25,0,0,1,1.29,6.51c.17,2.55,4.17,2.57,4,0a29.47,29.47,0,0,0-1.16-6.72,28.49,28.49,0,0,0-1.11-3,29,29,0,0,1-1.25-2.79,28.56,28.56,0,0,1-.72-6.66,70.91,70.91,0,0,1,0-7.29c.12-2.58-3.88-2.57-4,0a74.26,74.26,0,0,0,0,8.57,7.32,7.32,0,0,0-2.15-1.11,10.06,10.06,0,0,0-3.86-.39"/><path class="cls-5" d="M243.92,27.85a2.57,2.57,0,0,0-2.5-2.5,2.52,2.52,0,0,0-2.5,2.5,7.08,7.08,0,0,1-2.51,6.4c-1.8,1.56-4.38,3.43-6.84,3.54-5.64.26-9.14-5.45-11.69-9.63a2.33,2.33,0,0,0-2.77-1.07c.16.72.33,1.45.53,2.16a52.48,52.48,0,0,0,2.11,6.19,13.87,13.87,0,0,0,2.43,3.67c2.79,2.47,6.14,4.07,10.19,3.61,3.61-.41,7.06-2.68,9.73-5.07A11.71,11.71,0,0,0,243.92,27.85Z"/><polygon class="cls-1" points="243.4 353.88 215.86 382.33 184.95 407.79 147.99 423.37 108.85 432.21 76.73 431.99 44.66 429.81 15.91 416.24 2.72 389.93 19.4 352.42 50.73 323.84 89.11 329.91 127.51 334.75 165.87 339.85 204.24 344.9 242.9 348.26 243.4 353.88"/><polygon class="cls-7" points="242.98 347.42 215.5 378.05 182.8 400.86 147.15 418.87 107.84 427.06 75.73 426.9 43.83 423.92 13.83 412.76 0 384.78 19.73 348.52 49.75 320.37 88.41 325.2 126.85 332.07 165.67 336.43 204.28 342.05 242.98 347.42"/><circle class="cls-8" cx="228.75" cy="24.84" r="14"/><path class="cls-8" d="M196.17,13.75a12.7,12.7,0,0,0-3.9,1.77,23.32,23.32,0,0,0-6.68,8.16,31.18,31.18,0,0,0-2.24,4.75,13.31,13.31,0,0,0-.54,5.29c.09,1.38.23,2.77.44,4.15a14.16,14.16,0,0,0,3.88.56,14,14,0,0,0,9-24.68Z"/><path d="M239,21.74a9.12,9.12,0,0,0-2.6-2.43,4.77,4.77,0,0,0-3.73-.6,2.85,2.85,0,0,0-1,.05,3.12,3.12,0,0,0-1.87,1.43A7.73,7.73,0,0,0,229,23.5a4.76,4.76,0,0,0,1.14,3.56,4.55,4.55,0,0,0,2.61,1.41,5.46,5.46,0,0,0,3.48-.56,6.7,6.7,0,0,0,2.32-2.2C239.36,24.56,239.89,23,239,21.74Z"/><path d="M198.59,23.07a4,4,0,0,0-1-2.36,3.68,3.68,0,0,0-2.53-1.08,5.68,5.68,0,0,0-3.21.65,4.47,4.47,0,0,0-2.36,2.83,4.16,4.16,0,0,0,1,3.86A2.93,2.93,0,0,0,191,28a3,3,0,0,0,2.71,1.37,4.5,4.5,0,0,0,2.52-1.11,4.14,4.14,0,0,0,.61-.42,3.78,3.78,0,0,0,1.67-2.5,5.18,5.18,0,0,0,.07-1.11A4.26,4.26,0,0,0,198.59,23.07Z"/><line class="cls-9" x1="217.25" y1="64.34" x2="144.75" y2="66.84"/><path d="M208.2,43.06h-.13c-3.22,0-3.22,5,0,5h.13C211.42,48.06,211.43,43.06,208.2,43.06Z"/><path class="cls-10" d="M376.11,125.22A86.35,86.35,0,0,0,360,124.7a38.68,38.68,0,0,1-10.48-.08c-2.43,1.06-3.85,4.49-1.46,6.49,4.88,4.09,6.31,10.19,8.57,15.89a95.13,95.13,0,0,0,8.1,15.82q1.46,6.88,3.56,13.58a.19.19,0,0,0,0,.07c.06,25.7,6.55,51.66.55,77.06a3.75,3.75,0,0,0,1.75,4.32c-.1,1-.19,2.09-.27,3.13-.42,5.17,7.47,5,8,0l.87-8.38a42,42,0,0,1,3.16-11.45,3.49,3.49,0,0,0,.53-.87l.87-2.09a3.12,3.12,0,0,0-.11-2.81,67.56,67.56,0,0,1,5.06-15.8,4.07,4.07,0,0,0,.22-2.68,21.16,21.16,0,0,0,2-4.41c2-6.62-.16-14.26-1.13-20.88a434.65,434.65,0,0,0-8.18-43.45c2.93.82,9.83.39,11.37.44,4,.13,7.92.15,11.88.11a4.07,4.07,0,0,0,4-4,41.2,41.2,0,0,0-3.4-15.9C395.67,127.32,386,126.23,376.11,125.22Z"/><polygon class="cls-4" points="373.96 272.24 400.87 279.01 411.51 247.09 420.44 214.75 431.3 183.02 440.16 150.66 450.35 118.07 484.74 127.89 518.8 137.09 536.17 104.72 532.84 101.34 501.25 91.34 468.98 84.2 436.32 75.55 424.13 108.92 413.64 140.2 403.91 171.69 393.52 202.97 383.04 234.22 373.02 265.69 373.96 272.24"/><path class="cls-6" d="M220.12,205a.89.89,0,0,0,.4-.39A62.1,62.1,0,0,0,232.77,228a45.82,45.82,0,0,0,13.9,11.07c1.14.58,2.15-1.15,1-1.73-10.4-5.3-17.9-14.78-22.46-25.36-5.45-12.61-6.48-26.65-6.17-40.24.07-3.41.31-6.81.47-10.21-.25-.54-.49-1.09-.75-1.63-.47-.34-.92-.7-1.37-1.07v.85a1,1,0,0,0,.26-.16,4.26,4.26,0,0,0-.07.44c0,.39-.05.78-.08,1.18,0,.78-.09,1.56-.13,2.35-.1,1.73-.18,3.46-.24,5.18-.12,3.39-.18,6.77-.11,10.15a109.79,109.79,0,0,0,1.93,19.4c.34,1.75.75,3.48,1.22,5.21a1,1,0,0,0-1.07-.12l-8.37,4a17.34,17.34,0,0,1,1.06-2.11,1,1,0,0,0-.6-1.47,20.31,20.31,0,0,1-12.78-16.91,1,1,0,0,0-1.27-1l-1,.22q3.93-7.38,7.93-14.74,4.32-8,8.73-15.9c.63-1.13-1.1-2.14-1.73-1q-8.88,16-17.47,32.18c-5,1-10.12,1.67-15,.29A14.92,14.92,0,0,1,169.3,180c-.16-.54-.32-1.08-.5-1.62A59.48,59.48,0,0,1,166,167.68a.94.94,0,0,0,.27-.9c-.1-.43-.19-.86-.28-1.28a119.59,119.59,0,0,0,13.59-3.78,120.44,120.44,0,0,0,25.56-12.39c1.08-.69.08-2.42-1-1.73a118.83,118.83,0,0,1-39.36,16.12,1.08,1.08,0,0,0-.31.07c-2.52.53-5,1-7.61,1.35A223.81,223.81,0,0,1,130,167.37c-8.79.2-17.48-.71-25.6-4.24l-4.17-1.84c-1.52-.86-3-1.67-4.6-2.46a28.52,28.52,0,0,1-3.13-.88,1.53,1.53,0,0,0-.27.3L91,157.9a87.16,87.16,0,0,0-14-2.23,4.5,4.5,0,0,1-.15.73,7.33,7.33,0,0,1-.48,1.2l0,0a87.46,87.46,0,0,1,13.39,2c.94.23,1.86.5,2.78.79a.68.68,0,0,0,0,.19,2,2,0,0,1,.34.14,13.08,13.08,0,0,1,5,5.41l.29.58,5,5.17c3.2,3.34,6.49,6.68,8.67,10.79,4.24,8,4.32,17.92,3.33,26.7a86.38,86.38,0,0,1-7.35,25.86l-1.53.09c-1.28.08-1.29,2.08,0,2l.56,0A133.75,133.75,0,0,1,93.64,259a257.05,257.05,0,0,1-17.83,21.16q-2,1.14-3.87,2.39c-8.66,2.93-17.08,7.07-23,14.2h0a9,9,0,0,1-.22,2.19.8.8,0,0,0,1.14-.18c5.36-6.8,13-10.87,21-13.74a.83.83,0,0,0,1,0l.94-.62.84-.28a.87.87,0,0,0,1.29-.05l.46-.49c4.29-1.32,8.65-2.45,13-3.54a96.06,96.06,0,0,1,17.39-3.1,39.42,39.42,0,0,1,17,2.41c5.23,2,10.06,5.09,14.81,8,9.23,5.73,18.16,12.17,25.44,20.31a59.15,59.15,0,0,1,13.33,23.72c0,.23,0,.47,0,.71a.91.91,0,0,0,.36.73,47.73,47.73,0,0,1,.91,5.19,8.1,8.1,0,0,1,1,0,14.67,14.67,0,0,1,2,.36,26.39,26.39,0,0,1-.68-5.79,68.17,68.17,0,0,1,3.64-39.21,65.53,65.53,0,0,1,32.11-34.63,68.3,68.3,0,0,1,14.21-5c5.29-1.25,11-2.22,16.29-.36,1.21.43,1.74-1.5.53-1.93-4.66-1.65-9.66-1.17-14.43-.26a69.57,69.57,0,0,0-13.47,4,67.66,67.66,0,0,0-22.09,14.57,70,70,0,0,0-18.83,35.88q-.18-13.61-.19-27.22,0-6.19,0-12.41a28.86,28.86,0,0,1,26.72-11.49c.56.08,1.35-.24,1.26-1a22.06,22.06,0,0,1,4.86-16.46,166.38,166.38,0,0,0,17.26,5A72,72,0,0,0,244.47,244a1,1,0,0,0,0-2c-11.25.18-21.88-2.91-32.43-6.43a21.09,21.09,0,0,1,4.8-3.62,1,1,0,0,0,0-1.73c-6.25-4.46-8.9-12.89-7-20.2Zm-42.79-16.4c4.88,1.58,10,1.15,15.06.24q-6,11.3-11.84,22.65c-1.94,3.79-3.86,7.59-5.79,11.39L173,203.77c-.43-4.45-.77-8.92-1.33-13.35-.25-1.9-.6-3.77-1-5.61A18.62,18.62,0,0,0,177.33,188.64Zm-42.94,69.18a191.77,191.77,0,0,0,20.13-12.75c5.25-3.75,10.37-7.67,15.45-11.65-3.21,5.78-7.32,11.11-10.65,16.78a161,161,0,0,0-8.82,17.38,12.69,12.69,0,0,0-4-5.52c-3.67-2.95-8.41-3.64-13-3.76Zm-2.34-1c2.46-3.83,4.62-8,4.65-12.6a13.17,13.17,0,0,0-3.21-8.91A220,220,0,0,0,157,231.61c4.65-1,9.25-2.24,13.77-3.69h.75c.06.53.12,1.07.17,1.6-11.58,9.11-23.3,18.13-36.16,25.37C134.39,255.55,133.22,256.18,132.05,256.79Zm19.08,14.44c1.07-2.61,2.2-5.2,3.41-7.75a179.37,179.37,0,0,1,12.9-22.32c1.66-2.49,3.27-5,4.7-7.6,1.06,10.23,1.92,20.49,2.52,30.77a1,1,0,0,0,1.1.93v.17l-.2.28a17.78,17.78,0,0,0-13.61-.23,40,40,0,0,0-10.83,6.5C151.14,271.73,151.13,271.48,151.13,271.23ZM172,225.91h-.9a.85.85,0,0,0-.57,0h-.72a.9.9,0,0,0-.81.48c-12.07,3.74-24.55,5.76-37.11,7.05,4.46-4,6.24-10.22,6.12-16.16-.17-8.34-3.92-16.07-6-24a1,1,0,0,0,.44.13c.49,0,1,.05,1.49.08a100.82,100.82,0,0,0,8.79,9.11C147.64,207,153.3,210,159,213.12c5.19,2.85,10.48,6,13.83,10.95,0,.45.09.91.13,1.36Zm-2.66-37.33c.71,4.45,1,9,1.43,13.45s.87,9.11,1.3,13.67c.15,1.55.29,3.1.44,4.65-6.83-7.66-18.06-10.87-26-17.18a80.09,80.09,0,0,1-9.86-9.63,54,54,0,0,0,19.85-3.24c4.56-1.74,9.06-4.64,11-9.1A52.68,52.68,0,0,1,169.35,188.58Zm-54.64-20.22a71.51,71.51,0,0,0,12.74,1,215.5,215.5,0,0,0,27-1.93c3.15-.4,6.28-.9,9.39-1.52a47.32,47.32,0,0,0,2.64,11.92.54.54,0,0,0,0,.1c-.76,5.83-6.74,9.2-11.79,10.88a56.25,56.25,0,0,1-19.77,2.66c-1.24-1.43-2.47-2.87-3.7-4.3a124.36,124.36,0,0,0-16.1-15.86c-1.87-1.5-3.8-2.93-5.76-4.31A46.24,46.24,0,0,0,114.71,168.36Zm2.11,43.76c1.3-8.94,1.51-18.85-1.87-27.37-1.9-4.8-5.1-8.69-8.61-12.39s-6.76-7.08-10.15-10.6c1,.38,2,.79,2.92,1.21A112.35,112.35,0,0,1,128,186.56q2.12,2.41,4.2,4.86a.86.86,0,0,0-.68.93,1,1,0,0,0-1.5,1.11c2,7.55,5.53,14.87,6,22.74.36,6.14-1.31,13.07-6.64,16.75a1.23,1.23,0,0,0-.46.78q-4.12.39-8.25.69c-3.52.27-7,.5-10.57.72A89.43,89.43,0,0,0,116.82,212.12Zm-8.35,26.52.66-1.44c7.23-.45,14.48-.94,21.7-1.65,2.83,2.08,4,5.81,3.85,9.31-.28,5.13-3.45,9.67-6.26,13.77q-6.82,3.31-14,5.94c-7,2.61-14.16,4.9-21.17,7.56-4.15,1.57-8.25,3.29-12.23,5.26C91.66,265.57,101.58,253,108.47,238.64ZM142.34,288a145.38,145.38,0,0,0-15-8.85,40.64,40.64,0,0,0-16.84-4.32,71.12,71.12,0,0,0-17.73,2.09q-6.36,1.43-12.65,3.19c10.56-5.5,22.11-9,33.28-13a168.29,168.29,0,0,0,16.22-6.8c5-.07,10.57-.13,14.89,2.73a10.44,10.44,0,0,1,4.7,7.71c-.33.82-.67,1.65-1,2.47q-2.69,6.9-4.71,14a1,1,0,0,0,1.93.53q1.76-6.15,4-12.13a1.17,1.17,0,0,0,.63-.25c6.81-5.47,16.34-12.52,25.34-7.51a.89.89,0,0,0,.38.12q-.1,24.45.31,48.9c.05,2.63.12,5.27.17,7.9C169.91,309.23,156.36,297.13,142.34,288Zm61.31-35.54a31,31,0,0,0-25.93,10.46,1,1,0,0,0-1.19-.65q-.94-15.12-2.54-30.18c.61.44,1.67.21,1.58-.74l-.21-2.17.54-.43a.82.82,0,0,0,.35-.62c11.12,1,21.73,4.69,32.35,8.3A23.88,23.88,0,0,0,203.65,252.47Zm10.94-21.55a23.19,23.19,0,0,0-4.64,3.91c-7.79-2.63-15.56-5.4-23.52-7.14a81.09,81.09,0,0,0-10.27-1.56l31.41-15.07A21.52,21.52,0,0,0,214.59,230.92Zm-6.44-22.35L176.61,223.7q9-17.74,18.3-35.31l1.66-.35a22.41,22.41,0,0,0,13,17.16A20.1,20.1,0,0,0,208.15,208.57Z"/><path class="cls-11" d="M198.45,68.3a10.19,10.19,0,0,0,1.14-5.09,3,3,0,0,0-3.8-2.89,4.49,4.49,0,0,0-3,2.73,5.2,5.2,0,0,0-.35.47,2.55,2.55,0,0,0-.41.34,3.92,3.92,0,0,0-1.2,3.87,3.12,3.12,0,0,0,.47,1,3.61,3.61,0,0,0,.82,1.56,4.34,4.34,0,0,0,1.07,1.13,3,3,0,0,0,3.63-.47,8,8,0,0,0,.6-.78,3.65,3.65,0,0,0,.39-.49,3.76,3.76,0,0,0,.43-.88C198.31,68.62,198.38,68.46,198.45,68.3Z"/><path class="cls-11" d="M218,100.28a1.55,1.55,0,0,0-.21-.76,2.34,2.34,0,0,0-.62-1l-.61-.47-.71-.3a2.16,2.16,0,0,0-.94-.07,4.53,4.53,0,0,0-.54-4.38,2.81,2.81,0,0,0-.83-.63,5.75,5.75,0,0,0,1.56-2.57,3.6,3.6,0,0,0,.1-1.69,2.78,2.78,0,0,0-.39-1.47,4,4,0,0,0-.45-.57l0-.05c0-.09.08-.19.12-.28l0,0c1.26-1.44,2.63-3.43,2-5.42-.74-2.3-3-2.61-4.9-2a14.15,14.15,0,0,0,2.11-3.95,3.5,3.5,0,0,0-4.3-4.6,2.66,2.66,0,0,0-1.75.39,11.34,11.34,0,0,0-2.34,2,11.1,11.1,0,0,0,1-4.23,4.57,4.57,0,0,0-1.24-3.21,2.68,2.68,0,0,0-4-1c-3.28,2.15-5.69,7.22-3.34,10.91a3.67,3.67,0,0,0,3.06,1.72,3.81,3.81,0,0,0,2.88-1.54c-.73,1.75-1,3.84.3,5.21a2.3,2.3,0,0,0,.33.38,3.1,3.1,0,0,0,3.43.77l.24-.07a8.2,8.2,0,0,0-1.06,1.9,4.28,4.28,0,0,0,1.37,5.36A4.92,4.92,0,0,0,208,90a3.17,3.17,0,0,0,.54,2.62,3.29,3.29,0,0,0,.86.76,11.88,11.88,0,0,0-1.74,2.15,2.63,2.63,0,0,0-.36,2,5.4,5.4,0,0,0-.11.58,3.33,3.33,0,0,0,3.21,3.89,3.51,3.51,0,0,0,1.44-.3,1.6,1.6,0,0,0,0,.29,2.2,2.2,0,0,0,.54,1,2.23,2.23,0,0,0,.84.77l.71.31a3.1,3.1,0,0,0,1.6,0l.72-.31a3,3,0,0,0,1.07-1.07l.35-.51.3-.72A2.3,2.3,0,0,0,218,100.28Z"/><path class="cls-11" d="M174.76,75.26l-.6-.07-.65-.06a14,14,0,0,1-3.26-.68c-.23-.07-.44-.16-.67-.24-.87-.07-1.77-.12-2.69-.15a3.78,3.78,0,0,0,0,.6,8.58,8.58,0,0,0,.14,1.23,4.4,4.4,0,0,0-.9-.5,3.8,3.8,0,0,0-1.48-.28,2.93,2.93,0,0,0-1.16-.24,3,3,0,0,0-3,3,14.64,14.64,0,0,0,.17,1.5,7.36,7.36,0,0,0-1.54-1.26,3.09,3.09,0,0,0-4.25,1.32,2.49,2.49,0,0,0-.66,1.53,3.83,3.83,0,0,0-2.42-1.49,3.55,3.55,0,0,0-4,2.69,4,4,0,0,0-.1.52,8.77,8.77,0,0,0-.87-1.79,3.1,3.1,0,0,0-4.2-1,5.46,5.46,0,0,0-.57,0,3.54,3.54,0,0,0-2.32.9,4.74,4.74,0,0,0-1.29,1.35c-2,3.31-.69,8.76,3.47,9.55a3.94,3.94,0,0,0,2-.12,3.81,3.81,0,0,0,1.36-.16,4,4,0,0,0,2.32-1.9,6.1,6.1,0,0,0,.4-.59c.05-.09.07-.18.11-.26a10.46,10.46,0,0,0,1.1,2.41,3.07,3.07,0,0,0,4.72.61,4.85,4.85,0,0,0,1.7-3.31.88.88,0,0,1,.05-.15,4.79,4.79,0,0,0,.74.94,3.55,3.55,0,0,0,4.77.29,3.24,3.24,0,0,0,1.23-2.91,7.53,7.53,0,0,0,.26-2.2c.19.25.38.5.58.74a3.64,3.64,0,0,0,4.55,1c1.36-.79,1.81-2.47,1.87-4,0-.18,0-.38,0-.57a3,3,0,0,0,4,1,4.65,4.65,0,0,0,1-.88,3.32,3.32,0,0,0,1.15-2.29,9.46,9.46,0,0,0-.55-4Z"/><path class="cls-12" d="M147.52,83.18a11.43,11.43,0,0,1,.58,2.51,12,12,0,0,1,.07,1.34c0,.21,0,.41,0,.62s0,.21,0,.31,0,.14,0,.21a.29.29,0,0,1,.08-.19l.33-.19-.05,0h.4l-.06,0a.76.76,0,0,0-.92.52.78.78,0,0,0,.52.93.9.9,0,0,0,1-.39,1.91,1.91,0,0,0,.21-.94,12.08,12.08,0,0,0,0-1.7,12.9,12.9,0,0,0-.69-3.43.77.77,0,0,0-.92-.53.76.76,0,0,0-.52.93Z"/><path class="cls-12" d="M153.57,82.17a7.82,7.82,0,0,1,1.58,5.21.75.75,0,0,0,1.5,0,9.39,9.39,0,0,0-2-6.27.75.75,0,0,0-1.06,0,.77.77,0,0,0,0,1.06Z"/><path class="cls-12" d="M159.88,79.9a5.11,5.11,0,0,1,.45.48l.1.12c.08.09-.05-.08,0,0l.18.25c.12.18.23.37.34.56l.13.27.07.14c0,.11,0,0,0,.07a7.68,7.68,0,0,1,.35,1.22l0,.16s0,.11,0,0l0,.3a5.43,5.43,0,0,1,0,.7.76.76,0,0,0,.75.75.77.77,0,0,0,.75-.75,7.14,7.14,0,0,0-2.19-5.39.75.75,0,0,0-1.06,1.06Z"/><path class="cls-12" d="M166.28,76.77a14.46,14.46,0,0,1,1.94,4.62.76.76,0,0,0,.92.53.78.78,0,0,0,.53-.93,16.17,16.17,0,0,0-2.09-5,.77.77,0,0,0-1-.26.75.75,0,0,0-.27,1Z"/><path class="cls-12" d="M142.73,82.09a6.58,6.58,0,0,0,.58,3.15.74.74,0,0,0,1,.27.74.74,0,0,0,.34-.45.9.9,0,0,0-.07-.58.36.36,0,0,1,0-.09c0,.11.05.12,0,0l-.06-.14c0-.11-.07-.22-.11-.33s-.11-.43-.15-.65c0,0,0-.17,0-.18s0,.14,0,.08v-.08c0-.11,0-.23,0-.35a5.3,5.3,0,0,1,0-.69.75.75,0,0,0-.75-.75.76.76,0,0,0-.75.75Z"/><path class="cls-12" d="M138.23,84.42l.65,2,.08-.58v0l.11-.15v0l.15-.12,0,0,.18-.08h0l.2,0h0l.2,0h0l.18.08,0,0,.15.11h0l.12.15,0,0a.76.76,0,0,0-.45-.35.74.74,0,0,0-.58.08.71.71,0,0,0-.34.45.81.81,0,0,0,.08.57.83.83,0,0,0,.55.43.9.9,0,0,0,.85-.22.78.78,0,0,0,.23-.47,1,1,0,0,0-.05-.43l-.13-.38L139.68,84a.81.81,0,0,0-.34-.45.79.79,0,0,0-.58-.07.76.76,0,0,0-.53.92Z"/><path class="cls-12" d="M198.87,64.54a14.59,14.59,0,0,0-2.09,5.78.77.77,0,0,0,.52.92.75.75,0,0,0,.92-.53,13.65,13.65,0,0,1,1.94-5.41.75.75,0,1,0-1.29-.76Z"/><path class="cls-12" d="M205,71.08A5.35,5.35,0,0,0,203,75.42a.75.75,0,0,0,1.5,0,4.68,4.68,0,0,1,0-.53.82.82,0,0,1,0-.23c0,.09,0,.11,0,0v-.06a.43.43,0,0,1,0-.11,3.81,3.81,0,0,1,.12-.51l.09-.25a.36.36,0,0,1,0-.11c0,.06,0,.08,0,0a4.85,4.85,0,0,1,.52-.88s-.06.08,0,0l.09-.11.16-.17c.13-.13.27-.25.41-.37a.75.75,0,0,0,0-1.06.77.77,0,0,0-1.06,0Z"/><path class="cls-12" d="M211.85,77.2A6,6,0,0,0,208.22,81a.76.76,0,0,0,.53.92.77.77,0,0,0,.92-.52,2.31,2.31,0,0,1,.1-.28s.06-.13,0-.13-.08.17,0,0,.17-.33.26-.49.2-.31.31-.46-.1.12,0,0l.09-.11.2-.21c.12-.13.25-.25.38-.37l.11-.09c.14-.11-.13.1,0,0l.23-.16a4.25,4.25,0,0,1,.46-.27l.26-.13h0l.14,0a.77.77,0,0,0,.52-.92.76.76,0,0,0-.92-.53Z"/><path class="cls-12" d="M209.4,89a5.72,5.72,0,0,1,.92-.92l.05,0,.12-.09.28-.18c.19-.12.39-.22.59-.32,0,0,.14-.06.08,0s.08,0,.09,0l.31-.11a4.77,4.77,0,0,1,.65-.17l.14,0,.12,0H213a5.45,5.45,0,0,1,.7,0,.76.76,0,0,0,.75-.75.77.77,0,0,0-.75-.75A6.58,6.58,0,0,0,208.34,88a.77.77,0,0,0,0,1.06.75.75,0,0,0,1.06,0Z"/><path class="cls-12" d="M210.09,94.84a4.17,4.17,0,0,1,.43-.41l.06-.05c-.06.05,0,0,.06,0l.23-.16c.17-.1.35-.2.52-.28l.13-.06c-.07,0,0,0,0,0l.29-.1a5.44,5.44,0,0,1,.54-.15l.28,0c.08,0-.11,0,0,0h.14a3.47,3.47,0,0,1,.56,0l.31,0c.12,0-.11,0,0,0l.17,0a.75.75,0,0,0,.4-1.45A5.84,5.84,0,0,0,209,93.78a.76.76,0,0,0,0,1.06.78.78,0,0,0,1.07,0Z"/><path class="cls-12" d="M213.07,101c0-.08,0,0,0,0s0-.1,0-.13,0,.13,0,0v-.16c0-.06,0,0,0,0s0-.1,0-.11.05-.15.07-.23c0,.1,0,.06,0,0l.06-.11a2.39,2.39,0,0,1,.13-.21l.15-.23c0,.06,0,.07,0,0l.11-.13a8.82,8.82,0,0,1,.77-.84l.42-.39.21-.17.13-.1c.09-.08-.14.1,0,0a.79.79,0,0,0,.35-.45.74.74,0,0,0-.08-.58.76.76,0,0,0-1-.27,11.2,11.2,0,0,0-2,2,2.59,2.59,0,0,0-.58,2.83.75.75,0,0,0,1,.27.76.76,0,0,0,.27-1Z"/></g></g></svg>