<?xml version="1.0" encoding="utf-8"?>
<!-- Generator: Adobe Illustrator 24.1.2, SVG Export Plug-In . SVG Version: 6.00 Build 0)  -->
<svg version="1.1" id="Layer_1" xmlns="http://www.w3.org/2000/svg" xmlns:xlink="http://www.w3.org/1999/xlink" x="0px" y="0px"
	 viewBox="0 0 157 157" style="enable-background:new 0 0 157 157;" xml:space="preserve">
<style type="text/css">
	.st0{fill:none;}
	.st1{fill:none;stroke:#BB6CFC;stroke-width:2;}
	.st2{enable-background:new    ;}
	.st3{fill:#BB6CFF;}
</style>
<g id="Group_1" transform="translate(-1634 -154)">
	<g id="Ellipse_4" transform="translate(1634 154)">
		<circle class="st0" cx="78.5" cy="78.5" r="78.5"/>
		<circle class="st1" cx="78.5" cy="78.5" r="77.5"/>
	</g>
	<g class="st2">
		<path class="st3" d="M1647.6,242.1c-1-3.6,1-6.7,4.3-7.6c2.3-0.6,4,0.1,5.3,1.2l-1.3,1.2c-0.9-0.8-2.2-1.2-3.6-0.8
			c-2.3,0.6-3.7,3-3,5.6c0.7,2.6,3,4,5.4,3.3c1.4-0.4,2.3-1.4,2.7-2.5l1.7,0.4c-0.6,1.6-1.7,3.1-4,3.7
			C1651.9,247.4,1648.6,245.7,1647.6,242.1z"/>
		<path class="st3" d="M1665.4,230.9c3.5-0.9,6.5,1,7.5,4.4c0.9,3.4-0.8,6.6-4.2,7.6c-3.5,0.9-6.5-1-7.5-4.4
			C1660.2,235.1,1661.9,231.9,1665.4,230.9z M1665.8,232.5c-2.5,0.7-3.5,3-2.9,5.5c0.7,2.5,2.8,4,5.2,3.4c2.5-0.7,3.5-3,2.9-5.5
			C1670.4,233.3,1668.3,231.8,1665.8,232.5z"/>
		<path class="st3" d="M1685.7,228.2l-1.3,10.2l-0.7,0.2l-6.2-8.2l2.5,9.2l-1.7,0.5l-3.1-11.6l2.5-0.7l5.6,7.4l1.1-9.2l2.5-0.7
			l3.1,11.6l-1.7,0.5L1685.7,228.2z"/>
		<path class="st3" d="M1701.8,224l-1.3,10.2l-0.7,0.2l-6.2-8.2l2.5,9.2l-1.7,0.5l-3.1-11.6l2.5-0.7l5.6,7.4l1.1-9.2l2.5-0.7
			l3.1,11.6l-1.7,0.5L1701.8,224z"/>
		<path class="st3" d="M1707.2,219.9l7.8-2.1l0.4,1.5l-6.1,1.6l0.9,3.4l5.9-1.6l0.4,1.5l-5.9,1.6l1,3.6l6.1-1.6l0.4,1.5l-7.8,2.1
			L1707.2,219.9z"/>
		<path class="st3" d="M1724.7,222.9l-2.2,0.6l1.2,4.5l-1.7,0.5l-3.1-11.6l4.9-1.3c2.2-0.6,4.1,0.4,4.7,2.6c0.6,2.1-0.6,3.6-2,4.2
			l4.2,3.8l-2,0.5L1724.7,222.9z M1724,217.1l-2.9,0.8l1.1,4.1l2.9-0.8c1.3-0.3,1.9-1.4,1.6-2.6
			C1726.3,217.3,1725.2,216.8,1724,217.1z"/>
		<path class="st3" d="M1732.4,219.4c-1-3.6,1-6.7,4.3-7.6c2.3-0.6,4,0.1,5.3,1.2l-1.3,1.2c-0.9-0.8-2.2-1.2-3.6-0.8
			c-2.3,0.6-3.7,3-3,5.6c0.7,2.6,3,4,5.4,3.3c1.4-0.4,2.3-1.4,2.7-2.5l1.7,0.4c-0.6,1.6-1.7,3.1-4,3.7
			C1736.7,224.7,1733.4,223,1732.4,219.4z"/>
		<path class="st3" d="M1744.9,209.8l1.7-0.5l3.1,11.6l-1.7,0.5L1744.9,209.8z"/>
		<path class="st3" d="M1760.8,215.4l-5.7,1.5l-0.3,2.7l-1.9,0.5l1.5-12.8l2.2-0.6l7.7,10.4l-1.9,0.5L1760.8,215.4z M1755.2,215.3
			l4.7-1.3l-4-5.5L1755.2,215.3z"/>
		<path class="st3" d="M1764.3,204.6l1.7-0.5l2.7,10.1l5.3-1.4l0.4,1.5l-7,1.9L1764.3,204.6z"/>
	</g>
	<g class="st2">
		<path class="st3" d="M1698.3,247.9l0,9.6l-1.9,0.5l-6.4-10.7l1.9-0.5l4.9,8.7l0-10l1.4-0.4l5,8.6l-0.1-9.9l1.9-0.5l-0.2,12.5
			l-1.9,0.5L1698.3,247.9z"/>
		<path class="st3" d="M1713.4,240.9c3.5-0.9,6.5,1,7.5,4.4s-0.8,6.6-4.2,7.6s-6.5-1-7.5-4.4C1708.2,245,1709.9,241.8,1713.4,240.9z
			 M1713.8,242.4c-2.5,0.7-3.5,3-2.9,5.5c0.7,2.5,2.8,4,5.2,3.4c2.5-0.7,3.5-3,2.9-5.5C1718.4,243.2,1716.3,241.8,1713.8,242.4z"/>
		<path class="st3" d="M1728.9,244.5l-2.2,0.6l1.2,4.5l-1.7,0.5l-3.1-11.6l4.9-1.3c2.2-0.6,4.1,0.4,4.7,2.6c0.6,2.1-0.6,3.6-2,4.2
			l4.2,3.8l-2,0.5L1728.9,244.5z M1728.2,238.7l-2.9,0.8l1.1,4.1l2.9-0.8c1.3-0.3,1.9-1.4,1.6-2.6
			C1730.6,239,1729.4,238.4,1728.2,238.7z"/>
		<path class="st3" d="M1740.2,240.9l-0.8,1.5l1,3.8l-1.7,0.5l-3.1-11.6l1.7-0.5l1.5,5.8l3.3-7.1l2.2-0.6l-3.3,6.8l6.8,4.7l-2.2,0.6
			L1740.2,240.9z"/>
	</g>
</g>
</svg>
